<?xml version="1.0" encoding="UTF-8" standalone="no"?>
<!-- Created with Inkscape (http://www.inkscape.org/) -->

<svg
   xmlns:dc="http://purl.org/dc/elements/1.1/"
   xmlns:cc="http://creativecommons.org/ns#"
   xmlns:rdf="http://www.w3.org/1999/02/22-rdf-syntax-ns#"
   xmlns:svg="http://www.w3.org/2000/svg"
   xmlns="http://www.w3.org/2000/svg"
   xmlns:sodipodi="http://sodipodi.sourceforge.net/DTD/sodipodi-0.dtd"
   xmlns:inkscape="http://www.inkscape.org/namespaces/inkscape"
   id="svg4493"
   version="1.1"
   inkscape:version="0.48.4 r9939"
   width="450"
   height="180"
   xml:space="preserve"
   sodipodi:docname="baseline.pdf"><metadata
     id="metadata4499"><rdf:RDF><cc:Work
         rdf:about=""><dc:format>image/svg+xml</dc:format><dc:type
           rdf:resource="http://purl.org/dc/dcmitype/StillImage" /><dc:title></dc:title></cc:Work></rdf:RDF></metadata><defs
     id="defs4497"><clipPath
       clipPathUnits="userSpaceOnUse"
       id="clipPath4509"><path
         d="m 37.96875,37.125 306.39375,0 0,91.74375 -306.39375,0 0,-91.74375 z"
         id="path4511" /></clipPath><clipPath
       clipPathUnits="userSpaceOnUse"
       id="clipPath4519"><path
         d="m 37.96875,37.125 306.39375,0 0,91.74375 -306.39375,0 0,-91.74375 z"
         id="path4521" /></clipPath><clipPath
       clipPathUnits="userSpaceOnUse"
       id="clipPath4529"><path
         d="m 37.96875,37.125 306.39375,0 0,91.74375 -306.39375,0 0,-91.74375 z"
         id="path4531" /></clipPath><clipPath
       clipPathUnits="userSpaceOnUse"
       id="clipPath4539"><path
         d="m 37.96875,37.125 306.39375,0 0,91.74375 -306.39375,0 0,-91.74375 z"
         id="path4541" /></clipPath><clipPath
       clipPathUnits="userSpaceOnUse"
       id="clipPath4549"><path
         d="m 37.96875,37.125 306.39375,0 0,91.74375 -306.39375,0 0,-91.74375 z"
         id="path4551" /></clipPath><clipPath
       clipPathUnits="userSpaceOnUse"
       id="clipPath4559"><path
         d="m 37.96875,37.125 306.39375,0 0,91.74375 -306.39375,0 0,-91.74375 z"
         id="path4561" /></clipPath><clipPath
       clipPathUnits="userSpaceOnUse"
       id="clipPath4569"><path
         d="m 37.96875,37.125 306.39375,0 0,91.74375 -306.39375,0 0,-91.74375 z"
         id="path4571" /></clipPath><clipPath
       clipPathUnits="userSpaceOnUse"
       id="clipPath4579"><path
         d="m 37.96875,37.125 306.39375,0 0,91.74375 -306.39375,0 0,-91.74375 z"
         id="path4581" /></clipPath><clipPath
       clipPathUnits="userSpaceOnUse"
       id="clipPath4589"><path
         d="m 37.96875,37.125 306.39375,0 0,91.74375 -306.39375,0 0,-91.74375 z"
         id="path4591" /></clipPath><clipPath
       clipPathUnits="userSpaceOnUse"
       id="clipPath4599"><path
         d="m 37.96875,37.125 306.39375,0 0,91.74375 -306.39375,0 0,-91.74375 z"
         id="path4601" /></clipPath><clipPath
       clipPathUnits="userSpaceOnUse"
       id="clipPath4609"><path
         d="m 37.96875,37.125 306.39375,0 0,91.74375 -306.39375,0 0,-91.74375 z"
         id="path4611" /></clipPath><clipPath
       clipPathUnits="userSpaceOnUse"
       id="clipPath4619"><path
         d="m 37.96875,37.125 306.39375,0 0,91.74375 -306.39375,0 0,-91.74375 z"
         id="path4621" /></clipPath><clipPath
       clipPathUnits="userSpaceOnUse"
       id="clipPath4629"><path
         d="m 37.96875,37.125 306.39375,0 0,91.74375 -306.39375,0 0,-91.74375 z"
         id="path4631" /></clipPath><clipPath
       clipPathUnits="userSpaceOnUse"
       id="clipPath4639"><path
         d="m 37.96875,37.125 306.39375,0 0,91.74375 -306.39375,0 0,-91.74375 z"
         id="path4641" /></clipPath><clipPath
       clipPathUnits="userSpaceOnUse"
       id="clipPath4649"><path
         d="m 37.96875,37.125 306.39375,0 0,91.74375 -306.39375,0 0,-91.74375 z"
         id="path4651" /></clipPath><clipPath
       clipPathUnits="userSpaceOnUse"
       id="clipPath4659"><path
         d="m 37.96875,37.125 306.39375,0 0,91.74375 -306.39375,0 0,-91.74375 z"
         id="path4661" /></clipPath><clipPath
       clipPathUnits="userSpaceOnUse"
       id="clipPath4669"><path
         d="m 37.96875,37.125 306.39375,0 0,91.74375 -306.39375,0 0,-91.74375 z"
         id="path4671" /></clipPath><clipPath
       clipPathUnits="userSpaceOnUse"
       id="clipPath4679"><path
         d="m 37.96875,37.125 306.39375,0 0,91.74375 -306.39375,0 0,-91.74375 z"
         id="path4681" /></clipPath><clipPath
       clipPathUnits="userSpaceOnUse"
       id="clipPath4689"><path
         d="m 37.96875,37.125 306.39375,0 0,91.74375 -306.39375,0 0,-91.74375 z"
         id="path4691" /></clipPath><clipPath
       clipPathUnits="userSpaceOnUse"
       id="clipPath4699"><path
         d="m 37.96875,37.125 306.39375,0 0,91.74375 -306.39375,0 0,-91.74375 z"
         id="path4701" /></clipPath><clipPath
       clipPathUnits="userSpaceOnUse"
       id="clipPath4709"><path
         d="m 37.96875,37.125 306.39375,0 0,91.74375 -306.39375,0 0,-91.74375 z"
         id="path4711" /></clipPath><clipPath
       clipPathUnits="userSpaceOnUse"
       id="clipPath4719"><path
         d="m 37.96875,37.125 306.39375,0 0,91.74375 -306.39375,0 0,-91.74375 z"
         id="path4721" /></clipPath><clipPath
       clipPathUnits="userSpaceOnUse"
       id="clipPath4729"><path
         d="m 37.96875,37.125 306.39375,0 0,91.74375 -306.39375,0 0,-91.74375 z"
         id="path4731" /></clipPath><clipPath
       clipPathUnits="userSpaceOnUse"
       id="clipPath4739"><path
         d="m 37.96875,37.125 306.39375,0 0,91.74375 -306.39375,0 0,-91.74375 z"
         id="path4741" /></clipPath></defs><sodipodi:namedview
     pagecolor="#ffffff"
     bordercolor="#666666"
     borderopacity="1"
     objecttolerance="10"
     gridtolerance="10"
     guidetolerance="10"
     inkscape:pageopacity="0"
     inkscape:pageshadow="2"
     inkscape:window-width="1366"
     inkscape:window-height="716"
     id="namedview4495"
     showgrid="false"
     inkscape:zoom="1.9233304"
     inkscape:cx="174.52445"
     inkscape:cy="105.87504"
     inkscape:window-x="-8"
     inkscape:window-y="-8"
     inkscape:window-maximized="1"
     inkscape:current-layer="g4501" /><g
     id="g4501"
     inkscape:groupmode="layer"
     inkscape:label="baseline"
     transform="matrix(1.25,0,0,-1.25,0,180)"><path
       d="M 0,0 360,0 360,144 0,144 0,0 z"
       style="fill:#ffffff;fill-opacity:1;fill-rule:nonzero;stroke:none"
       id="path4503" /><g
       id="g4505"><g
         id="g4507"
         clip-path="url(#clipPath4509)"><path
           d="m 50.2245,37.125 11.745094,0 0,25.68825 -11.745094,0 0,-25.68825 z"
           style="fill:#808080;fill-opacity:1;fill-rule:nonzero;stroke:#000000;stroke-opacity:1;stroke-width:1;stroke-linecap:butt;stroke-linejoin:miter;stroke-miterlimit:10;stroke-dasharray:none"
           id="path4513" /></g></g><g
       id="g4515"><g
         id="g4517"
         clip-path="url(#clipPath4519)"><path
           d="m 61.969594,37.125 11.745094,0 0,29.358 -11.745094,0 0,-29.358 z"
           style="fill:#808080;fill-opacity:1;fill-rule:nonzero;stroke:#000000;stroke-opacity:1;stroke-width:1;stroke-linecap:butt;stroke-linejoin:miter;stroke-miterlimit:10;stroke-dasharray:none"
           id="path4523" /></g></g><g
       id="g4525"><g
         id="g4527"
         clip-path="url(#clipPath4529)"><path
           d="m 73.714688,37.125 11.745093,0 0,40.36725 -11.745093,0 0,-40.36725 z"
           style="fill:#808080;fill-opacity:1;fill-rule:nonzero;stroke:#000000;stroke-opacity:1;stroke-width:1;stroke-linecap:butt;stroke-linejoin:miter;stroke-miterlimit:10;stroke-dasharray:none"
           id="path4533" /></g></g><g
       id="g4535"><g
         id="g4537"
         clip-path="url(#clipPath4539)"><path
           d="m 85.459781,37.125 11.745094,0 0,55.04625 -11.745094,0 0,-55.04625 z"
           style="fill:#808080;fill-opacity:1;fill-rule:nonzero;stroke:#000000;stroke-opacity:1;stroke-width:1;stroke-linecap:butt;stroke-linejoin:miter;stroke-miterlimit:10;stroke-dasharray:none"
           id="path4543" /></g></g><g
       id="g4545"><g
         id="g4547"
         clip-path="url(#clipPath4549)"><path
           d="m 97.204875,37.125 11.745095,0 0,36.6975 -11.745095,0 0,-36.6975 z"
           style="fill:#808080;fill-opacity:1;fill-rule:nonzero;stroke:#000000;stroke-opacity:1;stroke-width:1;stroke-linecap:butt;stroke-linejoin:miter;stroke-miterlimit:10;stroke-dasharray:none"
           id="path4553" /></g></g><g
       id="g4555"><g
         id="g4557"
         clip-path="url(#clipPath4559)"><path
           d="m 108.94997,37.125 11.74509,0 0,58.716 -11.74509,0 0,-58.716 z"
           style="fill:#808080;fill-opacity:1;fill-rule:nonzero;stroke:#000000;stroke-opacity:1;stroke-width:1;stroke-linecap:butt;stroke-linejoin:miter;stroke-miterlimit:10;stroke-dasharray:none"
           id="path4563" /></g></g><g
       id="g4565"><g
         id="g4567"
         clip-path="url(#clipPath4569)"><path
           d="m 120.69506,37.125 11.7451,0 0,58.716 -11.7451,0 0,-58.716 z"
           style="fill:#808080;fill-opacity:1;fill-rule:nonzero;stroke:#000000;stroke-opacity:1;stroke-width:1;stroke-linecap:butt;stroke-linejoin:miter;stroke-miterlimit:10;stroke-dasharray:none"
           id="path4573" /></g></g><g
       id="g4575"><g
         id="g4577"
         clip-path="url(#clipPath4579)"><path
           d="m 132.44016,37.125 11.74509,0 0,47.70675 -11.74509,0 0,-47.70675 z"
           style="fill:#808080;fill-opacity:1;fill-rule:nonzero;stroke:#000000;stroke-opacity:1;stroke-width:1;stroke-linecap:butt;stroke-linejoin:miter;stroke-miterlimit:10;stroke-dasharray:none"
           id="path4583" /></g></g><g
       id="g4585"><g
         id="g4587"
         clip-path="url(#clipPath4589)"><path
           d="m 144.18525,37.125 11.74509,0 0,40.36725 -11.74509,0 0,-40.36725 z"
           style="fill:#808080;fill-opacity:1;fill-rule:nonzero;stroke:#000000;stroke-opacity:1;stroke-width:1;stroke-linecap:butt;stroke-linejoin:miter;stroke-miterlimit:10;stroke-dasharray:none"
           id="path4593" /></g></g><g
       id="g4595"><g
         id="g4597"
         clip-path="url(#clipPath4599)"><path
           d="m 155.93034,37.125 11.7451,0 0,66.0555 -11.7451,0 0,-66.0555 z"
           style="fill:#808080;fill-opacity:1;fill-rule:nonzero;stroke:#000000;stroke-opacity:1;stroke-width:1;stroke-linecap:butt;stroke-linejoin:miter;stroke-miterlimit:10;stroke-dasharray:none"
           id="path4603" /></g></g><g
       id="g4605"><g
         id="g4607"
         clip-path="url(#clipPath4609)"><path
           d="m 167.67544,37.125 11.74509,0 0,77.06475 -11.74509,0 0,-77.06475 z"
           style="fill:#808080;fill-opacity:1;fill-rule:nonzero;stroke:#000000;stroke-opacity:1;stroke-width:1;stroke-linecap:butt;stroke-linejoin:miter;stroke-miterlimit:10;stroke-dasharray:none"
           id="path4613" /></g></g><g
       id="g4615"><g
         id="g4617"
         clip-path="url(#clipPath4619)"><path
           d="m 179.42053,37.125 11.74509,0 0,47.70675 -11.74509,0 0,-47.70675 z"
           style="fill:#808080;fill-opacity:1;fill-rule:nonzero;stroke:#000000;stroke-opacity:1;stroke-width:1;stroke-linecap:butt;stroke-linejoin:miter;stroke-miterlimit:10;stroke-dasharray:none"
           id="path4623" /></g></g><g
       id="g4625"><g
         id="g4627"
         clip-path="url(#clipPath4629)"><path
           d="m 191.16562,37.125 11.7451,0 0,44.037 -11.7451,0 0,-44.037 z"
           style="fill:#808080;fill-opacity:1;fill-rule:nonzero;stroke:#000000;stroke-opacity:1;stroke-width:1;stroke-linecap:butt;stroke-linejoin:miter;stroke-miterlimit:10;stroke-dasharray:none"
           id="path4633" /></g></g><g
       id="g4635"><g
         id="g4637"
         clip-path="url(#clipPath4639)"><path
           d="m 202.91072,37.125 11.74509,0 0,33.02775 -11.74509,0 0,-33.02775 z"
           style="fill:#808080;fill-opacity:1;fill-rule:nonzero;stroke:#000000;stroke-opacity:1;stroke-width:1;stroke-linecap:butt;stroke-linejoin:miter;stroke-miterlimit:10;stroke-dasharray:none"
           id="path4643" /></g></g><g
       id="g4645"><g
         id="g4647"
         clip-path="url(#clipPath4649)"><path
           d="m 214.65581,37.125 11.7451,0 0,33.02775 -11.7451,0 0,-33.02775 z"
           style="fill:#808080;fill-opacity:1;fill-rule:nonzero;stroke:#000000;stroke-opacity:1;stroke-width:1;stroke-linecap:butt;stroke-linejoin:miter;stroke-miterlimit:10;stroke-dasharray:none"
           id="path4653" /></g></g><g
       id="g4655"><g
         id="g4657"
         clip-path="url(#clipPath4659)"><path
           d="m 226.40091,37.125 11.74509,0 0,7.3395 -11.74509,0 0,-7.3395 z"
           style="fill:#808080;fill-opacity:1;fill-rule:nonzero;stroke:#000000;stroke-opacity:1;stroke-width:1;stroke-linecap:butt;stroke-linejoin:miter;stroke-miterlimit:10;stroke-dasharray:none"
           id="path4663" /></g></g><g
       id="g4665"><g
         id="g4667"
         clip-path="url(#clipPath4669)"><path
           d="m 238.146,37.125 11.74509,0 0,3.66975 -11.74509,0 0,-3.66975 z"
           style="fill:#808080;fill-opacity:1;fill-rule:nonzero;stroke:#000000;stroke-opacity:1;stroke-width:1;stroke-linecap:butt;stroke-linejoin:miter;stroke-miterlimit:10;stroke-dasharray:none"
           id="path4673" /></g></g><g
       id="g4675"><g
         id="g4677"
         clip-path="url(#clipPath4679)"><path
           d="m 249.89109,37.125 11.7451,0 0,3.66975 -11.7451,0 0,-3.66975 z"
           style="fill:#808080;fill-opacity:1;fill-rule:nonzero;stroke:#000000;stroke-opacity:1;stroke-width:1;stroke-linecap:butt;stroke-linejoin:miter;stroke-miterlimit:10;stroke-dasharray:none"
           id="path4683" /></g></g><g
       id="g4685"><g
         id="g4687"
         clip-path="url(#clipPath4689)"><path
           d="m 261.63619,37.125 11.74509,0 0,11.00925 -11.74509,0 0,-11.00925 z"
           style="fill:#808080;fill-opacity:1;fill-rule:nonzero;stroke:#000000;stroke-opacity:1;stroke-width:1;stroke-linecap:butt;stroke-linejoin:miter;stroke-miterlimit:10;stroke-dasharray:none"
           id="path4693" /></g></g><g
       id="g4695"><g
         id="g4697"
         clip-path="url(#clipPath4699)"><path
           d="m 273.38128,37.125 11.74509,0 0,7.3395 -11.74509,0 0,-7.3395 z"
           style="fill:#808080;fill-opacity:1;fill-rule:nonzero;stroke:#000000;stroke-opacity:1;stroke-width:1;stroke-linecap:butt;stroke-linejoin:miter;stroke-miterlimit:10;stroke-dasharray:none"
           id="path4703" /></g></g><g
       id="g4705"><g
         id="g4707"
         clip-path="url(#clipPath4709)"><path
           d="m 285.12637,37.125 11.7451,0 0,3.66975 -11.7451,0 0,-3.66975 z"
           style="fill:#808080;fill-opacity:1;fill-rule:nonzero;stroke:#000000;stroke-opacity:1;stroke-width:1;stroke-linecap:butt;stroke-linejoin:miter;stroke-miterlimit:10;stroke-dasharray:none"
           id="path4713" /></g></g><g
       id="g4715"><g
         id="g4717"
         clip-path="url(#clipPath4719)"><path
           d="m 296.87147,37.125 11.74509,0 0,0 -11.74509,0 z"
           style="fill:#808080;fill-opacity:1;fill-rule:nonzero;stroke:#000000;stroke-opacity:1;stroke-width:1;stroke-linecap:butt;stroke-linejoin:miter;stroke-miterlimit:10;stroke-dasharray:none"
           id="path4723" /></g></g><g
       id="g4725"><g
         id="g4727"
         clip-path="url(#clipPath4729)"><path
           d="m 308.61656,37.125 11.7451,0 0,0 -11.7451,0 z"
           style="fill:#808080;fill-opacity:1;fill-rule:nonzero;stroke:#000000;stroke-opacity:1;stroke-width:1;stroke-linecap:butt;stroke-linejoin:miter;stroke-miterlimit:10;stroke-dasharray:none"
           id="path4733" /></g></g><g
       id="g4735"><g
         id="g4737"
         clip-path="url(#clipPath4739)"><path
           d="m 320.36166,37.125 11.74509,0 0,3.66975 -11.74509,0 0,-3.66975 z"
           style="fill:#808080;fill-opacity:1;fill-rule:nonzero;stroke:#000000;stroke-opacity:1;stroke-width:1;stroke-linecap:butt;stroke-linejoin:miter;stroke-miterlimit:10;stroke-dasharray:none"
           id="path4743" /></g></g><g
       id="g4745"><path
         d="m 37.96875,128.86875 306.39375,0"
         style="fill:none;stroke:#000000;stroke-opacity:1;stroke-width:1;stroke-linecap:square;stroke-linejoin:miter;stroke-miterlimit:10;stroke-dasharray:none"
         id="path4747" /><path
         d="m 344.3625,37.125 0,91.74375"
         style="fill:none;stroke:#000000;stroke-opacity:1;stroke-width:1;stroke-linecap:square;stroke-linejoin:miter;stroke-miterlimit:10;stroke-dasharray:none"
         id="path4749" /><path
         d="m 37.96875,37.125 306.39375,0"
         style="fill:none;stroke:#000000;stroke-opacity:1;stroke-width:1;stroke-linecap:square;stroke-linejoin:miter;stroke-miterlimit:10;stroke-dasharray:none"
         id="path4751" /><path
         d="m 37.96875,37.125 0,91.74375"
         style="fill:none;stroke:#000000;stroke-opacity:1;stroke-width:1;stroke-linecap:square;stroke-linejoin:miter;stroke-miterlimit:10;stroke-dasharray:none"
         id="path4753" /><path
         d="m 37.96875,37.125 0,4"
         style="fill:#000000;fill-opacity:1;fill-rule:nonzero;stroke:#000000;stroke-opacity:1;stroke-width:0.5;stroke-linecap:butt;stroke-linejoin:round;stroke-miterlimit:10;stroke-dasharray:none"
         id="path4755" /><path
         d="m 37.96875,128.86875 0,-4"
         style="fill:#000000;fill-opacity:1;fill-rule:nonzero;stroke:#000000;stroke-opacity:1;stroke-width:0.5;stroke-linecap:butt;stroke-linejoin:round;stroke-miterlimit:10;stroke-dasharray:none"
         id="path4757" /><text
         transform="matrix(1,0,0,-1,33.835937,26.296875)"
         id="text4759"><tspan
           style="fill:#000000;fill-opacity:1;fill-rule:nonzero;stroke:none;font-family:STIXGeneral;font-variant:normal;font-weight:normal;font-size:10;writing-mode:lr;-inkscape-font-specification:STIXGeneral-Regular"
           x="0 5"
           y="0"
           sodipodi:role="line"
           id="tspan4761">15</tspan></text>
<path
         d="m 99.2475,37.125 0,4"
         style="fill:#000000;fill-opacity:1;fill-rule:nonzero;stroke:#000000;stroke-opacity:1;stroke-width:0.5;stroke-linecap:butt;stroke-linejoin:round;stroke-miterlimit:10;stroke-dasharray:none"
         id="path4763" /><path
         d="m 99.2475,128.86875 0,-4"
         style="fill:#000000;fill-opacity:1;fill-rule:nonzero;stroke:#000000;stroke-opacity:1;stroke-width:0.5;stroke-linecap:butt;stroke-linejoin:round;stroke-miterlimit:10;stroke-dasharray:none"
         id="path4765" /><text
         transform="matrix(1,0,0,-1,94.513125,26.296875)"
         id="text4767"><tspan
           style="fill:#000000;fill-opacity:1;fill-rule:nonzero;stroke:none;font-family:STIXGeneral;font-variant:normal;font-weight:normal;font-size:10;writing-mode:lr;-inkscape-font-specification:STIXGeneral-Regular"
           x="0 5"
           y="0"
           sodipodi:role="line"
           id="tspan4769">20</tspan></text>
<path
         d="m 160.52625,37.125 0,4"
         style="fill:#000000;fill-opacity:1;fill-rule:nonzero;stroke:#000000;stroke-opacity:1;stroke-width:0.5;stroke-linecap:butt;stroke-linejoin:round;stroke-miterlimit:10;stroke-dasharray:none"
         id="path4771" /><path
         d="m 160.52625,128.86875 0,-4"
         style="fill:#000000;fill-opacity:1;fill-rule:nonzero;stroke:#000000;stroke-opacity:1;stroke-width:0.5;stroke-linecap:butt;stroke-linejoin:round;stroke-miterlimit:10;stroke-dasharray:none"
         id="path4773" /><text
         transform="matrix(1,0,0,-1,155.98719,26.296875)"
         id="text4775"><tspan
           style="fill:#000000;fill-opacity:1;fill-rule:nonzero;stroke:none;font-family:STIXGeneral;font-variant:normal;font-weight:normal;font-size:10;writing-mode:lr;-inkscape-font-specification:STIXGeneral-Regular"
           x="0 5"
           y="0"
           sodipodi:role="line"
           id="tspan4777">25</tspan></text>
<path
         d="m 221.805,37.125 0,4"
         style="fill:#000000;fill-opacity:1;fill-rule:nonzero;stroke:#000000;stroke-opacity:1;stroke-width:0.5;stroke-linecap:butt;stroke-linejoin:round;stroke-miterlimit:10;stroke-dasharray:none"
         id="path4779" /><path
         d="m 221.805,128.86875 0,-4"
         style="fill:#000000;fill-opacity:1;fill-rule:nonzero;stroke:#000000;stroke-opacity:1;stroke-width:0.5;stroke-linecap:butt;stroke-linejoin:round;stroke-miterlimit:10;stroke-dasharray:none"
         id="path4781" /><text
         transform="matrix(1,0,0,-1,217.12531,26.296875)"
         id="text4783"><tspan
           style="fill:#000000;fill-opacity:1;fill-rule:nonzero;stroke:none;font-family:STIXGeneral;font-variant:normal;font-weight:normal;font-size:10;writing-mode:lr;-inkscape-font-specification:STIXGeneral-Regular"
           x="0 5"
           y="0"
           sodipodi:role="line"
           id="tspan4785">30</tspan></text>
<path
         d="m 283.08375,37.125 0,4"
         style="fill:#000000;fill-opacity:1;fill-rule:nonzero;stroke:#000000;stroke-opacity:1;stroke-width:0.5;stroke-linecap:butt;stroke-linejoin:round;stroke-miterlimit:10;stroke-dasharray:none"
         id="path4787" /><path
         d="m 283.08375,128.86875 0,-4"
         style="fill:#000000;fill-opacity:1;fill-rule:nonzero;stroke:#000000;stroke-opacity:1;stroke-width:0.5;stroke-linecap:butt;stroke-linejoin:round;stroke-miterlimit:10;stroke-dasharray:none"
         id="path4789" /><text
         transform="matrix(1,0,0,-1,278.59937,26.296875)"
         id="text4791"><tspan
           style="fill:#000000;fill-opacity:1;fill-rule:nonzero;stroke:none;font-family:STIXGeneral;font-variant:normal;font-weight:normal;font-size:10;writing-mode:lr;-inkscape-font-specification:STIXGeneral-Regular"
           x="0 5"
           y="0"
           sodipodi:role="line"
           id="tspan4793">35</tspan></text>
<path
         d="m 344.3625,37.125 0,4"
         style="fill:#000000;fill-opacity:1;fill-rule:nonzero;stroke:#000000;stroke-opacity:1;stroke-width:0.5;stroke-linecap:butt;stroke-linejoin:round;stroke-miterlimit:10;stroke-dasharray:none"
         id="path4795" /><path
         d="m 344.3625,128.86875 0,-4"
         style="fill:#000000;fill-opacity:1;fill-rule:nonzero;stroke:#000000;stroke-opacity:1;stroke-width:0.5;stroke-linecap:butt;stroke-linejoin:round;stroke-miterlimit:10;stroke-dasharray:none"
         id="path4797" /><text
         transform="matrix(1,0,0,-1,339.54219,26.296875)"
         id="text4799"><tspan
           style="fill:#000000;fill-opacity:1;fill-rule:nonzero;stroke:none;font-family:STIXGeneral;font-variant:normal;font-weight:normal;font-size:10;writing-mode:lr;-inkscape-font-specification:STIXGeneral-Regular"
           x="0 5"
           y="0"
           sodipodi:role="line"
           id="tspan4801">40</tspan></text>
<text
         transform="matrix(1,0,0,-1,168.59531,12.296875)"
         id="text4803"><tspan
           style="fill:#000000;fill-opacity:1;fill-rule:nonzero;stroke:none;font-family:STIXGeneral;font-variant:normal;font-weight:normal;font-size:10;writing-mode:lr;-inkscape-font-specification:STIXGeneral-Regular"
           x="0 5 10 12.5 15 19.44 22.22 27.22 31.11 33.89 38.33 41.66"
           y="0"
           sodipodi:role="line"
           id="tspan4805">no. clusters</tspan></text>
<path
         d="m 37.96875,37.125 4,0"
         style="fill:#000000;fill-opacity:1;fill-rule:nonzero;stroke:#000000;stroke-opacity:1;stroke-width:0.5;stroke-linecap:butt;stroke-linejoin:round;stroke-miterlimit:10;stroke-dasharray:none"
         id="path4807" /><path
         d="m 344.3625,37.125 -4,0"
         style="fill:#000000;fill-opacity:1;fill-rule:nonzero;stroke:#000000;stroke-opacity:1;stroke-width:0.5;stroke-linecap:butt;stroke-linejoin:round;stroke-miterlimit:10;stroke-dasharray:none"
         id="path4809" /><text
         transform="matrix(1,0,0,-1,29.4375,34.796875)"
         id="text4811"><tspan
           style="fill:#000000;fill-opacity:1;fill-rule:nonzero;stroke:none;font-family:STIXGeneral;font-variant:normal;font-weight:normal;font-size:10;writing-mode:lr;-inkscape-font-specification:STIXGeneral-Regular"
           x="0"
           y="0"
           id="tspan4813">0</tspan></text>
<path
         d="m 37.96875,55.47375 4,0"
         style="fill:#000000;fill-opacity:1;fill-rule:nonzero;stroke:#000000;stroke-opacity:1;stroke-width:0.5;stroke-linecap:butt;stroke-linejoin:round;stroke-miterlimit:10;stroke-dasharray:none"
         id="path4815" /><path
         d="m 344.3625,55.47375 -4,0"
         style="fill:#000000;fill-opacity:1;fill-rule:nonzero;stroke:#000000;stroke-opacity:1;stroke-width:0.5;stroke-linecap:butt;stroke-linejoin:round;stroke-miterlimit:10;stroke-dasharray:none"
         id="path4817" /><text
         transform="matrix(1,0,0,-1,29.90625,53.145625)"
         id="text4819"><tspan
           style="fill:#000000;fill-opacity:1;fill-rule:nonzero;stroke:none;font-family:STIXGeneral;font-variant:normal;font-weight:normal;font-size:10;writing-mode:lr;-inkscape-font-specification:STIXGeneral-Regular"
           x="0"
           y="0"
           id="tspan4821">5</tspan></text>
<path
         d="m 37.96875,73.8225 4,0"
         style="fill:#000000;fill-opacity:1;fill-rule:nonzero;stroke:#000000;stroke-opacity:1;stroke-width:0.5;stroke-linecap:butt;stroke-linejoin:round;stroke-miterlimit:10;stroke-dasharray:none"
         id="path4823" /><path
         d="m 344.3625,73.8225 -4,0"
         style="fill:#000000;fill-opacity:1;fill-rule:nonzero;stroke:#000000;stroke-opacity:1;stroke-width:0.5;stroke-linecap:butt;stroke-linejoin:round;stroke-miterlimit:10;stroke-dasharray:none"
         id="path4825" /><text
         transform="matrix(1,0,0,-1,25.3125,71.494375)"
         id="text4827"><tspan
           style="fill:#000000;fill-opacity:1;fill-rule:nonzero;stroke:none;font-family:STIXGeneral;font-variant:normal;font-weight:normal;font-size:10;writing-mode:lr;-inkscape-font-specification:STIXGeneral-Regular"
           x="0 5"
           y="0"
           sodipodi:role="line"
           id="tspan4829">10</tspan></text>
<path
         d="m 37.96875,92.17125 4,0"
         style="fill:#000000;fill-opacity:1;fill-rule:nonzero;stroke:#000000;stroke-opacity:1;stroke-width:0.5;stroke-linecap:butt;stroke-linejoin:round;stroke-miterlimit:10;stroke-dasharray:none"
         id="path4831" /><path
         d="m 344.3625,92.17125 -4,0"
         style="fill:#000000;fill-opacity:1;fill-rule:nonzero;stroke:#000000;stroke-opacity:1;stroke-width:0.5;stroke-linecap:butt;stroke-linejoin:round;stroke-miterlimit:10;stroke-dasharray:none"
         id="path4833" /><text
         transform="matrix(1,0,0,-1,25.703125,89.843125)"
         id="text4835"><tspan
           style="fill:#000000;fill-opacity:1;fill-rule:nonzero;stroke:none;font-family:STIXGeneral;font-variant:normal;font-weight:normal;font-size:10;writing-mode:lr;-inkscape-font-specification:STIXGeneral-Regular"
           x="0 5"
           y="0"
           sodipodi:role="line"
           id="tspan4837">15</tspan></text>
<path
         d="m 37.96875,110.52 4,0"
         style="fill:#000000;fill-opacity:1;fill-rule:nonzero;stroke:#000000;stroke-opacity:1;stroke-width:0.5;stroke-linecap:butt;stroke-linejoin:round;stroke-miterlimit:10;stroke-dasharray:none"
         id="path4839" /><path
         d="m 344.3625,110.52 -4,0"
         style="fill:#000000;fill-opacity:1;fill-rule:nonzero;stroke:#000000;stroke-opacity:1;stroke-width:0.5;stroke-linecap:butt;stroke-linejoin:round;stroke-miterlimit:10;stroke-dasharray:none"
         id="path4841" /><text
         transform="matrix(1,0,0,-1,24.5,108.19187)"
         id="text4843"><tspan
           style="fill:#000000;fill-opacity:1;fill-rule:nonzero;stroke:none;font-family:STIXGeneral;font-variant:normal;font-weight:normal;font-size:10;writing-mode:lr;-inkscape-font-specification:STIXGeneral-Regular"
           x="0 5"
           y="0"
           sodipodi:role="line"
           id="tspan4845">20</tspan></text>
<path
         d="m 37.96875,128.86875 4,0"
         style="fill:#000000;fill-opacity:1;fill-rule:nonzero;stroke:#000000;stroke-opacity:1;stroke-width:0.5;stroke-linecap:butt;stroke-linejoin:round;stroke-miterlimit:10;stroke-dasharray:none"
         id="path4847" /><path
         d="m 344.3625,128.86875 -4,0"
         style="fill:#000000;fill-opacity:1;fill-rule:nonzero;stroke:#000000;stroke-opacity:1;stroke-width:0.5;stroke-linecap:butt;stroke-linejoin:round;stroke-miterlimit:10;stroke-dasharray:none"
         id="path4849" /><text
         transform="matrix(1,0,0,-1,24.890625,126.54063)"
         id="text4851"><tspan
           style="fill:#000000;fill-opacity:1;fill-rule:nonzero;stroke:none;font-family:STIXGeneral;font-variant:normal;font-weight:normal;font-size:10;writing-mode:lr;-inkscape-font-specification:STIXGeneral-Regular"
           x="0 5"
           y="0"
           sodipodi:role="line"
           id="tspan4853">25</tspan></text>
<text
         transform="matrix(0,1,1,0,17.3125,63.239063)"
         id="text4855"><tspan
           style="fill:#000000;fill-opacity:1;fill-rule:nonzero;stroke:none;font-family:STIXGeneral;font-variant:normal;font-weight:normal;font-size:10;writing-mode:lr;-inkscape-font-specification:STIXGeneral-Regular"
           x="0 3.33 6.66 11.1 16.1 21.1 25.54 30.54 34.98"
           y="0"
           sodipodi:role="line"
           id="tspan4857">frequency</tspan></text>
</g></g></svg>