<?xml version="1.0" encoding="UTF-8" standalone="no"?>
<!-- Created with Inkscape (http://www.inkscape.org/) -->

<svg
   xmlns:dc="http://purl.org/dc/elements/1.1/"
   xmlns:cc="http://creativecommons.org/ns#"
   xmlns:rdf="http://www.w3.org/1999/02/22-rdf-syntax-ns#"
   xmlns:svg="http://www.w3.org/2000/svg"
   xmlns="http://www.w3.org/2000/svg"
   xmlns:sodipodi="http://sodipodi.sourceforge.net/DTD/sodipodi-0.dtd"
   xmlns:inkscape="http://www.inkscape.org/namespaces/inkscape"
   id="svg12443"
   version="1.1"
   inkscape:version="0.48.4 r9939"
   width="720"
   height="270"
   xml:space="preserve"
   sodipodi:docname="k-vs-kmeans-len-nmf-nodef.pdf"><metadata
     id="metadata12449"><rdf:RDF><cc:Work
         rdf:about=""><dc:format>image/svg+xml</dc:format><dc:type
           rdf:resource="http://purl.org/dc/dcmitype/StillImage" /><dc:title></dc:title></cc:Work></rdf:RDF></metadata><defs
     id="defs12447"><clipPath
       clipPathUnits="userSpaceOnUse"
       id="clipPath12459"><path
         d="m 44.957812,41.0625 508.310158,0 0,164.1375 -508.310158,0 0,-164.1375 z"
         id="path12461" /></clipPath><clipPath
       clipPathUnits="userSpaceOnUse"
       id="clipPath12469"><path
         d="m 44.957812,41.0625 508.310158,0 0,164.1375 -508.310158,0 0,-164.1375 z"
         id="path12471" /></clipPath><clipPath
       clipPathUnits="userSpaceOnUse"
       id="clipPath12479"><path
         d="m 44.957812,41.0625 508.310158,0 0,164.1375 -508.310158,0 0,-164.1375 z"
         id="path12481" /></clipPath></defs><sodipodi:namedview
     pagecolor="#ffffff"
     bordercolor="#666666"
     borderopacity="1"
     objecttolerance="10"
     gridtolerance="10"
     guidetolerance="10"
     inkscape:pageopacity="0"
     inkscape:pageshadow="2"
     inkscape:window-width="1366"
     inkscape:window-height="716"
     id="namedview12445"
     showgrid="false"
     inkscape:zoom="1.1111111"
     inkscape:cx="304.1398"
     inkscape:cy="261.40305"
     inkscape:window-x="-8"
     inkscape:window-y="-8"
     inkscape:window-maximized="1"
     inkscape:current-layer="g12451" /><g
     id="g12451"
     inkscape:groupmode="layer"
     inkscape:label="k-vs-kmeans-len-nmf-nodef"
     transform="matrix(1.25,0,0,-1.25,0,270)"><g
       id="g12455"><g
         id="g12457"
         clip-path="url(#clipPath12459)"><path
           d="M 2.5986328,41.350461 23.778223,52.005 l 21.179589,9.502697 21.17959,14.110066 21.17959,11.230461 21.179588,12.094342 21.17959,4.031444 21.17959,10.07862 21.17959,11.80638 21.17959,14.68599 21.17959,12.3823 21.17959,-2.30368 21.17959,6.91105 21.17959,-0.86388 21.17959,14.68599 21.17959,-3.16757 21.17959,8.0629 21.17959,-1.15185 21.17959,6.91106 21.17959,-4.89533 21.17959,-1.15185 21.17959,-5.47125 21.17959,-5.75921 21.17959,-8.06289 21.17959,-3.16757 21.17959,2.87961 21.17959,0.86388 21.17959,-5.18329"
           style="fill:none;stroke:#000000;stroke-opacity:1;stroke-width:1;stroke-linecap:square;stroke-linejoin:round;stroke-miterlimit:10;stroke-dasharray:none"
           id="path12463" /></g></g><g
       id="g12465"><g
         id="g12467"
         clip-path="url(#clipPath12469)"><path
           d="m 2.5986328,44.518026 21.1795902,12.958224 21.179589,12.094342 21.17959,11.518421 21.17959,7.486974 21.179588,8.062895 21.17959,12.958228 21.17959,12.67026 21.17959,10.36658 21.17959,5.75921 21.17959,6.62309 21.17959,2.87961 21.17959,4.3194 21.17959,8.0629 21.17959,11.80638 21.17959,11.23046 21.17959,7.19901 21.17959,3.45553 21.17959,-4.60737 21.17959,-6.33513 21.17959,-2.59165 21.17959,2.87961 21.17959,-4.89533 21.17959,-6.33513 21.17959,-10.9425 21.17959,-9.21474 21.17959,-9.79066 21.17959,-0.28796"
           style="fill:none;stroke:#000000;stroke-opacity:1;stroke-width:1;stroke-linecap:butt;stroke-linejoin:round;stroke-miterlimit:10;stroke-dasharray:6,6;stroke-dashoffset:0"
           id="path12473" /></g></g><g
       id="g12475"><g
         id="g12477"
         clip-path="url(#clipPath12479)"><path
           d="m 2.5986328,44.805987 21.1795902,13.822105 21.179589,9.214737 21.17959,11.806382 21.17959,7.774934 21.179588,12.670265 21.17959,4.60737 21.17959,7.19901 21.17959,10.65454 21.17959,6.33513 21.17959,12.09434 21.17959,6.04717 21.17959,8.92678 21.17959,6.62309 21.17959,7.19902 21.17959,4.60736 21.17959,1.43981 21.17959,-4.60737 21.17959,8.35085 21.17959,-2.8796 21.17959,7.48697 21.17959,-0.28796 21.17959,10.07862 21.17959,-13.82211 21.17959,-7.77493 21.17959,-19.86928 21.17959,-0.28796 21.17959,-4.89533"
           style="fill:none;stroke:#808080;stroke-opacity:1;stroke-width:1;stroke-linecap:square;stroke-linejoin:round;stroke-miterlimit:10;stroke-dasharray:none"
           id="path12483" /></g></g><g
       id="g12485"><path
         d="m 44.957812,205.2 508.310158,0"
         style="fill:none;stroke:#000000;stroke-opacity:1;stroke-width:1;stroke-linecap:square;stroke-linejoin:miter;stroke-miterlimit:10;stroke-dasharray:none"
         id="path12487" /><path
         d="m 553.26797,41.0625 0,164.1375"
         style="fill:none;stroke:#000000;stroke-opacity:1;stroke-width:1;stroke-linecap:square;stroke-linejoin:miter;stroke-miterlimit:10;stroke-dasharray:none"
         id="path12489" /><path
         d="m 44.957812,41.0625 508.310158,0"
         style="fill:none;stroke:#000000;stroke-opacity:1;stroke-width:1;stroke-linecap:square;stroke-linejoin:miter;stroke-miterlimit:10;stroke-dasharray:none"
         id="path12491" /><path
         d="m 44.957812,41.0625 0,164.1375"
         style="fill:none;stroke:#000000;stroke-opacity:1;stroke-width:1;stroke-linecap:square;stroke-linejoin:miter;stroke-miterlimit:10;stroke-dasharray:none"
         id="path12493" /><path
         d="m 44.957812,41.0625 0,4"
         style="fill:#000000;fill-opacity:1;fill-rule:nonzero;stroke:#000000;stroke-opacity:1;stroke-width:0.5;stroke-linecap:butt;stroke-linejoin:round;stroke-miterlimit:10;stroke-dasharray:none"
         id="path12495" /><path
         d="m 44.957812,205.2 0,-4"
         style="fill:#000000;fill-opacity:1;fill-rule:nonzero;stroke:#000000;stroke-opacity:1;stroke-width:0.5;stroke-linecap:butt;stroke-linejoin:round;stroke-miterlimit:10;stroke-dasharray:none"
         id="path12497" /><text
         transform="matrix(1,0,0,-1,35.223438,30.234375)"
         id="text12499"><tspan
           style="fill:#000000;fill-opacity:1;fill-rule:nonzero;stroke:none;font-family:STIXGeneral;font-variant:normal;font-weight:normal;font-size:10;writing-mode:lr;-inkscape-font-specification:STIXGeneral-Regular"
           x="0 5 10 15"
           y="0"
           sodipodi:role="line"
           id="tspan12501">2000</tspan></text>
<path
         d="m 129.67617,41.0625 0,4"
         style="fill:#000000;fill-opacity:1;fill-rule:nonzero;stroke:#000000;stroke-opacity:1;stroke-width:0.5;stroke-linecap:butt;stroke-linejoin:round;stroke-miterlimit:10;stroke-dasharray:none"
         id="path12503" /><path
         d="m 129.67617,205.2 0,-4"
         style="fill:#000000;fill-opacity:1;fill-rule:nonzero;stroke:#000000;stroke-opacity:1;stroke-width:0.5;stroke-linecap:butt;stroke-linejoin:round;stroke-miterlimit:10;stroke-dasharray:none"
         id="path12505" /><text
         transform="matrix(1,0,0,-1,119.85586,30.234375)"
         id="text12507"><tspan
           style="fill:#000000;fill-opacity:1;fill-rule:nonzero;stroke:none;font-family:STIXGeneral;font-variant:normal;font-weight:normal;font-size:10;writing-mode:lr;-inkscape-font-specification:STIXGeneral-Regular"
           x="0 5 10 15"
           y="0"
           sodipodi:role="line"
           id="tspan12509">4000</tspan></text>
<path
         d="m 214.39453,41.0625 0,4"
         style="fill:#000000;fill-opacity:1;fill-rule:nonzero;stroke:#000000;stroke-opacity:1;stroke-width:0.5;stroke-linecap:butt;stroke-linejoin:round;stroke-miterlimit:10;stroke-dasharray:none"
         id="path12511" /><path
         d="m 214.39453,205.2 0,-4"
         style="fill:#000000;fill-opacity:1;fill-rule:nonzero;stroke:#000000;stroke-opacity:1;stroke-width:0.5;stroke-linecap:butt;stroke-linejoin:round;stroke-miterlimit:10;stroke-dasharray:none"
         id="path12513" /><text
         transform="matrix(1,0,0,-1,204.68359,30.234375)"
         id="text12515"><tspan
           style="fill:#000000;fill-opacity:1;fill-rule:nonzero;stroke:none;font-family:STIXGeneral;font-variant:normal;font-weight:normal;font-size:10;writing-mode:lr;-inkscape-font-specification:STIXGeneral-Regular"
           x="0 5 10 15"
           y="0"
           sodipodi:role="line"
           id="tspan12517">6000</tspan></text>
<path
         d="m 299.11289,41.0625 0,4"
         style="fill:#000000;fill-opacity:1;fill-rule:nonzero;stroke:#000000;stroke-opacity:1;stroke-width:0.5;stroke-linecap:butt;stroke-linejoin:round;stroke-miterlimit:10;stroke-dasharray:none"
         id="path12519" /><path
         d="m 299.11289,205.2 0,-4"
         style="fill:#000000;fill-opacity:1;fill-rule:nonzero;stroke:#000000;stroke-opacity:1;stroke-width:0.5;stroke-linecap:butt;stroke-linejoin:round;stroke-miterlimit:10;stroke-dasharray:none"
         id="path12521" /><text
         transform="matrix(1,0,0,-1,289.51133,30.234375)"
         id="text12523"><tspan
           style="fill:#000000;fill-opacity:1;fill-rule:nonzero;stroke:none;font-family:STIXGeneral;font-variant:normal;font-weight:normal;font-size:10;writing-mode:lr;-inkscape-font-specification:STIXGeneral-Regular"
           x="0 5 10 15"
           y="0"
           sodipodi:role="line"
           id="tspan12525">8000</tspan></text>
<path
         d="m 383.83125,41.0625 0,4"
         style="fill:#000000;fill-opacity:1;fill-rule:nonzero;stroke:#000000;stroke-opacity:1;stroke-width:0.5;stroke-linecap:butt;stroke-linejoin:round;stroke-miterlimit:10;stroke-dasharray:none"
         id="path12527" /><path
         d="m 383.83125,205.2 0,-4"
         style="fill:#000000;fill-opacity:1;fill-rule:nonzero;stroke:#000000;stroke-opacity:1;stroke-width:0.5;stroke-linecap:butt;stroke-linejoin:round;stroke-miterlimit:10;stroke-dasharray:none"
         id="path12529" /><text
         transform="matrix(1,0,0,-1,372.00312,30.234375)"
         id="text12531"><tspan
           style="fill:#000000;fill-opacity:1;fill-rule:nonzero;stroke:none;font-family:STIXGeneral;font-variant:normal;font-weight:normal;font-size:10;writing-mode:lr;-inkscape-font-specification:STIXGeneral-Regular"
           x="0 5 10 15 20"
           y="0"
           sodipodi:role="line"
           id="tspan12533">10000</tspan></text>
<path
         d="m 468.54961,41.0625 0,4"
         style="fill:#000000;fill-opacity:1;fill-rule:nonzero;stroke:#000000;stroke-opacity:1;stroke-width:0.5;stroke-linecap:butt;stroke-linejoin:round;stroke-miterlimit:10;stroke-dasharray:none"
         id="path12535" /><path
         d="m 468.54961,205.2 0,-4"
         style="fill:#000000;fill-opacity:1;fill-rule:nonzero;stroke:#000000;stroke-opacity:1;stroke-width:0.5;stroke-linecap:butt;stroke-linejoin:round;stroke-miterlimit:10;stroke-dasharray:none"
         id="path12537" /><text
         transform="matrix(1,0,0,-1,456.72148,30.234375)"
         id="text12539"><tspan
           style="fill:#000000;fill-opacity:1;fill-rule:nonzero;stroke:none;font-family:STIXGeneral;font-variant:normal;font-weight:normal;font-size:10;writing-mode:lr;-inkscape-font-specification:STIXGeneral-Regular"
           x="0 5 10 15 20"
           y="0"
           sodipodi:role="line"
           id="tspan12541">12000</tspan></text>
<path
         d="m 553.26797,41.0625 0,4"
         style="fill:#000000;fill-opacity:1;fill-rule:nonzero;stroke:#000000;stroke-opacity:1;stroke-width:0.5;stroke-linecap:butt;stroke-linejoin:round;stroke-miterlimit:10;stroke-dasharray:none"
         id="path12543" /><path
         d="m 553.26797,205.2 0,-4"
         style="fill:#000000;fill-opacity:1;fill-rule:nonzero;stroke:#000000;stroke-opacity:1;stroke-width:0.5;stroke-linecap:butt;stroke-linejoin:round;stroke-miterlimit:10;stroke-dasharray:none"
         id="path12545" /><text
         transform="matrix(1,0,0,-1,541.43984,30.234375)"
         id="text12547"><tspan
           style="fill:#000000;fill-opacity:1;fill-rule:nonzero;stroke:none;font-family:STIXGeneral;font-variant:normal;font-weight:normal;font-size:10;writing-mode:lr;-inkscape-font-specification:STIXGeneral-Regular"
           x="0 5 10 15 20"
           y="0"
           sodipodi:role="line"
           id="tspan12549">14000</tspan></text>
<g
         id="g12551"
         transform="translate(248.61289,14.859375)"><text
           transform="matrix(1,0,0,-1,0,0.796875)"
           id="text12553"><tspan
             style="fill:#000000;fill-opacity:1;fill-rule:nonzero;stroke:none;font-family:STIXGeneral;font-variant:normal;font-weight:normal;font-size:12;writing-mode:lr;-inkscape-font-specification:STIXGeneral-Regular"
             x="0 5.99998474 11.99996948 21.33595276 27.3359375 32.66392517 36.65991211 39.65989685 45.65988159 49.65586853 52.65585327 57.98384094 61.31983948 67.31982422 71.98780823 75.32380676 80.65179443 84.64778137 89.31576538"
             y="0"
             sodipodi:role="line"
             id="tspan12555">number of clusters </tspan></text>
<text
           transform="matrix(1,0,0,-1,92.31575,0.796875)"
           id="text12557"><tspan
             style="fill:#000000;fill-opacity:1;fill-rule:nonzero;stroke:none;font-family:STIXGeneral;font-style:italic;font-variant:normal;font-size:12;writing-mode:lr;-inkscape-font-specification:STIXGeneral-Italic"
             x="0"
             y="0"
             id="tspan12559">K</tspan></text>
</g><path
         d="m 44.957812,66.978947 4,0"
         style="fill:#000000;fill-opacity:1;fill-rule:nonzero;stroke:#000000;stroke-opacity:1;stroke-width:0.5;stroke-linecap:butt;stroke-linejoin:round;stroke-miterlimit:10;stroke-dasharray:none"
         id="path12561" /><path
         d="m 553.26797,66.978947 -4,0"
         style="fill:#000000;fill-opacity:1;fill-rule:nonzero;stroke:#000000;stroke-opacity:1;stroke-width:0.5;stroke-linecap:butt;stroke-linejoin:round;stroke-miterlimit:10;stroke-dasharray:none"
         id="path12563" /><text
         transform="matrix(1,0,0,-1,31.504687,64.650822)"
         id="text12565"><tspan
           style="fill:#000000;fill-opacity:1;fill-rule:nonzero;stroke:none;font-family:STIXGeneral;font-variant:normal;font-weight:normal;font-size:10;writing-mode:lr;-inkscape-font-specification:STIXGeneral-Regular"
           x="0 5"
           y="0"
           sodipodi:role="line"
           id="tspan12567">50</tspan></text>
<path
         d="m 44.957812,110.17303 4,0"
         style="fill:#000000;fill-opacity:1;fill-rule:nonzero;stroke:#000000;stroke-opacity:1;stroke-width:0.5;stroke-linecap:butt;stroke-linejoin:round;stroke-miterlimit:10;stroke-dasharray:none"
         id="path12569" /><path
         d="m 553.26797,110.17303 -4,0"
         style="fill:#000000;fill-opacity:1;fill-rule:nonzero;stroke:#000000;stroke-opacity:1;stroke-width:0.5;stroke-linecap:butt;stroke-linejoin:round;stroke-miterlimit:10;stroke-dasharray:none"
         id="path12571" /><text
         transform="matrix(1,0,0,-1,27.301562,107.8449)"
         id="text12573"><tspan
           style="fill:#000000;fill-opacity:1;fill-rule:nonzero;stroke:none;font-family:STIXGeneral;font-variant:normal;font-weight:normal;font-size:10;writing-mode:lr;-inkscape-font-specification:STIXGeneral-Regular"
           x="0 5 10"
           y="0"
           sodipodi:role="line"
           id="tspan12575">100</tspan></text>
<path
         d="m 44.957812,153.36711 4,0"
         style="fill:#000000;fill-opacity:1;fill-rule:nonzero;stroke:#000000;stroke-opacity:1;stroke-width:0.5;stroke-linecap:butt;stroke-linejoin:round;stroke-miterlimit:10;stroke-dasharray:none"
         id="path12577" /><path
         d="m 553.26797,153.36711 -4,0"
         style="fill:#000000;fill-opacity:1;fill-rule:nonzero;stroke:#000000;stroke-opacity:1;stroke-width:0.5;stroke-linecap:butt;stroke-linejoin:round;stroke-miterlimit:10;stroke-dasharray:none"
         id="path12579" /><text
         transform="matrix(1,0,0,-1,27.301562,151.03898)"
         id="text12581"><tspan
           style="fill:#000000;fill-opacity:1;fill-rule:nonzero;stroke:none;font-family:STIXGeneral;font-variant:normal;font-weight:normal;font-size:10;writing-mode:lr;-inkscape-font-specification:STIXGeneral-Regular"
           x="0 5 10"
           y="0"
           sodipodi:role="line"
           id="tspan12583">150</tspan></text>
<path
         d="m 44.957812,196.56118 4,0"
         style="fill:#000000;fill-opacity:1;fill-rule:nonzero;stroke:#000000;stroke-opacity:1;stroke-width:0.5;stroke-linecap:butt;stroke-linejoin:round;stroke-miterlimit:10;stroke-dasharray:none"
         id="path12585" /><path
         d="m 553.26797,196.56118 -4,0"
         style="fill:#000000;fill-opacity:1;fill-rule:nonzero;stroke:#000000;stroke-opacity:1;stroke-width:0.5;stroke-linecap:butt;stroke-linejoin:round;stroke-miterlimit:10;stroke-dasharray:none"
         id="path12587" /><text
         transform="matrix(1,0,0,-1,26.489062,194.23306)"
         id="text12589"><tspan
           style="fill:#000000;fill-opacity:1;fill-rule:nonzero;stroke:none;font-family:STIXGeneral;font-variant:normal;font-weight:normal;font-size:10;writing-mode:lr;-inkscape-font-specification:STIXGeneral-Regular"
           x="0 5 10"
           y="0"
           sodipodi:role="line"
           id="tspan12591">200</tspan></text>
<text
         transform="matrix(0,1,1,0,18.879687,83.873437)"
         id="text12593"><tspan
           style="fill:#000000;fill-opacity:1;fill-rule:nonzero;stroke:none;font-family:STIXGeneral;font-variant:normal;font-weight:normal;font-size:12;writing-mode:lr;-inkscape-font-specification:STIXGeneral-Regular"
           x="0 6 12 15 18 24 30 33.996 39.324 42.324 47.652 50.988 56.988 61.656 64.992 70.32 74.316"
           y="0"
           sodipodi:role="line"
           id="tspan12595">no. pure clusters</tspan></text>
<path
         d="m 162.91289,47.0625 272.4,0 0,20.609375 -272.4,0 0,-20.609375 z"
         style="fill:none;stroke:#000000;stroke-opacity:1;stroke-width:1;stroke-linecap:butt;stroke-linejoin:miter;stroke-miterlimit:10;stroke-dasharray:none"
         id="path12597" /><path
         d="m 171.31289,58.671875 16.8,0"
         style="fill:none;stroke:#000000;stroke-opacity:1;stroke-width:1;stroke-linecap:square;stroke-linejoin:round;stroke-miterlimit:10;stroke-dasharray:none"
         id="path12599" /><g
         id="g12601"
         transform="translate(201.31289,54.471875)"><text
           transform="matrix(1,0,0,-1,0,0.75)"
           id="text12603"><tspan
             style="fill:#000000;fill-opacity:1;fill-rule:nonzero;stroke:none;font-family:STIXGeneral;font-style:italic;font-variant:normal;font-size:12;writing-mode:lr;-inkscape-font-specification:STIXGeneral-Italic"
             x="0"
             y="0"
             id="tspan12605">k</tspan></text>
<text
           transform="matrix(1,0,0,-1,8.3279724,0.75)"
           id="text12607"><tspan
             style="fill:#000000;fill-opacity:1;fill-rule:nonzero;stroke:none;font-family:STIXGeneral;font-variant:normal;font-weight:normal;font-size:12;writing-mode:lr;-inkscape-font-specification:STIXGeneral-Regular"
             x="0 8.21998596 11.2199707 17.21995544 23.21994019"
             y="0"
             sodipodi:role="line"
             id="tspan12609">= 150</tspan></text>
</g><path
         d="m 266.91289,58.671875 16.8,0"
         style="fill:none;stroke:#000000;stroke-opacity:1;stroke-width:1;stroke-linecap:butt;stroke-linejoin:round;stroke-miterlimit:10;stroke-dasharray:6,6;stroke-dashoffset:0"
         id="path12611" /><g
         id="g12613"
         transform="translate(296.91289,54.471875)"><text
           transform="matrix(1,0,0,-1,0,0.75)"
           id="text12615"><tspan
             style="fill:#000000;fill-opacity:1;fill-rule:nonzero;stroke:none;font-family:STIXGeneral;font-style:italic;font-variant:normal;font-size:12;writing-mode:lr;-inkscape-font-specification:STIXGeneral-Italic"
             x="0"
             y="0"
             id="tspan12617">k</tspan></text>
<text
           transform="matrix(1,0,0,-1,8.3279724,0.75)"
           id="text12619"><tspan
             style="fill:#000000;fill-opacity:1;fill-rule:nonzero;stroke:none;font-family:STIXGeneral;font-variant:normal;font-weight:normal;font-size:12;writing-mode:lr;-inkscape-font-specification:STIXGeneral-Regular"
             x="0 8.21998596 11.2199707 17.21995544 23.21994019"
             y="0"
             sodipodi:role="line"
             id="tspan12621">= 250</tspan></text>
</g><path
         d="m 362.51289,58.671875 16.8,0"
         style="fill:none;stroke:#808080;stroke-opacity:1;stroke-width:1;stroke-linecap:square;stroke-linejoin:round;stroke-miterlimit:10;stroke-dasharray:none"
         id="path12623" /><g
         id="g12625"
         transform="translate(392.51289,54.471875)"><text
           transform="matrix(1,0,0,-1,0,0.75)"
           id="text12627"><tspan
             style="fill:#000000;fill-opacity:1;fill-rule:nonzero;stroke:none;font-family:STIXGeneral;font-style:italic;font-variant:normal;font-size:12;writing-mode:lr;-inkscape-font-specification:STIXGeneral-Italic"
             x="0"
             y="0"
             id="tspan12629">k</tspan></text>
<text
           transform="matrix(1,0,0,-1,8.3279724,0.75)"
           id="text12631"><tspan
             style="fill:#000000;fill-opacity:1;fill-rule:nonzero;stroke:none;font-family:STIXGeneral;font-variant:normal;font-weight:normal;font-size:12;writing-mode:lr;-inkscape-font-specification:STIXGeneral-Regular"
             x="0 8.21998596 11.2199707 17.21995544 23.21994019"
             y="0"
             sodipodi:role="line"
             id="tspan12633">= 350</tspan></text>
</g></g></g></svg>