<?xml version="1.0" encoding="UTF-8" standalone="no"?>
<!-- Created with Inkscape (http://www.inkscape.org/) -->

<svg
   xmlns:dc="http://purl.org/dc/elements/1.1/"
   xmlns:cc="http://creativecommons.org/ns#"
   xmlns:rdf="http://www.w3.org/1999/02/22-rdf-syntax-ns#"
   xmlns:svg="http://www.w3.org/2000/svg"
   xmlns="http://www.w3.org/2000/svg"
   xmlns:sodipodi="http://sodipodi.sourceforge.net/DTD/sodipodi-0.dtd"
   xmlns:inkscape="http://www.inkscape.org/namespaces/inkscape"
   id="svg13807"
   version="1.1"
   inkscape:version="0.48.4 r9939"
   width="720"
   height="270"
   xml:space="preserve"
   sodipodi:docname="k-vs-kmeans-len-svd-strong.pdf"><metadata
     id="metadata13813"><rdf:RDF><cc:Work
         rdf:about=""><dc:format>image/svg+xml</dc:format><dc:type
           rdf:resource="http://purl.org/dc/dcmitype/StillImage" /><dc:title></dc:title></cc:Work></rdf:RDF></metadata><defs
     id="defs13811"><clipPath
       clipPathUnits="userSpaceOnUse"
       id="clipPath13823"><path
         d="m 44.957812,41.0625 520.242188,0 0,163.0886 -520.242188,0 0,-163.0886 z"
         id="path13825" /></clipPath><clipPath
       clipPathUnits="userSpaceOnUse"
       id="clipPath13833"><path
         d="m 44.957812,41.0625 520.242188,0 0,163.0886 -520.242188,0 0,-163.0886 z"
         id="path13835" /></clipPath><clipPath
       clipPathUnits="userSpaceOnUse"
       id="clipPath13843"><path
         d="m 44.957812,41.0625 520.242188,0 0,163.0886 -520.242188,0 0,-163.0886 z"
         id="path13845" /></clipPath><clipPath
       clipPathUnits="userSpaceOnUse"
       id="clipPath13853"><path
         d="m 44.957812,41.0625 520.242188,0 0,163.0886 -520.242188,0 0,-163.0886 z"
         id="path13855" /></clipPath></defs><sodipodi:namedview
     pagecolor="#ffffff"
     bordercolor="#666666"
     borderopacity="1"
     objecttolerance="10"
     gridtolerance="10"
     guidetolerance="10"
     inkscape:pageopacity="0"
     inkscape:pageshadow="2"
     inkscape:window-width="1366"
     inkscape:window-height="716"
     id="namedview13809"
     showgrid="false"
     inkscape:zoom="1.1194444"
     inkscape:cx="202.57104"
     inkscape:cy="240.66799"
     inkscape:window-x="-8"
     inkscape:window-y="-8"
     inkscape:window-maximized="1"
     inkscape:current-layer="g13815" /><g
     id="g13815"
     inkscape:groupmode="layer"
     inkscape:label="k-vs-kmeans-len-svd-strong"
     transform="matrix(1.25,0,0,-1.25,0,270)"><g
       id="g13819"><g
         id="g13821"
         clip-path="url(#clipPath13823)"><path
           d="m -1,45.677278 8.7976562,8.176485 12.3867188,4.476942 12.386719,5.969256 12.386718,6.608819 12.386719,4.903318 12.386719,3.624191 12.386719,3.624191 12.386719,8.314321 12.386722,-0.852751 12.38672,1.91869 12.38671,-2.131878 12.38672,6.822007 12.38672,3.197821 12.38672,5.1165 12.38672,6.18244 12.38672,7.88795 12.38672,2.98463 12.38671,8.95388 12.38672,3.19782 12.38672,16.62864 12.38672,6.82201 12.38672,-1.06594 12.38672,-5.96926 12.38672,-2.55825 12.38672,0.42637 12.38671,1.27913 12.38672,-0.42637 12.38672,5.54288 12.38672,1.91869 12.38672,-2.55826 12.38672,-6.60882 12.38672,-3.411 12.38672,1.06594 12.38671,6.39563 12.38672,0.21319 12.38672,0.21319 12.38672,-10.01983 12.38672,-6.60882 12.38672,-9.16707 12.38672,2.34507 12.38672,0.21318 12.38671,-1.06593 12.38672,-5.75607 12.38672,-7.88795 12.38672,-2.13188 12.38672,-3.83737 11.8,-7.10814"
           style="fill:none;stroke:#000000;stroke-opacity:1;stroke-width:1;stroke-linecap:square;stroke-linejoin:round;stroke-miterlimit:10;stroke-dasharray:none"
           id="path13827" /></g></g><g
       id="g13829"><g
         id="g13831"
         clip-path="url(#clipPath13833)"><path
           d="m -1,52.873691 8.7976562,4.391075 12.3867188,9.167072 12.386719,4.263755 12.386718,3.411003 12.386719,10.446198 12.386719,12.364888 12.386719,5.756068 12.386719,2.13188 12.386722,1.06594 12.38672,4.90331 12.38671,1.06594 12.38672,5.75607 12.38672,10.87257 12.38672,5.75607 12.38672,-1.27912 12.38672,4.69013 12.38672,5.1165 12.38671,11.72533 12.38672,4.05056 12.38672,1.49232 12.38672,4.69013 12.38672,3.83737 12.38672,2.34507 12.38672,-4.26376 12.38672,-2.13187 12.38671,2.55825 12.38672,9.80664 12.38672,-5.11651 12.38672,-0.21319 12.38672,-7.88794 12.38672,-1.27913 12.38672,-5.1165 12.38672,0 12.38671,-0.21319 12.38672,2.34506 12.38672,-6.822 12.38672,1.91869 12.38672,-5.3297 12.38672,-6.60882 12.38672,-11.29895 12.38672,-2.34506 12.38671,-1.06594 12.38672,-0.21319 12.38672,-0.85275 12.38672,-3.411 12.38672,0 11.8,-10.56067"
           style="fill:none;stroke:#000000;stroke-opacity:1;stroke-width:1;stroke-linecap:butt;stroke-linejoin:round;stroke-miterlimit:10;stroke-dasharray:6,6;stroke-dashoffset:0"
           id="path13837" /></g></g><g
       id="g13839"><g
         id="g13841"
         clip-path="url(#clipPath13843)"><path
           d="m -1,58.320903 8.7976562,3.633993 12.3867188,7.674758 12.386719,4.050567 12.386718,9.167071 12.386719,12.1517 12.386719,3.837379 12.386719,5.116509 12.386719,5.96925 12.386722,8.52751 12.38672,2.98463 12.38671,-4.26376 12.38672,4.26376 12.38672,4.69013 12.38672,13.00445 12.38672,-2.55825 12.38672,6.18244 12.38672,-5.54288 12.38671,13.64401 12.38672,4.05057 12.38672,14.92314 12.38672,1.06594 12.38672,1.27913 12.38672,0.42637 12.38672,2.34507 12.38672,-2.77144 12.38671,-1.70551 12.38672,1.27913 12.38672,4.05057 12.38672,-0.21319 12.38672,-2.13188 12.38672,-0.21319 12.38672,-3.62419 12.38672,-9.59344 12.38671,-4.05057 12.38672,-1.7055 12.38672,1.7055 12.38672,-3.62419 12.38672,-0.85275 12.38672,-8.31432 12.38672,-1.27913 12.38672,-7.67476 12.38671,-2.34506 12.38672,-9.16707 12.38672,1.7055 12.38672,-2.13188 12.38672,2.34506 11.8,-2.43707"
           style="fill:none;stroke:#808080;stroke-opacity:1;stroke-width:1;stroke-linecap:square;stroke-linejoin:round;stroke-miterlimit:10;stroke-dasharray:none"
           id="path13847" /></g></g><g
       id="g13849"><g
         id="g13851"
         clip-path="url(#clipPath13853)"><path
           d="m -1,64.104845 8.7976562,3.179744 12.3867188,7.674758 12.386719,0 12.386718,10.659386 12.386719,3.624191 12.386719,11.512136 12.386719,4.05057 12.386719,11.08576 12.386722,4.05057 12.38672,1.06593 12.38671,3.19782 12.38672,4.47694 12.38672,16.62864 12.38672,0.21319 12.38672,0.85275 12.38672,-4.47694 12.38672,6.39563 12.38671,17.90777 12.38672,7.67476 12.38672,13.64401 12.38672,-1.91869 12.38672,2.55825 12.38672,-6.39563 12.38672,-2.34506 12.38672,-3.19782 12.38671,3.62419 12.38672,1.91869 12.38672,-3.62419 12.38672,-2.34506 12.38672,-3.62419 12.38672,2.55825 12.38672,-6.82201 12.38672,-4.05057 12.38671,2.98463 12.38672,1.06594 12.38672,1.49232 12.38672,-13.85721 12.38672,-6.60882 12.38672,-9.16707 12.38672,-1.49231 12.38672,-2.13188 12.38671,-2.77144 12.38672,-2.13188 12.38672,-5.54288 12.38672,-2.77144 12.38672,-1.06594 11.8,0"
           style="fill:none;stroke:#808080;stroke-opacity:1;stroke-width:1;stroke-linecap:butt;stroke-linejoin:round;stroke-miterlimit:10;stroke-dasharray:6,6;stroke-dashoffset:0"
           id="path13857" /></g></g><g
       id="g13859"><path
         d="m 44.957812,204.1511 520.242188,0"
         style="fill:none;stroke:#000000;stroke-opacity:1;stroke-width:1;stroke-linecap:square;stroke-linejoin:miter;stroke-miterlimit:10;stroke-dasharray:none"
         id="path13861" /><path
         d="m 565.2,41.0625 0,163.0886"
         style="fill:none;stroke:#000000;stroke-opacity:1;stroke-width:1;stroke-linecap:square;stroke-linejoin:miter;stroke-miterlimit:10;stroke-dasharray:none"
         id="path13863" /><path
         d="m 44.957812,41.0625 520.242188,0"
         style="fill:none;stroke:#000000;stroke-opacity:1;stroke-width:1;stroke-linecap:square;stroke-linejoin:miter;stroke-miterlimit:10;stroke-dasharray:none"
         id="path13865" /><path
         d="m 44.957812,41.0625 0,163.0886"
         style="fill:none;stroke:#000000;stroke-opacity:1;stroke-width:1;stroke-linecap:square;stroke-linejoin:miter;stroke-miterlimit:10;stroke-dasharray:none"
         id="path13867" /><path
         d="m 44.957812,41.0625 0,4"
         style="fill:#000000;fill-opacity:1;fill-rule:nonzero;stroke:#000000;stroke-opacity:1;stroke-width:0.5;stroke-linecap:butt;stroke-linejoin:round;stroke-miterlimit:10;stroke-dasharray:none"
         id="path13869" /><path
         d="m 44.957812,204.1511 0,-4"
         style="fill:#000000;fill-opacity:1;fill-rule:nonzero;stroke:#000000;stroke-opacity:1;stroke-width:0.5;stroke-linecap:butt;stroke-linejoin:round;stroke-miterlimit:10;stroke-dasharray:none"
         id="path13871" /><text
         transform="matrix(1,0,0,-1,35.1375,30.234375)"
         id="text13873"><tspan
           style="fill:#000000;fill-opacity:1;fill-rule:nonzero;stroke:none;font-family:STIXGeneral;font-variant:normal;font-weight:normal;font-size:10;writing-mode:lr;-inkscape-font-specification:STIXGeneral-Regular"
           x="0 5 10 15"
           y="0"
           sodipodi:role="line"
           id="tspan13875">4000</tspan></text>
<path
         d="m 144.05156,41.0625 0,4"
         style="fill:#000000;fill-opacity:1;fill-rule:nonzero;stroke:#000000;stroke-opacity:1;stroke-width:0.5;stroke-linecap:butt;stroke-linejoin:round;stroke-miterlimit:10;stroke-dasharray:none"
         id="path13877" /><path
         d="m 144.05156,204.1511 0,-4"
         style="fill:#000000;fill-opacity:1;fill-rule:nonzero;stroke:#000000;stroke-opacity:1;stroke-width:0.5;stroke-linecap:butt;stroke-linejoin:round;stroke-miterlimit:10;stroke-dasharray:none"
         id="path13879" /><text
         transform="matrix(1,0,0,-1,134.34062,30.234375)"
         id="text13881"><tspan
           style="fill:#000000;fill-opacity:1;fill-rule:nonzero;stroke:none;font-family:STIXGeneral;font-variant:normal;font-weight:normal;font-size:10;writing-mode:lr;-inkscape-font-specification:STIXGeneral-Regular"
           x="0 5 10 15"
           y="0"
           sodipodi:role="line"
           id="tspan13883">6000</tspan></text>
<path
         d="m 243.14531,41.0625 0,4"
         style="fill:#000000;fill-opacity:1;fill-rule:nonzero;stroke:#000000;stroke-opacity:1;stroke-width:0.5;stroke-linecap:butt;stroke-linejoin:round;stroke-miterlimit:10;stroke-dasharray:none"
         id="path13885" /><path
         d="m 243.14531,204.1511 0,-4"
         style="fill:#000000;fill-opacity:1;fill-rule:nonzero;stroke:#000000;stroke-opacity:1;stroke-width:0.5;stroke-linecap:butt;stroke-linejoin:round;stroke-miterlimit:10;stroke-dasharray:none"
         id="path13887" /><text
         transform="matrix(1,0,0,-1,233.54375,30.234375)"
         id="text13889"><tspan
           style="fill:#000000;fill-opacity:1;fill-rule:nonzero;stroke:none;font-family:STIXGeneral;font-variant:normal;font-weight:normal;font-size:10;writing-mode:lr;-inkscape-font-specification:STIXGeneral-Regular"
           x="0 5 10 15"
           y="0"
           sodipodi:role="line"
           id="tspan13891">8000</tspan></text>
<path
         d="m 342.23906,41.0625 0,4"
         style="fill:#000000;fill-opacity:1;fill-rule:nonzero;stroke:#000000;stroke-opacity:1;stroke-width:0.5;stroke-linecap:butt;stroke-linejoin:round;stroke-miterlimit:10;stroke-dasharray:none"
         id="path13893" /><path
         d="m 342.23906,204.1511 0,-4"
         style="fill:#000000;fill-opacity:1;fill-rule:nonzero;stroke:#000000;stroke-opacity:1;stroke-width:0.5;stroke-linecap:butt;stroke-linejoin:round;stroke-miterlimit:10;stroke-dasharray:none"
         id="path13895" /><text
         transform="matrix(1,0,0,-1,330.41094,30.234375)"
         id="text13897"><tspan
           style="fill:#000000;fill-opacity:1;fill-rule:nonzero;stroke:none;font-family:STIXGeneral;font-variant:normal;font-weight:normal;font-size:10;writing-mode:lr;-inkscape-font-specification:STIXGeneral-Regular"
           x="0 5 10 15 20"
           y="0"
           sodipodi:role="line"
           id="tspan13899">10000</tspan></text>
<path
         d="m 441.33281,41.0625 0,4"
         style="fill:#000000;fill-opacity:1;fill-rule:nonzero;stroke:#000000;stroke-opacity:1;stroke-width:0.5;stroke-linecap:butt;stroke-linejoin:round;stroke-miterlimit:10;stroke-dasharray:none"
         id="path13901" /><path
         d="m 441.33281,204.1511 0,-4"
         style="fill:#000000;fill-opacity:1;fill-rule:nonzero;stroke:#000000;stroke-opacity:1;stroke-width:0.5;stroke-linecap:butt;stroke-linejoin:round;stroke-miterlimit:10;stroke-dasharray:none"
         id="path13903" /><text
         transform="matrix(1,0,0,-1,429.50469,30.234375)"
         id="text13905"><tspan
           style="fill:#000000;fill-opacity:1;fill-rule:nonzero;stroke:none;font-family:STIXGeneral;font-variant:normal;font-weight:normal;font-size:10;writing-mode:lr;-inkscape-font-specification:STIXGeneral-Regular"
           x="0 5 10 15 20"
           y="0"
           sodipodi:role="line"
           id="tspan13907">12000</tspan></text>
<path
         d="m 540.42656,41.0625 0,4"
         style="fill:#000000;fill-opacity:1;fill-rule:nonzero;stroke:#000000;stroke-opacity:1;stroke-width:0.5;stroke-linecap:butt;stroke-linejoin:round;stroke-miterlimit:10;stroke-dasharray:none"
         id="path13909" /><path
         d="m 540.42656,204.1511 0,-4"
         style="fill:#000000;fill-opacity:1;fill-rule:nonzero;stroke:#000000;stroke-opacity:1;stroke-width:0.5;stroke-linecap:butt;stroke-linejoin:round;stroke-miterlimit:10;stroke-dasharray:none"
         id="path13911" /><text
         transform="matrix(1,0,0,-1,528.59844,30.234375)"
         id="text13913"><tspan
           style="fill:#000000;fill-opacity:1;fill-rule:nonzero;stroke:none;font-family:STIXGeneral;font-variant:normal;font-weight:normal;font-size:10;writing-mode:lr;-inkscape-font-specification:STIXGeneral-Regular"
           x="0 5 10 15 20"
           y="0"
           sodipodi:role="line"
           id="tspan13915">14000</tspan></text>
<g
         id="g13917"
         transform="translate(254.57891,14.859375)"><text
           transform="matrix(1,0,0,-1,0,0.796875)"
           id="text13919"><tspan
             style="fill:#000000;fill-opacity:1;fill-rule:nonzero;stroke:none;font-family:STIXGeneral;font-variant:normal;font-weight:normal;font-size:12;writing-mode:lr;-inkscape-font-specification:STIXGeneral-Regular"
             x="0 5.99998474 11.99996948 21.33595276 27.3359375 32.66392517 36.65991211 39.65989685 45.65988159 49.65586853 52.65585327 57.98384094 61.31983948 67.31982422 71.98780823 75.32380676 80.65179443 84.64778137 89.31576538"
             y="0"
             sodipodi:role="line"
             id="tspan13921">number of clusters </tspan></text>
<text
           transform="matrix(1,0,0,-1,92.31575,0.796875)"
           id="text13923"><tspan
             style="fill:#000000;fill-opacity:1;fill-rule:nonzero;stroke:none;font-family:STIXGeneral;font-style:italic;font-variant:normal;font-size:12;writing-mode:lr;-inkscape-font-specification:STIXGeneral-Italic"
             x="0"
             y="0"
             id="tspan13925">K</tspan></text>
</g><path
         d="m 44.957812,41.0625 4,0"
         style="fill:#000000;fill-opacity:1;fill-rule:nonzero;stroke:#000000;stroke-opacity:1;stroke-width:0.5;stroke-linecap:butt;stroke-linejoin:round;stroke-miterlimit:10;stroke-dasharray:none"
         id="path13927" /><path
         d="m 565.2,41.0625 -4,0"
         style="fill:#000000;fill-opacity:1;fill-rule:nonzero;stroke:#000000;stroke-opacity:1;stroke-width:0.5;stroke-linecap:butt;stroke-linejoin:round;stroke-miterlimit:10;stroke-dasharray:none"
         id="path13929" /><text
         transform="matrix(1,0,0,-1,27.301562,38.734375)"
         id="text13931"><tspan
           style="fill:#000000;fill-opacity:1;fill-rule:nonzero;stroke:none;font-family:STIXGeneral;font-variant:normal;font-weight:normal;font-size:10;writing-mode:lr;-inkscape-font-specification:STIXGeneral-Regular"
           x="0 5 10"
           y="0"
           sodipodi:role="line"
           id="tspan13933">100</tspan></text>
<path
         d="m 44.957812,73.040657 4,0"
         style="fill:#000000;fill-opacity:1;fill-rule:nonzero;stroke:#000000;stroke-opacity:1;stroke-width:0.5;stroke-linecap:butt;stroke-linejoin:round;stroke-miterlimit:10;stroke-dasharray:none"
         id="path13935" /><path
         d="m 565.2,73.040657 -4,0"
         style="fill:#000000;fill-opacity:1;fill-rule:nonzero;stroke:#000000;stroke-opacity:1;stroke-width:0.5;stroke-linecap:butt;stroke-linejoin:round;stroke-miterlimit:10;stroke-dasharray:none"
         id="path13937" /><text
         transform="matrix(1,0,0,-1,27.301562,70.712532)"
         id="text13939"><tspan
           style="fill:#000000;fill-opacity:1;fill-rule:nonzero;stroke:none;font-family:STIXGeneral;font-variant:normal;font-weight:normal;font-size:10;writing-mode:lr;-inkscape-font-specification:STIXGeneral-Regular"
           x="0 5 10"
           y="0"
           sodipodi:role="line"
           id="tspan13941">150</tspan></text>
<path
         d="m 44.957812,105.01881 4,0"
         style="fill:#000000;fill-opacity:1;fill-rule:nonzero;stroke:#000000;stroke-opacity:1;stroke-width:0.5;stroke-linecap:butt;stroke-linejoin:round;stroke-miterlimit:10;stroke-dasharray:none"
         id="path13943" /><path
         d="m 565.2,105.01881 -4,0"
         style="fill:#000000;fill-opacity:1;fill-rule:nonzero;stroke:#000000;stroke-opacity:1;stroke-width:0.5;stroke-linecap:butt;stroke-linejoin:round;stroke-miterlimit:10;stroke-dasharray:none"
         id="path13945" /><text
         transform="matrix(1,0,0,-1,26.489062,102.69069)"
         id="text13947"><tspan
           style="fill:#000000;fill-opacity:1;fill-rule:nonzero;stroke:none;font-family:STIXGeneral;font-variant:normal;font-weight:normal;font-size:10;writing-mode:lr;-inkscape-font-specification:STIXGeneral-Regular"
           x="0 5 10"
           y="0"
           sodipodi:role="line"
           id="tspan13949">200</tspan></text>
<path
         d="m 44.957812,136.99697 4,0"
         style="fill:#000000;fill-opacity:1;fill-rule:nonzero;stroke:#000000;stroke-opacity:1;stroke-width:0.5;stroke-linecap:butt;stroke-linejoin:round;stroke-miterlimit:10;stroke-dasharray:none"
         id="path13951" /><path
         d="m 565.2,136.99697 -4,0"
         style="fill:#000000;fill-opacity:1;fill-rule:nonzero;stroke:#000000;stroke-opacity:1;stroke-width:0.5;stroke-linecap:butt;stroke-linejoin:round;stroke-miterlimit:10;stroke-dasharray:none"
         id="path13953" /><text
         transform="matrix(1,0,0,-1,26.489062,134.66885)"
         id="text13955"><tspan
           style="fill:#000000;fill-opacity:1;fill-rule:nonzero;stroke:none;font-family:STIXGeneral;font-variant:normal;font-weight:normal;font-size:10;writing-mode:lr;-inkscape-font-specification:STIXGeneral-Regular"
           x="0 5 10"
           y="0"
           sodipodi:role="line"
           id="tspan13957">250</tspan></text>
<path
         d="m 44.957812,168.97513 4,0"
         style="fill:#000000;fill-opacity:1;fill-rule:nonzero;stroke:#000000;stroke-opacity:1;stroke-width:0.5;stroke-linecap:butt;stroke-linejoin:round;stroke-miterlimit:10;stroke-dasharray:none"
         id="path13959" /><path
         d="m 565.2,168.97513 -4,0"
         style="fill:#000000;fill-opacity:1;fill-rule:nonzero;stroke:#000000;stroke-opacity:1;stroke-width:0.5;stroke-linecap:butt;stroke-linejoin:round;stroke-miterlimit:10;stroke-dasharray:none"
         id="path13961" /><text
         transform="matrix(1,0,0,-1,26.598437,166.647)"
         id="text13963"><tspan
           style="fill:#000000;fill-opacity:1;fill-rule:nonzero;stroke:none;font-family:STIXGeneral;font-variant:normal;font-weight:normal;font-size:10;writing-mode:lr;-inkscape-font-specification:STIXGeneral-Regular"
           x="0 5 10"
           y="0"
           sodipodi:role="line"
           id="tspan13965">300</tspan></text>
<path
         d="m 44.957812,200.95329 4,0"
         style="fill:#000000;fill-opacity:1;fill-rule:nonzero;stroke:#000000;stroke-opacity:1;stroke-width:0.5;stroke-linecap:butt;stroke-linejoin:round;stroke-miterlimit:10;stroke-dasharray:none"
         id="path13967" /><path
         d="m 565.2,200.95329 -4,0"
         style="fill:#000000;fill-opacity:1;fill-rule:nonzero;stroke:#000000;stroke-opacity:1;stroke-width:0.5;stroke-linecap:butt;stroke-linejoin:round;stroke-miterlimit:10;stroke-dasharray:none"
         id="path13969" /><text
         transform="matrix(1,0,0,-1,26.598437,198.62516)"
         id="text13971"><tspan
           style="fill:#000000;fill-opacity:1;fill-rule:nonzero;stroke:none;font-family:STIXGeneral;font-variant:normal;font-weight:normal;font-size:10;writing-mode:lr;-inkscape-font-specification:STIXGeneral-Regular"
           x="0 5 10"
           y="0"
           sodipodi:role="line"
           id="tspan13973">350</tspan></text>
<text
         transform="matrix(0,1,1,0,18.879687,83.348989)"
         id="text13975"><tspan
           style="fill:#000000;fill-opacity:1;fill-rule:nonzero;stroke:none;font-family:STIXGeneral;font-variant:normal;font-weight:normal;font-size:12;writing-mode:lr;-inkscape-font-specification:STIXGeneral-Regular"
           x="0 6 12 15 18 24 30 33.996 39.324 42.324 47.652 50.988 56.988 61.656 64.992 70.32 74.316"
           y="0"
           sodipodi:role="line"
           id="tspan13977">no. pure clusters</tspan></text>
<path
         d="m 121.07891,47.0625 368,0 0,20.609375 -368,0 0,-20.609375 z"
         style="fill:none;stroke:#000000;stroke-opacity:1;stroke-width:1;stroke-linecap:butt;stroke-linejoin:miter;stroke-miterlimit:10;stroke-dasharray:none"
         id="path13979" /><path
         d="m 129.47891,58.671875 16.8,0"
         style="fill:none;stroke:#000000;stroke-opacity:1;stroke-width:1;stroke-linecap:square;stroke-linejoin:round;stroke-miterlimit:10;stroke-dasharray:none"
         id="path13981" /><g
         id="g13983"
         transform="translate(159.47891,54.471875)"><text
           transform="matrix(1,0,0,-1,0,0.75)"
           id="text13985"><tspan
             style="fill:#000000;fill-opacity:1;fill-rule:nonzero;stroke:none;font-family:STIXGeneral;font-style:italic;font-variant:normal;font-size:12;writing-mode:lr;-inkscape-font-specification:STIXGeneral-Italic"
             x="0"
             y="0"
             id="tspan13987">k</tspan></text>
<text
           transform="matrix(1,0,0,-1,8.3279724,0.75)"
           id="text13989"><tspan
             style="fill:#000000;fill-opacity:1;fill-rule:nonzero;stroke:none;font-family:STIXGeneral;font-variant:normal;font-weight:normal;font-size:12;writing-mode:lr;-inkscape-font-specification:STIXGeneral-Regular"
             x="0 8.21998596 11.2199707 17.21995544 23.21994019"
             y="0"
             sodipodi:role="line"
             id="tspan13991">= 150</tspan></text>
</g><path
         d="m 225.07891,58.671875 16.8,0"
         style="fill:none;stroke:#000000;stroke-opacity:1;stroke-width:1;stroke-linecap:butt;stroke-linejoin:round;stroke-miterlimit:10;stroke-dasharray:6,6;stroke-dashoffset:0"
         id="path13993" /><g
         id="g13995"
         transform="translate(255.07891,54.471875)"><text
           transform="matrix(1,0,0,-1,0,0.75)"
           id="text13997"><tspan
             style="fill:#000000;fill-opacity:1;fill-rule:nonzero;stroke:none;font-family:STIXGeneral;font-style:italic;font-variant:normal;font-size:12;writing-mode:lr;-inkscape-font-specification:STIXGeneral-Italic"
             x="0"
             y="0"
             id="tspan13999">k</tspan></text>
<text
           transform="matrix(1,0,0,-1,8.3279724,0.75)"
           id="text14001"><tspan
             style="fill:#000000;fill-opacity:1;fill-rule:nonzero;stroke:none;font-family:STIXGeneral;font-variant:normal;font-weight:normal;font-size:12;writing-mode:lr;-inkscape-font-specification:STIXGeneral-Regular"
             x="0 8.21998596 11.2199707 17.21995544 23.21994019"
             y="0"
             sodipodi:role="line"
             id="tspan14003">= 250</tspan></text>
</g><path
         d="m 320.67891,58.671875 16.8,0"
         style="fill:none;stroke:#808080;stroke-opacity:1;stroke-width:1;stroke-linecap:square;stroke-linejoin:round;stroke-miterlimit:10;stroke-dasharray:none"
         id="path14005" /><g
         id="g14007"
         transform="translate(350.67891,54.471875)"><text
           transform="matrix(1,0,0,-1,0,0.75)"
           id="text14009"><tspan
             style="fill:#000000;fill-opacity:1;fill-rule:nonzero;stroke:none;font-family:STIXGeneral;font-style:italic;font-variant:normal;font-size:12;writing-mode:lr;-inkscape-font-specification:STIXGeneral-Italic"
             x="0"
             y="0"
             id="tspan14011">k</tspan></text>
<text
           transform="matrix(1,0,0,-1,8.3279724,0.75)"
           id="text14013"><tspan
             style="fill:#000000;fill-opacity:1;fill-rule:nonzero;stroke:none;font-family:STIXGeneral;font-variant:normal;font-weight:normal;font-size:12;writing-mode:lr;-inkscape-font-specification:STIXGeneral-Regular"
             x="0 8.21998596 11.2199707 17.21995544 23.21994019"
             y="0"
             sodipodi:role="line"
             id="tspan14015">= 350</tspan></text>
</g><path
         d="m 416.27891,58.671875 16.8,0"
         style="fill:none;stroke:#808080;stroke-opacity:1;stroke-width:1;stroke-linecap:butt;stroke-linejoin:round;stroke-miterlimit:10;stroke-dasharray:6,6;stroke-dashoffset:0"
         id="path14017" /><g
         id="g14019"
         transform="translate(446.27891,54.471875)"><text
           transform="matrix(1,0,0,-1,0,0.75)"
           id="text14021"><tspan
             style="fill:#000000;fill-opacity:1;fill-rule:nonzero;stroke:none;font-family:STIXGeneral;font-style:italic;font-variant:normal;font-size:12;writing-mode:lr;-inkscape-font-specification:STIXGeneral-Italic"
             x="0"
             y="0"
             id="tspan14023">k</tspan></text>
<text
           transform="matrix(1,0,0,-1,8.3279724,0.75)"
           id="text14025"><tspan
             style="fill:#000000;fill-opacity:1;fill-rule:nonzero;stroke:none;font-family:STIXGeneral;font-variant:normal;font-weight:normal;font-size:12;writing-mode:lr;-inkscape-font-specification:STIXGeneral-Regular"
             x="0 8.21998596 11.2199707 17.21995544 23.21994019"
             y="0"
             sodipodi:role="line"
             id="tspan14027">= 500</tspan></text>
</g></g></g></svg>