<?xml version="1.0" encoding="UTF-8" standalone="no"?>
<!-- Created with Inkscape (http://www.inkscape.org/) -->

<svg
   xmlns:dc="http://purl.org/dc/elements/1.1/"
   xmlns:cc="http://creativecommons.org/ns#"
   xmlns:rdf="http://www.w3.org/1999/02/22-rdf-syntax-ns#"
   xmlns:svg="http://www.w3.org/2000/svg"
   xmlns="http://www.w3.org/2000/svg"
   xmlns:sodipodi="http://sodipodi.sourceforge.net/DTD/sodipodi-0.dtd"
   xmlns:inkscape="http://www.inkscape.org/namespaces/inkscape"
   id="svg13415"
   version="1.1"
   inkscape:version="0.48.4 r9939"
   width="720"
   height="270"
   xml:space="preserve"
   sodipodi:docname="k-vs-kmeans-len-nmf-soft.pdf"><metadata
     id="metadata13421"><rdf:RDF><cc:Work
         rdf:about=""><dc:format>image/svg+xml</dc:format><dc:type
           rdf:resource="http://purl.org/dc/dcmitype/StillImage" /><dc:title></dc:title></cc:Work></rdf:RDF></metadata><defs
     id="defs13419"><clipPath
       clipPathUnits="userSpaceOnUse"
       id="clipPath13431"><path
         d="m 44.957812,41.0625 520.242188,0 0,164.1375 -520.242188,0 0,-164.1375 z"
         id="path13433" /></clipPath><clipPath
       clipPathUnits="userSpaceOnUse"
       id="clipPath13441"><path
         d="m 44.957812,41.0625 520.242188,0 0,164.1375 -520.242188,0 0,-164.1375 z"
         id="path13443" /></clipPath><clipPath
       clipPathUnits="userSpaceOnUse"
       id="clipPath13451"><path
         d="m 44.957812,41.0625 520.242188,0 0,164.1375 -520.242188,0 0,-164.1375 z"
         id="path13453" /></clipPath></defs><sodipodi:namedview
     pagecolor="#ffffff"
     bordercolor="#666666"
     borderopacity="1"
     objecttolerance="10"
     gridtolerance="10"
     guidetolerance="10"
     inkscape:pageopacity="0"
     inkscape:pageshadow="2"
     inkscape:window-width="1366"
     inkscape:window-height="716"
     id="namedview13417"
     showgrid="false"
     inkscape:zoom="1.0861111"
     inkscape:cx="351.6179"
     inkscape:cy="113.64615"
     inkscape:window-x="-8"
     inkscape:window-y="-8"
     inkscape:window-maximized="1"
     inkscape:current-layer="g13423" /><g
     id="g13423"
     inkscape:groupmode="layer"
     inkscape:label="k-vs-kmeans-len-nmf-soft"
     transform="matrix(1.25,0,0,-1.25,0,270)"><g
       id="g13427"><g
         id="g13429"
         clip-path="url(#clipPath13431)"><path
           d="M 7.3327111,-1 7.7976562,-0.46288462 20.184375,16.652308 32.571094,26.191923 44.957812,41.0625 l 12.386719,8.417308 12.386719,1.683461 12.386719,0 12.386719,1.402885 12.386722,19.359808 12.38672,1.964038 12.38671,13.748269 12.38672,-6.453269 12.38672,13.748269 12.38672,4.769808 12.38672,12.906543 12.38672,3.36692 12.38672,1.40288 12.38671,5.89212 12.38672,8.41731 12.38672,6.17269 12.38672,8.13673 12.38672,7.85615 12.38672,-0.84173 12.38672,-6.73384 12.38672,-10.10077 12.38671,1.96404 12.38672,1.40288 12.38672,-3.36692 12.38672,0.56115 12.38672,-1.12231 12.38672,1.12231 12.38672,-3.6475 12.38672,-1.68346 12.38671,-0.84173 12.38672,4.48923 12.38672,-3.92808 12.38672,-7.85615 12.38672,-10.10077 12.38672,-9.25904 12.38672,-1.68346 12.38672,-6.45327 12.38671,4.208654 12.38672,-4.489231 12.38672,-5.611538 12.38672,-4.489231 L 565.2,84.551923 577,81.077193"
           style="fill:none;stroke:#000000;stroke-opacity:1;stroke-width:1;stroke-linecap:square;stroke-linejoin:round;stroke-miterlimit:10;stroke-dasharray:none"
           id="path13435" /></g></g><g
       id="g13437"><g
         id="g13439"
         clip-path="url(#clipPath13441)"><path
           d="m -1,13.348809 8.7976562,11.159653 12.3867188,10.661923 12.386719,11.503653 12.386718,8.417308 12.386719,9.259039 12.386719,9.820192 12.386719,8.697885 12.386719,5.611538 12.386722,10.9425 12.38672,2.24462 12.38671,8.13673 12.38672,2.52519 12.38672,11.22308 12.38672,6.17269 12.38672,4.76981 12.38672,1.96403 12.38672,8.13673 12.38671,13.18712 12.38672,9.53962 12.38672,3.36692 12.38672,1.40288 12.38672,4.76981 12.38672,6.73385 12.38672,3.6475 12.38672,-10.10077 12.38671,-3.92808 12.38672,-5.33096 12.38672,4.48923 12.38672,-2.80577 12.38672,-1.12231 12.38672,4.48923 12.38672,1.68347 12.38672,-7.295 12.38671,-5.33097 12.38672,-4.20865 12.38672,0.28058 12.38672,-3.08635 12.38672,-5.05038 12.38672,-12.62597 12.38672,-2.80576 12.38672,-1.68347 12.38671,5.33097 12.38672,-10.10077 12.38672,-7.57558 12.38672,-4.76981 12.38672,-5.05038 11.8,-3.20745"
           style="fill:none;stroke:#000000;stroke-opacity:1;stroke-width:1;stroke-linecap:butt;stroke-linejoin:round;stroke-miterlimit:10;stroke-dasharray:6,6;stroke-dashoffset:0"
           id="path13445" /></g></g><g
       id="g13447"><g
         id="g13449"
         clip-path="url(#clipPath13451)"><path
           d="m -1,20.339448 8.7976562,6.974783 12.3867188,9.820192 12.386719,13.748269 12.386718,7.575577 12.386719,15.431731 12.386719,7.856154 12.386719,8.417308 12.386719,8.13673 12.386722,11.223078 12.38672,7.85615 12.38671,5.05039 12.38672,-3.6475 12.38672,8.13673 12.38672,-0.84173 12.38672,13.74827 12.38672,2.80577 12.38672,12.62596 12.38671,4.48923 12.38672,15.71231 12.38672,6.45327 12.38672,13.46769 12.38672,-4.76981 12.38672,-3.92808 12.38672,-0.84173 12.38672,-3.92807 12.38671,5.89211 12.38672,2.24462 12.38672,2.24461 12.38672,-11.50365 12.38672,-14.30943 12.38672,-3.6475 12.38672,2.80577 12.38672,2.24462 12.38671,-7.01442 12.38672,1.68346 12.38672,-7.01443 12.38672,-0.28057 12.38672,-12.62596 12.38672,-2.24462 12.38672,-6.17269 12.38672,-6.17269 12.38671,-6.73385 12.38672,-2.24462 12.38672,-2.52519 12.38672,-1.12231 12.38672,-4.7698 11.8,-7.48404"
           style="fill:none;stroke:#808080;stroke-opacity:1;stroke-width:1;stroke-linecap:square;stroke-linejoin:round;stroke-miterlimit:10;stroke-dasharray:none"
           id="path13455" /></g></g><g
       id="g13457"><path
         d="M 44.957812,205.2 565.2,205.2"
         style="fill:none;stroke:#000000;stroke-opacity:1;stroke-width:1;stroke-linecap:square;stroke-linejoin:miter;stroke-miterlimit:10;stroke-dasharray:none"
         id="path13459" /><path
         d="m 565.2,41.0625 0,164.1375"
         style="fill:none;stroke:#000000;stroke-opacity:1;stroke-width:1;stroke-linecap:square;stroke-linejoin:miter;stroke-miterlimit:10;stroke-dasharray:none"
         id="path13461" /><path
         d="m 44.957812,41.0625 520.242188,0"
         style="fill:none;stroke:#000000;stroke-opacity:1;stroke-width:1;stroke-linecap:square;stroke-linejoin:miter;stroke-miterlimit:10;stroke-dasharray:none"
         id="path13463" /><path
         d="m 44.957812,41.0625 0,164.1375"
         style="fill:none;stroke:#000000;stroke-opacity:1;stroke-width:1;stroke-linecap:square;stroke-linejoin:miter;stroke-miterlimit:10;stroke-dasharray:none"
         id="path13465" /><path
         d="m 44.957812,41.0625 0,4"
         style="fill:#000000;fill-opacity:1;fill-rule:nonzero;stroke:#000000;stroke-opacity:1;stroke-width:0.5;stroke-linecap:butt;stroke-linejoin:round;stroke-miterlimit:10;stroke-dasharray:none"
         id="path13467" /><path
         d="m 44.957812,205.2 0,-4"
         style="fill:#000000;fill-opacity:1;fill-rule:nonzero;stroke:#000000;stroke-opacity:1;stroke-width:0.5;stroke-linecap:butt;stroke-linejoin:round;stroke-miterlimit:10;stroke-dasharray:none"
         id="path13469" /><text
         transform="matrix(1,0,0,-1,35.1375,30.234375)"
         id="text13471"><tspan
           style="fill:#000000;fill-opacity:1;fill-rule:nonzero;stroke:none;font-family:STIXGeneral;font-variant:normal;font-weight:normal;font-size:10;writing-mode:lr;-inkscape-font-specification:STIXGeneral-Regular"
           x="0 5 10 15"
           y="0"
           sodipodi:role="line"
           id="tspan13473">4000</tspan></text>
<path
         d="m 144.05156,41.0625 0,4"
         style="fill:#000000;fill-opacity:1;fill-rule:nonzero;stroke:#000000;stroke-opacity:1;stroke-width:0.5;stroke-linecap:butt;stroke-linejoin:round;stroke-miterlimit:10;stroke-dasharray:none"
         id="path13475" /><path
         d="m 144.05156,205.2 0,-4"
         style="fill:#000000;fill-opacity:1;fill-rule:nonzero;stroke:#000000;stroke-opacity:1;stroke-width:0.5;stroke-linecap:butt;stroke-linejoin:round;stroke-miterlimit:10;stroke-dasharray:none"
         id="path13477" /><text
         transform="matrix(1,0,0,-1,134.34062,30.234375)"
         id="text13479"><tspan
           style="fill:#000000;fill-opacity:1;fill-rule:nonzero;stroke:none;font-family:STIXGeneral;font-variant:normal;font-weight:normal;font-size:10;writing-mode:lr;-inkscape-font-specification:STIXGeneral-Regular"
           x="0 5 10 15"
           y="0"
           sodipodi:role="line"
           id="tspan13481">6000</tspan></text>
<path
         d="m 243.14531,41.0625 0,4"
         style="fill:#000000;fill-opacity:1;fill-rule:nonzero;stroke:#000000;stroke-opacity:1;stroke-width:0.5;stroke-linecap:butt;stroke-linejoin:round;stroke-miterlimit:10;stroke-dasharray:none"
         id="path13483" /><path
         d="m 243.14531,205.2 0,-4"
         style="fill:#000000;fill-opacity:1;fill-rule:nonzero;stroke:#000000;stroke-opacity:1;stroke-width:0.5;stroke-linecap:butt;stroke-linejoin:round;stroke-miterlimit:10;stroke-dasharray:none"
         id="path13485" /><text
         transform="matrix(1,0,0,-1,233.54375,30.234375)"
         id="text13487"><tspan
           style="fill:#000000;fill-opacity:1;fill-rule:nonzero;stroke:none;font-family:STIXGeneral;font-variant:normal;font-weight:normal;font-size:10;writing-mode:lr;-inkscape-font-specification:STIXGeneral-Regular"
           x="0 5 10 15"
           y="0"
           sodipodi:role="line"
           id="tspan13489">8000</tspan></text>
<path
         d="m 342.23906,41.0625 0,4"
         style="fill:#000000;fill-opacity:1;fill-rule:nonzero;stroke:#000000;stroke-opacity:1;stroke-width:0.5;stroke-linecap:butt;stroke-linejoin:round;stroke-miterlimit:10;stroke-dasharray:none"
         id="path13491" /><path
         d="m 342.23906,205.2 0,-4"
         style="fill:#000000;fill-opacity:1;fill-rule:nonzero;stroke:#000000;stroke-opacity:1;stroke-width:0.5;stroke-linecap:butt;stroke-linejoin:round;stroke-miterlimit:10;stroke-dasharray:none"
         id="path13493" /><text
         transform="matrix(1,0,0,-1,330.41094,30.234375)"
         id="text13495"><tspan
           style="fill:#000000;fill-opacity:1;fill-rule:nonzero;stroke:none;font-family:STIXGeneral;font-variant:normal;font-weight:normal;font-size:10;writing-mode:lr;-inkscape-font-specification:STIXGeneral-Regular"
           x="0 5 10 15 20"
           y="0"
           sodipodi:role="line"
           id="tspan13497">10000</tspan></text>
<path
         d="m 441.33281,41.0625 0,4"
         style="fill:#000000;fill-opacity:1;fill-rule:nonzero;stroke:#000000;stroke-opacity:1;stroke-width:0.5;stroke-linecap:butt;stroke-linejoin:round;stroke-miterlimit:10;stroke-dasharray:none"
         id="path13499" /><path
         d="m 441.33281,205.2 0,-4"
         style="fill:#000000;fill-opacity:1;fill-rule:nonzero;stroke:#000000;stroke-opacity:1;stroke-width:0.5;stroke-linecap:butt;stroke-linejoin:round;stroke-miterlimit:10;stroke-dasharray:none"
         id="path13501" /><text
         transform="matrix(1,0,0,-1,429.50469,30.234375)"
         id="text13503"><tspan
           style="fill:#000000;fill-opacity:1;fill-rule:nonzero;stroke:none;font-family:STIXGeneral;font-variant:normal;font-weight:normal;font-size:10;writing-mode:lr;-inkscape-font-specification:STIXGeneral-Regular"
           x="0 5 10 15 20"
           y="0"
           sodipodi:role="line"
           id="tspan13505">12000</tspan></text>
<path
         d="m 540.42656,41.0625 0,4"
         style="fill:#000000;fill-opacity:1;fill-rule:nonzero;stroke:#000000;stroke-opacity:1;stroke-width:0.5;stroke-linecap:butt;stroke-linejoin:round;stroke-miterlimit:10;stroke-dasharray:none"
         id="path13507" /><path
         d="m 540.42656,205.2 0,-4"
         style="fill:#000000;fill-opacity:1;fill-rule:nonzero;stroke:#000000;stroke-opacity:1;stroke-width:0.5;stroke-linecap:butt;stroke-linejoin:round;stroke-miterlimit:10;stroke-dasharray:none"
         id="path13509" /><text
         transform="matrix(1,0,0,-1,528.59844,30.234375)"
         id="text13511"><tspan
           style="fill:#000000;fill-opacity:1;fill-rule:nonzero;stroke:none;font-family:STIXGeneral;font-variant:normal;font-weight:normal;font-size:10;writing-mode:lr;-inkscape-font-specification:STIXGeneral-Regular"
           x="0 5 10 15 20"
           y="0"
           sodipodi:role="line"
           id="tspan13513">14000</tspan></text>
<g
         id="g13515"
         transform="translate(254.57891,14.859375)"><text
           transform="matrix(1,0,0,-1,0,0.796875)"
           id="text13517"><tspan
             style="fill:#000000;fill-opacity:1;fill-rule:nonzero;stroke:none;font-family:STIXGeneral;font-variant:normal;font-weight:normal;font-size:12;writing-mode:lr;-inkscape-font-specification:STIXGeneral-Regular"
             x="0 5.99998474 11.99996948 21.33595276 27.3359375 32.66392517 36.65991211 39.65989685 45.65988159 49.65586853 52.65585327 57.98384094 61.31983948 67.31982422 71.98780823 75.32380676 80.65179443 84.64778137 89.31576538"
             y="0"
             sodipodi:role="line"
             id="tspan13519">number of clusters </tspan></text>
<text
           transform="matrix(1,0,0,-1,92.31575,0.796875)"
           id="text13521"><tspan
             style="fill:#000000;fill-opacity:1;fill-rule:nonzero;stroke:none;font-family:STIXGeneral;font-style:italic;font-variant:normal;font-size:12;writing-mode:lr;-inkscape-font-specification:STIXGeneral-Italic"
             x="0"
             y="0"
             id="tspan13523">K</tspan></text>
</g><path
         d="m 44.957812,62.105769 4,0"
         style="fill:#000000;fill-opacity:1;fill-rule:nonzero;stroke:#000000;stroke-opacity:1;stroke-width:0.5;stroke-linecap:butt;stroke-linejoin:round;stroke-miterlimit:10;stroke-dasharray:none"
         id="path13525" /><path
         d="m 565.2,62.105769 -4,0"
         style="fill:#000000;fill-opacity:1;fill-rule:nonzero;stroke:#000000;stroke-opacity:1;stroke-width:0.5;stroke-linecap:butt;stroke-linejoin:round;stroke-miterlimit:10;stroke-dasharray:none"
         id="path13527" /><text
         transform="matrix(1,0,0,-1,26.489062,59.777644)"
         id="text13529"><tspan
           style="fill:#000000;fill-opacity:1;fill-rule:nonzero;stroke:none;font-family:STIXGeneral;font-variant:normal;font-weight:normal;font-size:10;writing-mode:lr;-inkscape-font-specification:STIXGeneral-Regular"
           x="0 5 10"
           y="0"
           sodipodi:role="line"
           id="tspan13531">200</tspan></text>
<path
         d="m 44.957812,104.19231 4,0"
         style="fill:#000000;fill-opacity:1;fill-rule:nonzero;stroke:#000000;stroke-opacity:1;stroke-width:0.5;stroke-linecap:butt;stroke-linejoin:round;stroke-miterlimit:10;stroke-dasharray:none"
         id="path13533" /><path
         d="m 565.2,104.19231 -4,0"
         style="fill:#000000;fill-opacity:1;fill-rule:nonzero;stroke:#000000;stroke-opacity:1;stroke-width:0.5;stroke-linecap:butt;stroke-linejoin:round;stroke-miterlimit:10;stroke-dasharray:none"
         id="path13535" /><text
         transform="matrix(1,0,0,-1,26.489062,101.86418)"
         id="text13537"><tspan
           style="fill:#000000;fill-opacity:1;fill-rule:nonzero;stroke:none;font-family:STIXGeneral;font-variant:normal;font-weight:normal;font-size:10;writing-mode:lr;-inkscape-font-specification:STIXGeneral-Regular"
           x="0 5 10"
           y="0"
           sodipodi:role="line"
           id="tspan13539">250</tspan></text>
<path
         d="m 44.957812,146.27885 4,0"
         style="fill:#000000;fill-opacity:1;fill-rule:nonzero;stroke:#000000;stroke-opacity:1;stroke-width:0.5;stroke-linecap:butt;stroke-linejoin:round;stroke-miterlimit:10;stroke-dasharray:none"
         id="path13541" /><path
         d="m 565.2,146.27885 -4,0"
         style="fill:#000000;fill-opacity:1;fill-rule:nonzero;stroke:#000000;stroke-opacity:1;stroke-width:0.5;stroke-linecap:butt;stroke-linejoin:round;stroke-miterlimit:10;stroke-dasharray:none"
         id="path13543" /><text
         transform="matrix(1,0,0,-1,26.598437,143.95072)"
         id="text13545"><tspan
           style="fill:#000000;fill-opacity:1;fill-rule:nonzero;stroke:none;font-family:STIXGeneral;font-variant:normal;font-weight:normal;font-size:10;writing-mode:lr;-inkscape-font-specification:STIXGeneral-Regular"
           x="0 5 10"
           y="0"
           sodipodi:role="line"
           id="tspan13547">300</tspan></text>
<path
         d="m 44.957812,188.36538 4,0"
         style="fill:#000000;fill-opacity:1;fill-rule:nonzero;stroke:#000000;stroke-opacity:1;stroke-width:0.5;stroke-linecap:butt;stroke-linejoin:round;stroke-miterlimit:10;stroke-dasharray:none"
         id="path13549" /><path
         d="m 565.2,188.36538 -4,0"
         style="fill:#000000;fill-opacity:1;fill-rule:nonzero;stroke:#000000;stroke-opacity:1;stroke-width:0.5;stroke-linecap:butt;stroke-linejoin:round;stroke-miterlimit:10;stroke-dasharray:none"
         id="path13551" /><text
         transform="matrix(1,0,0,-1,26.598437,186.03726)"
         id="text13553"><tspan
           style="fill:#000000;fill-opacity:1;fill-rule:nonzero;stroke:none;font-family:STIXGeneral;font-variant:normal;font-weight:normal;font-size:10;writing-mode:lr;-inkscape-font-specification:STIXGeneral-Regular"
           x="0 5 10"
           y="0"
           sodipodi:role="line"
           id="tspan13555">350</tspan></text>
<text
         transform="matrix(0,1,1,0,18.879687,83.873437)"
         id="text13557"><tspan
           style="fill:#000000;fill-opacity:1;fill-rule:nonzero;stroke:none;font-family:STIXGeneral;font-variant:normal;font-weight:normal;font-size:12;writing-mode:lr;-inkscape-font-specification:STIXGeneral-Regular"
           x="0 6 12 15 18 24 30 33.996 39.324 42.324 47.652 50.988 56.988 61.656 64.992 70.32 74.316"
           y="0"
           sodipodi:role="line"
           id="tspan13559">no. pure clusters</tspan></text>
<path
         d="m 168.87891,47.0625 272.4,0 0,20.609375 -272.4,0 0,-20.609375 z"
         style="fill:none;stroke:#000000;stroke-opacity:1;stroke-width:1;stroke-linecap:butt;stroke-linejoin:miter;stroke-miterlimit:10;stroke-dasharray:none"
         id="path13561" /><path
         d="m 177.27891,58.671875 16.8,0"
         style="fill:none;stroke:#000000;stroke-opacity:1;stroke-width:1;stroke-linecap:square;stroke-linejoin:round;stroke-miterlimit:10;stroke-dasharray:none"
         id="path13563" /><g
         id="g13565"
         transform="translate(207.27891,54.471875)"><text
           transform="matrix(1,0,0,-1,0,0.75)"
           id="text13567"><tspan
             style="fill:#000000;fill-opacity:1;fill-rule:nonzero;stroke:none;font-family:STIXGeneral;font-style:italic;font-variant:normal;font-size:12;writing-mode:lr;-inkscape-font-specification:STIXGeneral-Italic"
             x="0"
             y="0"
             id="tspan13569">k</tspan></text>
<text
           transform="matrix(1,0,0,-1,8.3279724,0.75)"
           id="text13571"><tspan
             style="fill:#000000;fill-opacity:1;fill-rule:nonzero;stroke:none;font-family:STIXGeneral;font-variant:normal;font-weight:normal;font-size:12;writing-mode:lr;-inkscape-font-specification:STIXGeneral-Regular"
             x="0 8.21998596 11.2199707 17.21995544 23.21994019"
             y="0"
             sodipodi:role="line"
             id="tspan13573">= 150</tspan></text>
</g><path
         d="m 272.87891,58.671875 16.8,0"
         style="fill:none;stroke:#000000;stroke-opacity:1;stroke-width:1;stroke-linecap:butt;stroke-linejoin:round;stroke-miterlimit:10;stroke-dasharray:6,6;stroke-dashoffset:0"
         id="path13575" /><g
         id="g13577"
         transform="translate(302.87891,54.471875)"><text
           transform="matrix(1,0,0,-1,0,0.75)"
           id="text13579"><tspan
             style="fill:#000000;fill-opacity:1;fill-rule:nonzero;stroke:none;font-family:STIXGeneral;font-style:italic;font-variant:normal;font-size:12;writing-mode:lr;-inkscape-font-specification:STIXGeneral-Italic"
             x="0"
             y="0"
             id="tspan13581">k</tspan></text>
<text
           transform="matrix(1,0,0,-1,8.3279724,0.75)"
           id="text13583"><tspan
             style="fill:#000000;fill-opacity:1;fill-rule:nonzero;stroke:none;font-family:STIXGeneral;font-variant:normal;font-weight:normal;font-size:12;writing-mode:lr;-inkscape-font-specification:STIXGeneral-Regular"
             x="0 8.21998596 11.2199707 17.21995544 23.21994019"
             y="0"
             sodipodi:role="line"
             id="tspan13585">= 250</tspan></text>
</g><path
         d="m 368.47891,58.671875 16.8,0"
         style="fill:none;stroke:#808080;stroke-opacity:1;stroke-width:1;stroke-linecap:square;stroke-linejoin:round;stroke-miterlimit:10;stroke-dasharray:none"
         id="path13587" /><g
         id="g13589"
         transform="translate(398.47891,54.471875)"><text
           transform="matrix(1,0,0,-1,0,0.75)"
           id="text13591"><tspan
             style="fill:#000000;fill-opacity:1;fill-rule:nonzero;stroke:none;font-family:STIXGeneral;font-style:italic;font-variant:normal;font-size:12;writing-mode:lr;-inkscape-font-specification:STIXGeneral-Italic"
             x="0"
             y="0"
             id="tspan13593">k</tspan></text>
<text
           transform="matrix(1,0,0,-1,8.3279724,0.75)"
           id="text13595"><tspan
             style="fill:#000000;fill-opacity:1;fill-rule:nonzero;stroke:none;font-family:STIXGeneral;font-variant:normal;font-weight:normal;font-size:12;writing-mode:lr;-inkscape-font-specification:STIXGeneral-Regular"
             x="0 8.21998596 11.2199707 17.21995544 23.21994019"
             y="0"
             sodipodi:role="line"
             id="tspan13597">= 350</tspan></text>
</g></g></g></svg>