<?xml version="1.0" encoding="UTF-8" standalone="no"?>
<!-- Created with Inkscape (http://www.inkscape.org/) -->

<svg
   xmlns:dc="http://purl.org/dc/elements/1.1/"
   xmlns:cc="http://creativecommons.org/ns#"
   xmlns:rdf="http://www.w3.org/1999/02/22-rdf-syntax-ns#"
   xmlns:svg="http://www.w3.org/2000/svg"
   xmlns="http://www.w3.org/2000/svg"
   xmlns:sodipodi="http://sodipodi.sourceforge.net/DTD/sodipodi-0.dtd"
   xmlns:inkscape="http://www.inkscape.org/namespaces/inkscape"
   id="svg5687"
   version="1.1"
   inkscape:version="0.48.4 r9939"
   width="450"
   height="270"
   xml:space="preserve"
   sodipodi:docname="nodef-dbscan-cos10-2.pdf"><metadata
     id="metadata5693"><rdf:RDF><cc:Work
         rdf:about=""><dc:format>image/svg+xml</dc:format><dc:type
           rdf:resource="http://purl.org/dc/dcmitype/StillImage" /><dc:title></dc:title></cc:Work></rdf:RDF></metadata><defs
     id="defs5691"><clipPath
       clipPathUnits="userSpaceOnUse"
       id="clipPath5703"><path
         d="m 44.128125,39.051562 300.733595,0 0,161.817188 -300.733595,0 0,-161.817188 z"
         id="path5705" /></clipPath><clipPath
       clipPathUnits="userSpaceOnUse"
       id="clipPath5713"><path
         d="m 44.128125,39.051562 300.733595,0 0,161.817188 -300.733595,0 0,-161.817188 z"
         id="path5715" /></clipPath><clipPath
       clipPathUnits="userSpaceOnUse"
       id="clipPath5723"><path
         d="m 44.128125,39.051562 300.733595,0 0,161.817188 -300.733595,0 0,-161.817188 z"
         id="path5725" /></clipPath><clipPath
       clipPathUnits="userSpaceOnUse"
       id="clipPath5733"><path
         d="m 44.128125,39.051562 300.733595,0 0,161.817188 -300.733595,0 0,-161.817188 z"
         id="path5735" /></clipPath><clipPath
       clipPathUnits="userSpaceOnUse"
       id="clipPath5893"><path
         d="m -970,-305 2399,0 0,1328 -2399,0 0,-1328 z"
         id="path5895" /></clipPath><clipPath
       clipPathUnits="userSpaceOnUse"
       id="clipPath5913"><path
         d="m -970,-305 2399,0 0,1328 -2399,0 0,-1328 z"
         id="path5915" /></clipPath><clipPath
       clipPathUnits="userSpaceOnUse"
       id="clipPath5933"><path
         d="m -970,-305 2399,0 0,1328 -2399,0 0,-1328 z"
         id="path5935" /></clipPath><clipPath
       clipPathUnits="userSpaceOnUse"
       id="clipPath5953"><path
         d="m -970,-305 2399,0 0,1328 -2399,0 0,-1328 z"
         id="path5955" /></clipPath></defs><sodipodi:namedview
     pagecolor="#ffffff"
     bordercolor="#666666"
     borderopacity="1"
     objecttolerance="10"
     gridtolerance="10"
     guidetolerance="10"
     inkscape:pageopacity="0"
     inkscape:pageshadow="2"
     inkscape:window-width="1366"
     inkscape:window-height="716"
     id="namedview5689"
     showgrid="false"
     inkscape:zoom="1.68"
     inkscape:cx="191.15127"
     inkscape:cy="126.18025"
     inkscape:window-x="-8"
     inkscape:window-y="-8"
     inkscape:window-maximized="1"
     inkscape:current-layer="g5695" /><g
     id="g5695"
     inkscape:groupmode="layer"
     inkscape:label="nodef-dbscan-cos10-2"
     transform="matrix(1.25,0,0,-1.25,0,270)"><g
       id="g5699"><g
         id="g5701"
         clip-path="url(#clipPath5703)"><path
           d="m 44.128125,153.67207 42.961942,-2.69695 42.961943,2.69695 42.96194,-13.48477 42.96194,-1.34847 42.96194,-2.69696 42.96195,2.69696 42.96194,-13.48477"
           style="fill:none;stroke:#000000;stroke-opacity:1;stroke-width:1;stroke-linecap:square;stroke-linejoin:round;stroke-miterlimit:10;stroke-dasharray:none"
           id="path5707" /></g></g><g
       id="g5709"><g
         id="g5711"
         clip-path="url(#clipPath5713)"><path
           d="m 44.128125,179.29312 42.961942,-17.53019 42.961943,-14.83324 42.96194,-18.87867 42.96194,-1.34848 42.96194,-4.04543 42.96195,-4.04543 42.96194,-13.48477"
           style="fill:none;stroke:#000000;stroke-opacity:1;stroke-width:1;stroke-linecap:butt;stroke-linejoin:round;stroke-miterlimit:10;stroke-dasharray:6,6;stroke-dashoffset:0"
           id="path5717" /></g></g><g
       id="g5719"><g
         id="g5721"
         clip-path="url(#clipPath5723)"><path
           d="m 44.128125,149.62664 42.961942,-26.96953 42.961943,-9.43934 42.96194,-17.530192 42.96194,-12.136289 42.96194,-2.696953 42.96195,-9.439336 42.96194,-5.393906"
           style="fill:none;stroke:#808080;stroke-opacity:1;stroke-width:1;stroke-linecap:square;stroke-linejoin:round;stroke-miterlimit:10;stroke-dasharray:none"
           id="path5727" /></g></g><g
       id="g5729"><g
         id="g5731"
         clip-path="url(#clipPath5733)"><path
           d="m 44.128125,133.44492 42.961942,-31.01496 42.961943,-13.484765 42.96194,-8.090859 42.96194,-8.090859 42.96194,-10.787813 42.96195,-4.04543 42.96194,-2.696953"
           style="fill:none;stroke:#808080;stroke-opacity:1;stroke-width:1;stroke-linecap:butt;stroke-linejoin:round;stroke-miterlimit:10;stroke-dasharray:6,6;stroke-dashoffset:0"
           id="path5737" /></g></g><g
       id="g5739"><path
         d="m 44.128125,200.86875 300.733595,0"
         style="fill:none;stroke:#000000;stroke-opacity:1;stroke-width:1;stroke-linecap:square;stroke-linejoin:miter;stroke-miterlimit:10;stroke-dasharray:none"
         id="path5741" /><path
         d="m 344.86172,39.051562 0,161.817188"
         style="fill:none;stroke:#000000;stroke-opacity:1;stroke-width:1;stroke-linecap:square;stroke-linejoin:miter;stroke-miterlimit:10;stroke-dasharray:none"
         id="path5743" /><path
         d="m 44.128125,39.051562 300.733595,0"
         style="fill:none;stroke:#000000;stroke-opacity:1;stroke-width:1;stroke-linecap:square;stroke-linejoin:miter;stroke-miterlimit:10;stroke-dasharray:none"
         id="path5745" /><path
         d="m 44.128125,39.051562 0,161.817188"
         style="fill:none;stroke:#000000;stroke-opacity:1;stroke-width:1;stroke-linecap:square;stroke-linejoin:miter;stroke-miterlimit:10;stroke-dasharray:none"
         id="path5747" /><path
         d="m 44.128125,39.051562 0,4"
         style="fill:#000000;fill-opacity:1;fill-rule:nonzero;stroke:#000000;stroke-opacity:1;stroke-width:0.5;stroke-linecap:butt;stroke-linejoin:round;stroke-miterlimit:10;stroke-dasharray:none"
         id="path5749" /><path
         d="m 44.128125,200.86875 0,-4"
         style="fill:#000000;fill-opacity:1;fill-rule:nonzero;stroke:#000000;stroke-opacity:1;stroke-width:0.5;stroke-linecap:butt;stroke-linejoin:round;stroke-miterlimit:10;stroke-dasharray:none"
         id="path5751" /><text
         transform="matrix(1,0,0,-1,42.175,28.223437)"
         id="text5753"><tspan
           style="fill:#000000;fill-opacity:1;fill-rule:nonzero;stroke:none;font-family:STIXGeneral;font-variant:normal;font-weight:normal;font-size:10;writing-mode:lr;-inkscape-font-specification:STIXGeneral-Regular"
           x="0"
           y="0"
           id="tspan5755">3</tspan></text>
<path
         d="m 87.090067,39.051562 0,4"
         style="fill:#000000;fill-opacity:1;fill-rule:nonzero;stroke:#000000;stroke-opacity:1;stroke-width:0.5;stroke-linecap:butt;stroke-linejoin:round;stroke-miterlimit:10;stroke-dasharray:none"
         id="path5757" /><path
         d="m 87.090067,200.86875 0,-4"
         style="fill:#000000;fill-opacity:1;fill-rule:nonzero;stroke:#000000;stroke-opacity:1;stroke-width:0.5;stroke-linecap:butt;stroke-linejoin:round;stroke-miterlimit:10;stroke-dasharray:none"
         id="path5759" /><text
         transform="matrix(1,0,0,-1,84.785379,28.223437)"
         id="text5761"><tspan
           style="fill:#000000;fill-opacity:1;fill-rule:nonzero;stroke:none;font-family:STIXGeneral;font-variant:normal;font-weight:normal;font-size:10;writing-mode:lr;-inkscape-font-specification:STIXGeneral-Regular"
           x="0"
           y="0"
           id="tspan5763">4</tspan></text>
<path
         d="m 130.05201,39.051562 0,4"
         style="fill:#000000;fill-opacity:1;fill-rule:nonzero;stroke:#000000;stroke-opacity:1;stroke-width:0.5;stroke-linecap:butt;stroke-linejoin:round;stroke-miterlimit:10;stroke-dasharray:none"
         id="path5765" /><path
         d="m 130.05201,200.86875 0,-4"
         style="fill:#000000;fill-opacity:1;fill-rule:nonzero;stroke:#000000;stroke-opacity:1;stroke-width:0.5;stroke-linecap:butt;stroke-linejoin:round;stroke-miterlimit:10;stroke-dasharray:none"
         id="path5767" /><text
         transform="matrix(1,0,0,-1,128.02076,28.223437)"
         id="text5769"><tspan
           style="fill:#000000;fill-opacity:1;fill-rule:nonzero;stroke:none;font-family:STIXGeneral;font-variant:normal;font-weight:normal;font-size:10;writing-mode:lr;-inkscape-font-specification:STIXGeneral-Regular"
           x="0"
           y="0"
           id="tspan5771">5</tspan></text>
<path
         d="m 173.01395,39.051562 0,4"
         style="fill:#000000;fill-opacity:1;fill-rule:nonzero;stroke:#000000;stroke-opacity:1;stroke-width:0.5;stroke-linecap:butt;stroke-linejoin:round;stroke-miterlimit:10;stroke-dasharray:none"
         id="path5773" /><path
         d="m 173.01395,200.86875 0,-4"
         style="fill:#000000;fill-opacity:1;fill-rule:nonzero;stroke:#000000;stroke-opacity:1;stroke-width:0.5;stroke-linecap:butt;stroke-linejoin:round;stroke-miterlimit:10;stroke-dasharray:none"
         id="path5775" /><text
         transform="matrix(1,0,0,-1,170.84208,28.223437)"
         id="text5777"><tspan
           style="fill:#000000;fill-opacity:1;fill-rule:nonzero;stroke:none;font-family:STIXGeneral;font-variant:normal;font-weight:normal;font-size:10;writing-mode:lr;-inkscape-font-specification:STIXGeneral-Regular"
           x="0"
           y="0"
           id="tspan5779">6</tspan></text>
<path
         d="m 215.97589,39.051562 0,4"
         style="fill:#000000;fill-opacity:1;fill-rule:nonzero;stroke:#000000;stroke-opacity:1;stroke-width:0.5;stroke-linecap:butt;stroke-linejoin:round;stroke-miterlimit:10;stroke-dasharray:none"
         id="path5781" /><path
         d="m 215.97589,200.86875 0,-4"
         style="fill:#000000;fill-opacity:1;fill-rule:nonzero;stroke:#000000;stroke-opacity:1;stroke-width:0.5;stroke-linecap:butt;stroke-linejoin:round;stroke-miterlimit:10;stroke-dasharray:none"
         id="path5783" /><text
         transform="matrix(1,0,0,-1,213.83527,28.223437)"
         id="text5785"><tspan
           style="fill:#000000;fill-opacity:1;fill-rule:nonzero;stroke:none;font-family:STIXGeneral;font-variant:normal;font-weight:normal;font-size:10;writing-mode:lr;-inkscape-font-specification:STIXGeneral-Regular"
           x="0"
           y="0"
           id="tspan5787">7</tspan></text>
<path
         d="m 258.93783,39.051562 0,4"
         style="fill:#000000;fill-opacity:1;fill-rule:nonzero;stroke:#000000;stroke-opacity:1;stroke-width:0.5;stroke-linecap:butt;stroke-linejoin:round;stroke-miterlimit:10;stroke-dasharray:none"
         id="path5789" /><path
         d="m 258.93783,200.86875 0,-4"
         style="fill:#000000;fill-opacity:1;fill-rule:nonzero;stroke:#000000;stroke-opacity:1;stroke-width:0.5;stroke-linecap:butt;stroke-linejoin:round;stroke-miterlimit:10;stroke-dasharray:none"
         id="path5791" /><text
         transform="matrix(1,0,0,-1,256.99252,28.223437)"
         id="text5793"><tspan
           style="fill:#000000;fill-opacity:1;fill-rule:nonzero;stroke:none;font-family:STIXGeneral;font-variant:normal;font-weight:normal;font-size:10;writing-mode:lr;-inkscape-font-specification:STIXGeneral-Regular"
           x="0"
           y="0"
           id="tspan5795">8</tspan></text>
<path
         d="m 301.89978,39.051562 0,4"
         style="fill:#000000;fill-opacity:1;fill-rule:nonzero;stroke:#000000;stroke-opacity:1;stroke-width:0.5;stroke-linecap:butt;stroke-linejoin:round;stroke-miterlimit:10;stroke-dasharray:none"
         id="path5797" /><path
         d="m 301.89978,200.86875 0,-4"
         style="fill:#000000;fill-opacity:1;fill-rule:nonzero;stroke:#000000;stroke-opacity:1;stroke-width:0.5;stroke-linecap:butt;stroke-linejoin:round;stroke-miterlimit:10;stroke-dasharray:none"
         id="path5799" /><text
         transform="matrix(1,0,0,-1,299.75134,28.223437)"
         id="text5801"><tspan
           style="fill:#000000;fill-opacity:1;fill-rule:nonzero;stroke:none;font-family:STIXGeneral;font-variant:normal;font-weight:normal;font-size:10;writing-mode:lr;-inkscape-font-specification:STIXGeneral-Regular"
           x="0"
           y="0"
           id="tspan5803">9</tspan></text>
<path
         d="m 344.86172,39.051562 0,4"
         style="fill:#000000;fill-opacity:1;fill-rule:nonzero;stroke:#000000;stroke-opacity:1;stroke-width:0.5;stroke-linecap:butt;stroke-linejoin:round;stroke-miterlimit:10;stroke-dasharray:none"
         id="path5805" /><path
         d="m 344.86172,200.86875 0,-4"
         style="fill:#000000;fill-opacity:1;fill-rule:nonzero;stroke:#000000;stroke-opacity:1;stroke-width:0.5;stroke-linecap:butt;stroke-linejoin:round;stroke-miterlimit:10;stroke-dasharray:none"
         id="path5807" /><text
         transform="matrix(1,0,0,-1,340.53359,28.223437)"
         id="text5809"><tspan
           style="fill:#000000;fill-opacity:1;fill-rule:nonzero;stroke:none;font-family:STIXGeneral;font-variant:normal;font-weight:normal;font-size:10;writing-mode:lr;-inkscape-font-specification:STIXGeneral-Regular"
           x="0 5"
           y="0"
           sodipodi:role="line"
           id="tspan5811">10</tspan></text>
<text
         transform="matrix(1,0,0,-1,177.45586,12.848438)"
         id="text5813"><tspan
           style="fill:#000000;fill-opacity:1;fill-rule:nonzero;stroke:none;font-family:STIXGeneral;font-variant:normal;font-weight:normal;font-size:12;writing-mode:lr;-inkscape-font-specification:STIXGeneral-Regular"
           x="0 10.668 14.004 20.004 26.688 30.024"
           y="0"
           sodipodi:role="line"
           id="tspan5815">MinPts</tspan></text>
<path
         d="m 44.128125,39.051562 4,0"
         style="fill:#000000;fill-opacity:1;fill-rule:nonzero;stroke:#000000;stroke-opacity:1;stroke-width:0.5;stroke-linecap:butt;stroke-linejoin:round;stroke-miterlimit:10;stroke-dasharray:none"
         id="path5817" /><path
         d="m 344.86172,39.051562 -4,0"
         style="fill:#000000;fill-opacity:1;fill-rule:nonzero;stroke:#000000;stroke-opacity:1;stroke-width:0.5;stroke-linecap:butt;stroke-linejoin:round;stroke-miterlimit:10;stroke-dasharray:none"
         id="path5819" /><text
         transform="matrix(1,0,0,-1,30.659375,36.723438)"
         id="text5821"><tspan
           style="fill:#000000;fill-opacity:1;fill-rule:nonzero;stroke:none;font-family:STIXGeneral;font-variant:normal;font-weight:normal;font-size:10;writing-mode:lr;-inkscape-font-specification:STIXGeneral-Regular"
           x="0 5"
           y="0"
           sodipodi:role="line"
           id="tspan5823">20</tspan></text>
<path
         d="m 44.128125,66.021094 4,0"
         style="fill:#000000;fill-opacity:1;fill-rule:nonzero;stroke:#000000;stroke-opacity:1;stroke-width:0.5;stroke-linecap:butt;stroke-linejoin:round;stroke-miterlimit:10;stroke-dasharray:none"
         id="path5825" /><path
         d="m 344.86172,66.021094 -4,0"
         style="fill:#000000;fill-opacity:1;fill-rule:nonzero;stroke:#000000;stroke-opacity:1;stroke-width:0.5;stroke-linecap:butt;stroke-linejoin:round;stroke-miterlimit:10;stroke-dasharray:none"
         id="path5827" /><text
         transform="matrix(1,0,0,-1,30.4875,63.692969)"
         id="text5829"><tspan
           style="fill:#000000;fill-opacity:1;fill-rule:nonzero;stroke:none;font-family:STIXGeneral;font-variant:normal;font-weight:normal;font-size:10;writing-mode:lr;-inkscape-font-specification:STIXGeneral-Regular"
           x="0 5"
           y="0"
           sodipodi:role="line"
           id="tspan5831">40</tspan></text>
<path
         d="m 44.128125,92.990625 4,0"
         style="fill:#000000;fill-opacity:1;fill-rule:nonzero;stroke:#000000;stroke-opacity:1;stroke-width:0.5;stroke-linecap:butt;stroke-linejoin:round;stroke-miterlimit:10;stroke-dasharray:none"
         id="path5833" /><path
         d="m 344.86172,92.990625 -4,0"
         style="fill:#000000;fill-opacity:1;fill-rule:nonzero;stroke:#000000;stroke-opacity:1;stroke-width:0.5;stroke-linecap:butt;stroke-linejoin:round;stroke-miterlimit:10;stroke-dasharray:none"
         id="path5835" /><text
         transform="matrix(1,0,0,-1,30.70625,90.6625)"
         id="text5837"><tspan
           style="fill:#000000;fill-opacity:1;fill-rule:nonzero;stroke:none;font-family:STIXGeneral;font-variant:normal;font-weight:normal;font-size:10;writing-mode:lr;-inkscape-font-specification:STIXGeneral-Regular"
           x="0 5"
           y="0"
           sodipodi:role="line"
           id="tspan5839">60</tspan></text>
<path
         d="m 44.128125,119.96016 4,0"
         style="fill:#000000;fill-opacity:1;fill-rule:nonzero;stroke:#000000;stroke-opacity:1;stroke-width:0.5;stroke-linecap:butt;stroke-linejoin:round;stroke-miterlimit:10;stroke-dasharray:none"
         id="path5841" /><path
         d="m 344.86172,119.96016 -4,0"
         style="fill:#000000;fill-opacity:1;fill-rule:nonzero;stroke:#000000;stroke-opacity:1;stroke-width:0.5;stroke-linecap:butt;stroke-linejoin:round;stroke-miterlimit:10;stroke-dasharray:none"
         id="path5843" /><text
         transform="matrix(1,0,0,-1,30.925,117.63203)"
         id="text5845"><tspan
           style="fill:#000000;fill-opacity:1;fill-rule:nonzero;stroke:none;font-family:STIXGeneral;font-variant:normal;font-weight:normal;font-size:10;writing-mode:lr;-inkscape-font-specification:STIXGeneral-Regular"
           x="0 5"
           y="0"
           sodipodi:role="line"
           id="tspan5847">80</tspan></text>
<path
         d="m 44.128125,146.92969 4,0"
         style="fill:#000000;fill-opacity:1;fill-rule:nonzero;stroke:#000000;stroke-opacity:1;stroke-width:0.5;stroke-linecap:butt;stroke-linejoin:round;stroke-miterlimit:10;stroke-dasharray:none"
         id="path5849" /><path
         d="m 344.86172,146.92969 -4,0"
         style="fill:#000000;fill-opacity:1;fill-rule:nonzero;stroke:#000000;stroke-opacity:1;stroke-width:0.5;stroke-linecap:butt;stroke-linejoin:round;stroke-miterlimit:10;stroke-dasharray:none"
         id="path5851" /><text
         transform="matrix(1,0,0,-1,26.471875,144.60156)"
         id="text5853"><tspan
           style="fill:#000000;fill-opacity:1;fill-rule:nonzero;stroke:none;font-family:STIXGeneral;font-variant:normal;font-weight:normal;font-size:10;writing-mode:lr;-inkscape-font-specification:STIXGeneral-Regular"
           x="0 5 10"
           y="0"
           sodipodi:role="line"
           id="tspan5855">100</tspan></text>
<path
         d="m 44.128125,173.89922 4,0"
         style="fill:#000000;fill-opacity:1;fill-rule:nonzero;stroke:#000000;stroke-opacity:1;stroke-width:0.5;stroke-linecap:butt;stroke-linejoin:round;stroke-miterlimit:10;stroke-dasharray:none"
         id="path5857" /><path
         d="m 344.86172,173.89922 -4,0"
         style="fill:#000000;fill-opacity:1;fill-rule:nonzero;stroke:#000000;stroke-opacity:1;stroke-width:0.5;stroke-linecap:butt;stroke-linejoin:round;stroke-miterlimit:10;stroke-dasharray:none"
         id="path5859" /><text
         transform="matrix(1,0,0,-1,26.471875,171.57109)"
         id="text5861"><tspan
           style="fill:#000000;fill-opacity:1;fill-rule:nonzero;stroke:none;font-family:STIXGeneral;font-variant:normal;font-weight:normal;font-size:10;writing-mode:lr;-inkscape-font-specification:STIXGeneral-Regular"
           x="0 5 10"
           y="0"
           sodipodi:role="line"
           id="tspan5863">120</tspan></text>
<path
         d="m 44.128125,200.86875 4,0"
         style="fill:#000000;fill-opacity:1;fill-rule:nonzero;stroke:#000000;stroke-opacity:1;stroke-width:0.5;stroke-linecap:butt;stroke-linejoin:round;stroke-miterlimit:10;stroke-dasharray:none"
         id="path5865" /><path
         d="m 344.86172,200.86875 -4,0"
         style="fill:#000000;fill-opacity:1;fill-rule:nonzero;stroke:#000000;stroke-opacity:1;stroke-width:0.5;stroke-linecap:butt;stroke-linejoin:round;stroke-miterlimit:10;stroke-dasharray:none"
         id="path5867" /><text
         transform="matrix(1,0,0,-1,26.471875,198.54062)"
         id="text5869"><tspan
           style="fill:#000000;fill-opacity:1;fill-rule:nonzero;stroke:none;font-family:STIXGeneral;font-variant:normal;font-weight:normal;font-size:10;writing-mode:lr;-inkscape-font-specification:STIXGeneral-Regular"
           x="0 5 10"
           y="0"
           sodipodi:role="line"
           id="tspan5871">140</tspan></text>
<text
         transform="matrix(0,1,1,0,18.8625,80.702344)"
         id="text5873"><tspan
           style="fill:#000000;fill-opacity:1;fill-rule:nonzero;stroke:none;font-family:STIXGeneral;font-variant:normal;font-weight:normal;font-size:12;writing-mode:lr;-inkscape-font-specification:STIXGeneral-Regular"
           x="0 6 12 15 18 24 30 33.996 39.324 42.324 47.652 50.988 56.988 61.656 64.992 70.32 74.316"
           y="0"
           sodipodi:role="line"
           id="tspan5875">no. pure clusters</tspan></text>
<path
         d="m 194.06172,157.25 144.8,0 0,37.61875 -144.8,0 0,-37.61875 z"
         style="fill:none;stroke:#000000;stroke-opacity:1;stroke-width:1;stroke-linecap:butt;stroke-linejoin:miter;stroke-miterlimit:10;stroke-dasharray:none"
         id="path5877" /><path
         d="m 202.46172,185.86875 16.8,0"
         style="fill:none;stroke:#000000;stroke-opacity:1;stroke-width:1;stroke-linecap:square;stroke-linejoin:round;stroke-miterlimit:10;stroke-dasharray:none"
         id="path5879" /><g
         id="g5881"
         transform="translate(232.46172,181.66875)"><text
           transform="matrix(1,0,0,-1,7.0607849,0.890625)"
           id="text5883"><tspan
             style="fill:#000000;fill-opacity:1;fill-rule:nonzero;stroke:none;font-family:STIXGeneral;font-variant:normal;font-weight:normal;font-size:12;writing-mode:lr;-inkscape-font-specification:STIXGeneral-Regular"
             x="0 8.79529724"
             y="0"
             sodipodi:role="line"
             id="tspan5885">=3</tspan></text>
<g
           id="g5887"
           transform="matrix(0.012,0,0,0.012,0,0.890625)"><g
             id="g5889"><g
               id="g5891"
               clip-path="url(#clipPath5893)"><path
                 d="M 360,98 376,88 C 324,22 257,-10 177,-10 79,-10 30,26 30,100 c 0,30 11,57 33,81 22,24 49,40 83,49 -17,2 -30,10 -39,22 -10,12 -14,26 -14,42 0,40 21,74 62,103 41,29 95,44 162,44 32,0 58,-8 78,-24 20,-16 30,-35 30,-59 0,-14 -6,-25 -16,-33 -11,-9 -22,-13 -32,-13 -12,0 -22,3 -29,11 -7,7 -10,17 -10,29 0,6 2,14 7,24 5,10 8,18 8,24 0,13 -13,20 -37,20 -36,0 -68,-10 -97,-30 -30,-20 -44,-51 -44,-92 0,-18 6,-31 20,-40 14,-9 32,-13 54,-13 2,0 9,1 21,3 12,2 22,4 32,4 9,0 17,-2 24,-6 6,-4 10,-9 10,-15 0,-18 -15,-27 -45,-27 -6,0 -14,1 -22,4 -9,3 -17,5 -24,5 -30,0 -59,-10 -87,-28 -28,-19 -42,-45 -42,-79 0,-28 8,-49 26,-62 17,-13 38,-19 63,-19 58,0 109,24 155,73"
                 style="fill:#000000;fill-opacity:1;fill-rule:nonzero;stroke:none"
                 id="path5897" /></g></g></g></g><path
         d="m 202.46172,168.85937 16.8,0"
         style="fill:none;stroke:#000000;stroke-opacity:1;stroke-width:1;stroke-linecap:butt;stroke-linejoin:round;stroke-miterlimit:10;stroke-dasharray:6,6;stroke-dashoffset:0"
         id="path5899" /><g
         id="g5901"
         transform="translate(232.46172,164.65937)"><text
           transform="matrix(1,0,0,-1,7.0607849,0.890625)"
           id="text5903"><tspan
             style="fill:#000000;fill-opacity:1;fill-rule:nonzero;stroke:none;font-family:STIXGeneral;font-variant:normal;font-weight:normal;font-size:12;writing-mode:lr;-inkscape-font-specification:STIXGeneral-Regular"
             x="0 8.79529724"
             y="0"
             sodipodi:role="line"
             id="tspan5905">=4</tspan></text>
<g
           id="g5907"
           transform="matrix(0.012,0,0,0.012,0,0.890625)"><g
             id="g5909"><g
               id="g5911"
               clip-path="url(#clipPath5913)"><path
                 d="M 360,98 376,88 C 324,22 257,-10 177,-10 79,-10 30,26 30,100 c 0,30 11,57 33,81 22,24 49,40 83,49 -17,2 -30,10 -39,22 -10,12 -14,26 -14,42 0,40 21,74 62,103 41,29 95,44 162,44 32,0 58,-8 78,-24 20,-16 30,-35 30,-59 0,-14 -6,-25 -16,-33 -11,-9 -22,-13 -32,-13 -12,0 -22,3 -29,11 -7,7 -10,17 -10,29 0,6 2,14 7,24 5,10 8,18 8,24 0,13 -13,20 -37,20 -36,0 -68,-10 -97,-30 -30,-20 -44,-51 -44,-92 0,-18 6,-31 20,-40 14,-9 32,-13 54,-13 2,0 9,1 21,3 12,2 22,4 32,4 9,0 17,-2 24,-6 6,-4 10,-9 10,-15 0,-18 -15,-27 -45,-27 -6,0 -14,1 -22,4 -9,3 -17,5 -24,5 -30,0 -59,-10 -87,-28 -28,-19 -42,-45 -42,-79 0,-28 8,-49 26,-62 17,-13 38,-19 63,-19 58,0 109,24 155,73"
                 style="fill:#000000;fill-opacity:1;fill-rule:nonzero;stroke:none"
                 id="path5917" /></g></g></g></g><path
         d="m 282.06172,185.86875 16.8,0"
         style="fill:none;stroke:#808080;stroke-opacity:1;stroke-width:1;stroke-linecap:square;stroke-linejoin:round;stroke-miterlimit:10;stroke-dasharray:none"
         id="path5919" /><g
         id="g5921"
         transform="translate(312.06172,181.66875)"><text
           transform="matrix(1,0,0,-1,7.0607849,0.75)"
           id="text5923"><tspan
             style="fill:#000000;fill-opacity:1;fill-rule:nonzero;stroke:none;font-family:STIXGeneral;font-variant:normal;font-weight:normal;font-size:12;writing-mode:lr;-inkscape-font-specification:STIXGeneral-Regular"
             x="0 8.79529724"
             y="0"
             sodipodi:role="line"
             id="tspan5925">=5</tspan></text>
<g
           id="g5927"
           transform="matrix(0.012,0,0,0.012,0,0.75)"><g
             id="g5929"><g
               id="g5931"
               clip-path="url(#clipPath5933)"><path
                 d="M 360,98 376,88 C 324,22 257,-10 177,-10 79,-10 30,26 30,100 c 0,30 11,57 33,81 22,24 49,40 83,49 -17,2 -30,10 -39,22 -10,12 -14,26 -14,42 0,40 21,74 62,103 41,29 95,44 162,44 32,0 58,-8 78,-24 20,-16 30,-35 30,-59 0,-14 -6,-25 -16,-33 -11,-9 -22,-13 -32,-13 -12,0 -22,3 -29,11 -7,7 -10,17 -10,29 0,6 2,14 7,24 5,10 8,18 8,24 0,13 -13,20 -37,20 -36,0 -68,-10 -97,-30 -30,-20 -44,-51 -44,-92 0,-18 6,-31 20,-40 14,-9 32,-13 54,-13 2,0 9,1 21,3 12,2 22,4 32,4 9,0 17,-2 24,-6 6,-4 10,-9 10,-15 0,-18 -15,-27 -45,-27 -6,0 -14,1 -22,4 -9,3 -17,5 -24,5 -30,0 -59,-10 -87,-28 -28,-19 -42,-45 -42,-79 0,-28 8,-49 26,-62 17,-13 38,-19 63,-19 58,0 109,24 155,73"
                 style="fill:#000000;fill-opacity:1;fill-rule:nonzero;stroke:none"
                 id="path5937" /></g></g></g></g><path
         d="m 282.06172,168.85937 16.8,0"
         style="fill:none;stroke:#808080;stroke-opacity:1;stroke-width:1;stroke-linecap:butt;stroke-linejoin:round;stroke-miterlimit:10;stroke-dasharray:6,6;stroke-dashoffset:0"
         id="path5939" /><g
         id="g5941"
         transform="translate(312.06172,164.65937)"><text
           transform="matrix(1,0,0,-1,7.0607849,0.796875)"
           id="text5943"><tspan
             style="fill:#000000;fill-opacity:1;fill-rule:nonzero;stroke:none;font-family:STIXGeneral;font-variant:normal;font-weight:normal;font-size:12;writing-mode:lr;-inkscape-font-specification:STIXGeneral-Regular"
             x="0 8.79529724"
             y="0"
             sodipodi:role="line"
             id="tspan5945">=6</tspan></text>
<g
           id="g5947"
           transform="matrix(0.012,0,0,0.012,0,0.796875)"><g
             id="g5949"><g
               id="g5951"
               clip-path="url(#clipPath5953)"><path
                 d="M 360,98 376,88 C 324,22 257,-10 177,-10 79,-10 30,26 30,100 c 0,30 11,57 33,81 22,24 49,40 83,49 -17,2 -30,10 -39,22 -10,12 -14,26 -14,42 0,40 21,74 62,103 41,29 95,44 162,44 32,0 58,-8 78,-24 20,-16 30,-35 30,-59 0,-14 -6,-25 -16,-33 -11,-9 -22,-13 -32,-13 -12,0 -22,3 -29,11 -7,7 -10,17 -10,29 0,6 2,14 7,24 5,10 8,18 8,24 0,13 -13,20 -37,20 -36,0 -68,-10 -97,-30 -30,-20 -44,-51 -44,-92 0,-18 6,-31 20,-40 14,-9 32,-13 54,-13 2,0 9,1 21,3 12,2 22,4 32,4 9,0 17,-2 24,-6 6,-4 10,-9 10,-15 0,-18 -15,-27 -45,-27 -6,0 -14,1 -22,4 -9,3 -17,5 -24,5 -30,0 -59,-10 -87,-28 -28,-19 -42,-45 -42,-79 0,-28 8,-49 26,-62 17,-13 38,-19 63,-19 58,0 109,24 155,73"
                 style="fill:#000000;fill-opacity:1;fill-rule:nonzero;stroke:none"
                 id="path5957" /></g></g></g></g></g></g></svg>