<?xml version="1.0" encoding="UTF-8" standalone="no"?>
<!-- Created with Inkscape (http://www.inkscape.org/) -->

<svg
   xmlns:dc="http://purl.org/dc/elements/1.1/"
   xmlns:cc="http://creativecommons.org/ns#"
   xmlns:rdf="http://www.w3.org/1999/02/22-rdf-syntax-ns#"
   xmlns:svg="http://www.w3.org/2000/svg"
   xmlns="http://www.w3.org/2000/svg"
   xmlns:sodipodi="http://sodipodi.sourceforge.net/DTD/sodipodi-0.dtd"
   xmlns:inkscape="http://www.inkscape.org/namespaces/inkscape"
   id="svg5137"
   version="1.1"
   inkscape:version="0.48.4 r9939"
   width="450"
   height="270"
   xml:space="preserve"
   sodipodi:docname="nodef-dbscan-cos15.pdf"><metadata
     id="metadata5143"><rdf:RDF><cc:Work
         rdf:about=""><dc:format>image/svg+xml</dc:format><dc:type
           rdf:resource="http://purl.org/dc/dcmitype/StillImage" /><dc:title></dc:title></cc:Work></rdf:RDF></metadata><defs
     id="defs5141"><clipPath
       clipPathUnits="userSpaceOnUse"
       id="clipPath5165"><path
         d="m -970,-305 2399,0 0,1328 -2399,0 0,-1328 z"
         id="path5167" /></clipPath><clipPath
       clipPathUnits="userSpaceOnUse"
       id="clipPath5379"><path
         d="m 10.8,10.8 338.4,0 0,194.4 -338.4,0 0,-194.4 z"
         id="path5381" /></clipPath></defs><sodipodi:namedview
     pagecolor="#ffffff"
     bordercolor="#666666"
     borderopacity="1"
     objecttolerance="10"
     gridtolerance="10"
     guidetolerance="10"
     inkscape:pageopacity="0"
     inkscape:pageshadow="2"
     inkscape:window-width="1366"
     inkscape:window-height="716"
     id="namedview5139"
     showgrid="false"
     inkscape:zoom="0.81777778"
     inkscape:cx="225"
     inkscape:cy="115.77381"
     inkscape:window-x="-8"
     inkscape:window-y="-8"
     inkscape:window-maximized="1"
     inkscape:current-layer="g5145" /><g
     id="g5145"
     inkscape:groupmode="layer"
     inkscape:label="nodef-dbscan-cos15"
     transform="matrix(1.25,0,0,-1.25,0,270)"><path
       d="M 0,0 360,0 360,216 0,216 0,0 z"
       style="fill:#ffffff;fill-opacity:1;fill-rule:nonzero;stroke:none"
       id="path5147" /><path
       d="m 132.07477,113.54486 167.98698,-22.684263 7.808,83.329983 -179.24911,21.942"
       style="fill:#f2f2f2;fill-opacity:0.5;fill-rule:nonzero;stroke:#f2f2f2;stroke-opacity:0.5;stroke-width:1;stroke-linecap:butt;stroke-linejoin:miter;stroke-miterlimit:10;stroke-dasharray:none"
       id="path5149" /><path
       d="M 132.07477,113.54486 63.628845,48.27634 55.038337,132.79747 128.62064,196.13258"
       style="fill:#e6e6e6;fill-opacity:0.5;fill-rule:nonzero;stroke:#e6e6e6;stroke-opacity:0.5;stroke-width:1;stroke-linecap:butt;stroke-linejoin:miter;stroke-miterlimit:10;stroke-dasharray:none"
       id="path5151" /><path
       d="M 132.07477,113.54486 63.628845,48.27634 242.537,22.047219 300.06175,90.860597"
       style="fill:#ececec;fill-opacity:0.5;fill-rule:nonzero;stroke:#ececec;stroke-opacity:0.5;stroke-width:1;stroke-linecap:butt;stroke-linejoin:miter;stroke-miterlimit:10;stroke-dasharray:none"
       id="path5153" /><path
       d="M 300.06175,90.860597 242.537,22.047219"
       style="fill:none;stroke:#000000;stroke-opacity:1;stroke-width:0.75;stroke-linecap:square;stroke-linejoin:round;stroke-miterlimit:10;stroke-dasharray:none"
       id="path5155" /><g
       id="g5157"
       transform="matrix(0.64136979,0.7672319,-0.7672319,0.64136979,294.50498,40.407954)"><g
         id="g5159"
         transform="matrix(0.012,0,0,0.012,0,0.703125)"><g
           id="g5161"><g
             id="g5163"
             clip-path="url(#clipPath5165)"><path
               d="M 360,98 376,88 C 324,22 257,-10 177,-10 79,-10 30,26 30,100 c 0,30 11,57 33,81 22,24 49,40 83,49 -17,2 -30,10 -39,22 -10,12 -14,26 -14,42 0,40 21,74 62,103 41,29 95,44 162,44 32,0 58,-8 78,-24 20,-16 30,-35 30,-59 0,-14 -6,-25 -16,-33 -11,-9 -22,-13 -32,-13 -12,0 -22,3 -29,11 -7,7 -10,17 -10,29 0,6 2,14 7,24 5,10 8,18 8,24 0,13 -13,20 -37,20 -36,0 -68,-10 -97,-30 -30,-20 -44,-51 -44,-92 0,-18 6,-31 20,-40 14,-9 32,-13 54,-13 2,0 9,1 21,3 12,2 22,4 32,4 9,0 17,-2 24,-6 6,-4 10,-9 10,-15 0,-18 -15,-27 -45,-27 -6,0 -14,1 -22,4 -9,3 -17,5 -24,5 -30,0 -59,-10 -87,-28 -28,-19 -42,-45 -42,-79 0,-28 8,-49 26,-62 17,-13 38,-19 63,-19 58,0 109,24 155,73"
               style="fill:#000000;fill-opacity:1;fill-rule:nonzero;stroke:none"
               id="path5169" /></g></g></g></g><path
       d="m 298.99133,89.580117 -168.19261,22.747933 -3.5433,82.62943"
       style="fill:none;stroke:#e6e6e6;stroke-opacity:1;stroke-width:1;stroke-linecap:butt;stroke-linejoin:round;stroke-miterlimit:10;stroke-dasharray:none"
       id="path5171" /><path
       d="m 291.56857,80.700722 -169.61596,23.191868 -4.16838,82.91267"
       style="fill:none;stroke:#e6e6e6;stroke-opacity:1;stroke-width:1;stroke-linecap:butt;stroke-linejoin:round;stroke-miterlimit:10;stroke-dasharray:none"
       id="path5173" /><path
       d="M 283.99835,71.644924 112.93526,95.293845 108.11738,178.48464"
       style="fill:none;stroke:#e6e6e6;stroke-opacity:1;stroke-width:1;stroke-linecap:butt;stroke-linejoin:round;stroke-miterlimit:10;stroke-dasharray:none"
       id="path5175" /><path
       d="M 276.27623,62.407413 103.74166,86.527036 98.248743,169.99032"
       style="fill:none;stroke:#e6e6e6;stroke-opacity:1;stroke-width:1;stroke-linecap:butt;stroke-linejoin:round;stroke-miterlimit:10;stroke-dasharray:none"
       id="path5177" /><path
       d="M 268.39758,52.982665 94.366602,77.587185 88.171943,161.31684"
       style="fill:none;stroke:#e6e6e6;stroke-opacity:1;stroke-width:1;stroke-linecap:butt;stroke-linejoin:round;stroke-miterlimit:10;stroke-dasharray:none"
       id="path5179" /><path
       d="M 260.35761,43.364928 84.804647,68.469116 77.880318,152.45844"
       style="fill:none;stroke:#e6e6e6;stroke-opacity:1;stroke-width:1;stroke-linecap:butt;stroke-linejoin:round;stroke-miterlimit:10;stroke-dasharray:none"
       id="path5181" /><path
       d="M 252.15129,33.548213 75.050155,59.167448 67.366926,143.40916"
       style="fill:none;stroke:#e6e6e6;stroke-opacity:1;stroke-width:1;stroke-linecap:butt;stroke-linejoin:round;stroke-miterlimit:10;stroke-dasharray:none"
       id="path5183" /><path
       d="M 243.77343,23.526282 65.09725,49.676579 56.62452,134.16276"
       style="fill:none;stroke:#e6e6e6;stroke-opacity:1;stroke-width:1;stroke-linecap:butt;stroke-linejoin:round;stroke-miterlimit:10;stroke-dasharray:none"
       id="path5185" /><path
       d="m 297.61129,89.766765 4.14183,-0.560178"
       style="fill:none;stroke:#000000;stroke-opacity:1;stroke-width:1;stroke-linecap:square;stroke-linejoin:round;stroke-miterlimit:10;stroke-dasharray:none"
       id="path5187" /><text
       transform="matrix(1,0,0,-1,306.27469,77.084475)"
       id="text5189"><tspan
         style="fill:#000000;fill-opacity:1;fill-rule:nonzero;stroke:none;font-family:STIXGeneral;font-variant:normal;font-weight:normal;font-size:10;writing-mode:lr;-inkscape-font-specification:STIXGeneral-Regular"
         x="0"
         y="0"
         id="tspan5191">3</tspan></text>
<path
       d="m 290.17652,80.89106 4.17791,-0.571253"
       style="fill:none;stroke:#000000;stroke-opacity:1;stroke-width:1;stroke-linecap:square;stroke-linejoin:round;stroke-miterlimit:10;stroke-dasharray:none"
       id="path5193" /><text
       transform="matrix(1,0,0,-1,298.60676,68.16828)"
       id="text5195"><tspan
         style="fill:#000000;fill-opacity:1;fill-rule:nonzero;stroke:none;font-family:STIXGeneral;font-variant:normal;font-weight:normal;font-size:10;writing-mode:lr;-inkscape-font-specification:STIXGeneral-Regular"
         x="0"
         y="0"
         id="tspan5197">4</tspan></text>
<path
       d="m 282.59407,71.839062 4.21463,-0.58266"
       style="fill:none;stroke:#000000;stroke-opacity:1;stroke-width:1;stroke-linecap:square;stroke-linejoin:round;stroke-miterlimit:10;stroke-dasharray:none"
       id="path5199" /><text
       transform="matrix(1,0,0,-1,291.41879,59.075329)"
       id="text5201"><tspan
         style="fill:#000000;fill-opacity:1;fill-rule:nonzero;stroke:none;font-family:STIXGeneral;font-variant:normal;font-weight:normal;font-size:10;writing-mode:lr;-inkscape-font-specification:STIXGeneral-Regular"
         x="0"
         y="0"
         id="tspan5203">5</tspan></text>
<path
       d="m 274.8595,62.605466 4.25199,-0.594411"
       style="fill:none;stroke:#000000;stroke-opacity:1;stroke-width:1;stroke-linecap:square;stroke-linejoin:round;stroke-miterlimit:10;stroke-dasharray:none"
       id="path5205" /><text
       transform="matrix(1,0,0,-1,283.66736,49.800314)"
       id="text5207"><tspan
         style="fill:#000000;fill-opacity:1;fill-rule:nonzero;stroke:none;font-family:STIXGeneral;font-variant:normal;font-weight:normal;font-size:10;writing-mode:lr;-inkscape-font-specification:STIXGeneral-Regular"
         x="0"
         y="0"
         id="tspan5209">6</tspan></text>
<path
       d="M 266.96819,53.184752 271.2582,52.57823"
       style="fill:none;stroke:#000000;stroke-opacity:1;stroke-width:1;stroke-linecap:square;stroke-linejoin:round;stroke-miterlimit:10;stroke-dasharray:none"
       id="path5211" /><text
       transform="matrix(1,0,0,-1,275.93388,40.337713)"
       id="text5213"><tspan
         style="fill:#000000;fill-opacity:1;fill-rule:nonzero;stroke:none;font-family:STIXGeneral;font-variant:normal;font-weight:normal;font-size:10;writing-mode:lr;-inkscape-font-specification:STIXGeneral-Regular"
         x="0"
         y="0"
         id="tspan5215">7</tspan></text>
<path
       d="m 258.91533,43.571174 4.3287,-0.619007"
       style="fill:none;stroke:#000000;stroke-opacity:1;stroke-width:1;stroke-linecap:square;stroke-linejoin:round;stroke-miterlimit:10;stroke-dasharray:none"
       id="path5217" /><text
       transform="matrix(1,0,0,-1,268.20582,30.681775)"
       id="text5219"><tspan
         style="fill:#000000;fill-opacity:1;fill-rule:nonzero;stroke:none;font-family:STIXGeneral;font-variant:normal;font-weight:normal;font-size:10;writing-mode:lr;-inkscape-font-specification:STIXGeneral-Regular"
         x="0"
         y="0"
         id="tspan5221">8</tspan></text>
<path
       d="m 250.69591,33.758748 4.36807,-0.631881"
       style="fill:none;stroke:#000000;stroke-opacity:1;stroke-width:1;stroke-linecap:square;stroke-linejoin:round;stroke-miterlimit:10;stroke-dasharray:none"
       id="path5223" /><text
       transform="matrix(1,0,0,-1,259.91575,20.826515)"
       id="text5225"><tspan
         style="fill:#000000;fill-opacity:1;fill-rule:nonzero;stroke:none;font-family:STIXGeneral;font-variant:normal;font-weight:normal;font-size:10;writing-mode:lr;-inkscape-font-specification:STIXGeneral-Regular"
         x="0"
         y="0"
         id="tspan5227">9</tspan></text>
<path
       d="m 242.3047,23.74124 4.40816,-0.64516"
       style="fill:none;stroke:#000000;stroke-opacity:1;stroke-width:1;stroke-linecap:square;stroke-linejoin:round;stroke-miterlimit:10;stroke-dasharray:none"
       id="path5229" /><text
       transform="matrix(1,0,0,-1,249.48046,10.765696)"
       id="text5231"><tspan
         style="fill:#000000;fill-opacity:1;fill-rule:nonzero;stroke:none;font-family:STIXGeneral;font-variant:normal;font-weight:normal;font-size:10;writing-mode:lr;-inkscape-font-specification:STIXGeneral-Regular"
         x="0 5"
         y="0"
         sodipodi:role="line"
         id="tspan5233">10</tspan></text>
<path
       d="M 63.628845,48.27634 242.537,22.047219"
       style="fill:none;stroke:#000000;stroke-opacity:1;stroke-width:0.75;stroke-linecap:square;stroke-linejoin:round;stroke-miterlimit:10;stroke-dasharray:none"
       id="path5235" /><text
       transform="matrix(0.98942344,-0.14505603,-0.14505603,-0.98942344,126.17513,15.675036)"
       id="text5237"><tspan
         style="fill:#000000;fill-opacity:1;fill-rule:nonzero;stroke:none;font-family:STIXGeneral;font-variant:normal;font-weight:normal;font-size:12;writing-mode:lr;-inkscape-font-specification:STIXGeneral-Regular"
         x="0 10.668 14.004 20.004 26.688 30.024"
         y="0"
         sodipodi:role="line"
         id="tspan5239">MinPts</tspan></text>
<path
       d="M 132.11135,195.70528 135.35162,113.10237 67.112168,47.765662"
       style="fill:none;stroke:#e6e6e6;stroke-opacity:1;stroke-width:1;stroke-linecap:butt;stroke-linejoin:round;stroke-miterlimit:10;stroke-dasharray:none"
       id="path5241" /><path
       d="M 156.14896,192.76282 157.91064,110.05609 91.099707,44.24893"
       style="fill:none;stroke:#e6e6e6;stroke-opacity:1;stroke-width:1;stroke-linecap:butt;stroke-linejoin:round;stroke-miterlimit:10;stroke-dasharray:none"
       id="path5243" /><path
       d="m 180.36479,189.79855 0.26173,-82.80992 -65.36,-66.282715"
       style="fill:none;stroke:#e6e6e6;stroke-opacity:1;stroke-width:1;stroke-linecap:butt;stroke-linejoin:round;stroke-miterlimit:10;stroke-dasharray:none"
       id="path5245" /><path
       d="M 204.76084,186.81221 203.50089,103.89977 139.61464,37.13632"
       style="fill:none;stroke:#e6e6e6;stroke-opacity:1;stroke-width:1;stroke-linecap:butt;stroke-linejoin:round;stroke-miterlimit:10;stroke-dasharray:none"
       id="path5247" /><path
       d="M 229.33912,183.80357 226.53544,100.78928 164.14609,33.539846"
       style="fill:none;stroke:#e6e6e6;stroke-opacity:1;stroke-width:1;stroke-linecap:butt;stroke-linejoin:round;stroke-miterlimit:10;stroke-dasharray:none"
       id="path5249" /><path
       d="M 254.10168,180.77237 249.73184,97.656939 188.86297,29.916188"
       style="fill:none;stroke:#e6e6e6;stroke-opacity:1;stroke-width:1;stroke-linecap:butt;stroke-linejoin:round;stroke-miterlimit:10;stroke-dasharray:none"
       id="path5251" /><path
       d="M 279.0506,177.71835 273.0918,94.502507 213.76739,26.265036"
       style="fill:none;stroke:#e6e6e6;stroke-opacity:1;stroke-width:1;stroke-linecap:butt;stroke-linejoin:round;stroke-miterlimit:10;stroke-dasharray:none"
       id="path5253" /><path
       d="M 304.188,174.64127 296.61707,91.325753 238.86147,22.586076"
       style="fill:none;stroke:#e6e6e6;stroke-opacity:1;stroke-width:1;stroke-linecap:butt;stroke-linejoin:round;stroke-miterlimit:10;stroke-dasharray:none"
       id="path5255" /><path
       d="M 67.698302,48.326863 65.937808,46.641257"
       style="fill:none;stroke:#000000;stroke-opacity:1;stroke-width:1;stroke-linecap:square;stroke-linejoin:round;stroke-miterlimit:10;stroke-dasharray:none"
       id="path5257" /><text
       transform="matrix(1,0,0,-1,61.488499,32.583296)"
       id="text5259"><tspan
         style="fill:#000000;fill-opacity:1;fill-rule:nonzero;stroke:none;font-family:STIXGeneral;font-variant:normal;font-weight:normal;font-size:10;writing-mode:lr;-inkscape-font-specification:STIXGeneral-Regular"
         x="0"
         y="0"
         id="tspan5261">3</tspan></text>
<path
       d="M 91.673717,44.814316 89.949629,43.116132"
       style="fill:none;stroke:#000000;stroke-opacity:1;stroke-width:1;stroke-linecap:square;stroke-linejoin:round;stroke-miterlimit:10;stroke-dasharray:none"
       id="path5263" /><text
       transform="matrix(1,0,0,-1,85.121534,29.033874)"
       id="text5265"><tspan
         style="fill:#000000;fill-opacity:1;fill-rule:nonzero;stroke:none;font-family:STIXGeneral;font-variant:normal;font-weight:normal;font-size:10;writing-mode:lr;-inkscape-font-specification:STIXGeneral-Regular"
         x="0"
         y="0"
         id="tspan5267">4</tspan></text>
<path
       d="m 115.82821,41.275533 -1.68708,-1.710904"
       style="fill:none;stroke:#000000;stroke-opacity:1;stroke-width:1;stroke-linecap:square;stroke-linejoin:round;stroke-miterlimit:10;stroke-dasharray:none"
       id="path5269" /><text
       transform="matrix(1,0,0,-1,109.55891,25.457912)"
       id="text5271"><tspan
         style="fill:#000000;fill-opacity:1;fill-rule:nonzero;stroke:none;font-family:STIXGeneral;font-variant:normal;font-weight:normal;font-size:10;writing-mode:lr;-inkscape-font-specification:STIXGeneral-Regular"
         x="0"
         y="0"
         id="tspan5273">5</tspan></text>
<path
       d="m 140.1638,37.710218 -1.64948,-1.723767"
       style="fill:none;stroke:#000000;stroke-opacity:1;stroke-width:1;stroke-linecap:square;stroke-linejoin:round;stroke-miterlimit:10;stroke-dasharray:none"
       id="path5275" /><text
       transform="matrix(1,0,0,-1,133.76357,21.855112)"
       id="text5277"><tspan
         style="fill:#000000;fill-opacity:1;fill-rule:nonzero;stroke:none;font-family:STIXGeneral;font-variant:normal;font-weight:normal;font-size:10;writing-mode:lr;-inkscape-font-specification:STIXGeneral-Regular"
         x="0"
         y="0"
         id="tspan5279">6</tspan></text>
<path
       d="m 164.68253,34.118072 -1.61126,-1.736775"
       style="fill:none;stroke:#000000;stroke-opacity:1;stroke-width:1;stroke-linecap:square;stroke-linejoin:round;stroke-miterlimit:10;stroke-dasharray:none"
       id="path5281" /><text
       transform="matrix(1,0,0,-1,158.32352,18.22517)"
       id="text5283"><tspan
         style="fill:#000000;fill-opacity:1;fill-rule:nonzero;stroke:none;font-family:STIXGeneral;font-variant:normal;font-weight:normal;font-size:10;writing-mode:lr;-inkscape-font-specification:STIXGeneral-Regular"
         x="0"
         y="0"
         id="tspan5285">7</tspan></text>
<path
       d="M 189.38648,30.498792 187.81406,28.74886"
       style="fill:none;stroke:#000000;stroke-opacity:1;stroke-width:1;stroke-linecap:square;stroke-linejoin:round;stroke-miterlimit:10;stroke-dasharray:none"
       id="path5287" /><text
       transform="matrix(1,0,0,-1,183.23301,14.567779)"
       id="text5289"><tspan
         style="fill:#000000;fill-opacity:1;fill-rule:nonzero;stroke:none;font-family:STIXGeneral;font-variant:normal;font-weight:normal;font-size:10;writing-mode:lr;-inkscape-font-specification:STIXGeneral-Regular"
         x="0"
         y="0"
         id="tspan5291">8</tspan></text>
<path
       d="m 214.27774,26.852067 -1.53293,-1.763238"
       style="fill:none;stroke:#000000;stroke-opacity:1;stroke-width:1;stroke-linecap:square;stroke-linejoin:round;stroke-miterlimit:10;stroke-dasharray:none"
       id="path5293" /><text
       transform="matrix(1,0,0,-1,207.93166,10.882626)"
       id="text5295"><tspan
         style="fill:#000000;fill-opacity:1;fill-rule:nonzero;stroke:none;font-family:STIXGeneral;font-variant:normal;font-weight:normal;font-size:10;writing-mode:lr;-inkscape-font-specification:STIXGeneral-Regular"
         x="0"
         y="0"
         id="tspan5297">9</tspan></text>
<path
       d="m 239.35846,23.177586 -1.49279,-1.776697"
       style="fill:none;stroke:#000000;stroke-opacity:1;stroke-width:1;stroke-linecap:square;stroke-linejoin:round;stroke-miterlimit:10;stroke-dasharray:none"
       id="path5299" /><text
       transform="matrix(1,0,0,-1,230.8435,7.1693927)"
       id="text5301"><tspan
         style="fill:#000000;fill-opacity:1;fill-rule:nonzero;stroke:none;font-family:STIXGeneral;font-variant:normal;font-weight:normal;font-size:10;writing-mode:lr;-inkscape-font-specification:STIXGeneral-Regular"
         x="0 5"
         y="0"
         sodipodi:role="line"
         id="tspan5303">10</tspan></text>
<path
       d="m 63.628845,48.27634 -8.590508,84.52113"
       style="fill:none;stroke:#000000;stroke-opacity:1;stroke-width:0.75;stroke-linecap:square;stroke-linejoin:round;stroke-miterlimit:10;stroke-dasharray:none"
       id="path5305" /><text
       transform="matrix(0.10111647,-0.99487459,-0.99487459,-0.10111647,19.716443,122.17695)"
       id="text5307"><tspan
         style="fill:#000000;fill-opacity:1;fill-rule:nonzero;stroke:none;font-family:STIXGeneral;font-variant:normal;font-weight:normal;font-size:12;writing-mode:lr;-inkscape-font-specification:STIXGeneral-Regular"
         x="0 6 12 15 18 24 30 33.996 39.324 42.324 47.652 50.988 56.988 61.656 64.992 70.32 74.316"
         y="0"
         sodipodi:role="line"
         id="tspan5309">no. pure clusters</tspan></text>
<path
       d="M 63.468216,49.856753 132.00987,115.09656 300.20821,92.423636"
       style="fill:none;stroke:#e6e6e6;stroke-opacity:1;stroke-width:1;stroke-linecap:butt;stroke-linejoin:round;stroke-miterlimit:10;stroke-dasharray:none"
       id="path5311" /><path
       d="M 62.35516,60.807998 131.5605,125.84103 301.22258,103.24935"
       style="fill:none;stroke:#e6e6e6;stroke-opacity:1;stroke-width:1;stroke-linecap:butt;stroke-linejoin:round;stroke-miterlimit:10;stroke-dasharray:none"
       id="path5313" /><path
       d="M 61.221454,71.962413 131.10337,136.77081 302.2549,114.26667"
       style="fill:none;stroke:#e6e6e6;stroke-opacity:1;stroke-width:1;stroke-linecap:butt;stroke-linejoin:round;stroke-miterlimit:10;stroke-dasharray:none"
       id="path5315" /><path
       d="M 60.066519,83.325705 130.6383,147.89071 303.30565,125.48073"
       style="fill:none;stroke:#e6e6e6;stroke-opacity:1;stroke-width:1;stroke-linecap:butt;stroke-linejoin:round;stroke-miterlimit:10;stroke-dasharray:none"
       id="path5317" /><path
       d="m 58.889752,94.903796 71.275308,64.301954 174.21028,-22.3089"
       style="fill:none;stroke:#e6e6e6;stroke-opacity:1;stroke-width:1;stroke-linecap:butt;stroke-linejoin:round;stroke-miterlimit:10;stroke-dasharray:none"
       id="path5319" /><path
       d="m 57.690528,106.70283 71.992912,64.01829 175.78103,-22.20057"
       style="fill:none;stroke:#e6e6e6;stroke-opacity:1;stroke-width:1;stroke-linecap:butt;stroke-linejoin:round;stroke-miterlimit:10;stroke-dasharray:none"
       id="path5321" /><path
       d="M 56.468199,118.72921 129.19323,182.44217 306.5736,160.35752"
       style="fill:none;stroke:#e6e6e6;stroke-opacity:1;stroke-width:1;stroke-linecap:butt;stroke-linejoin:round;stroke-miterlimit:10;stroke-dasharray:none"
       id="path5323" /><path
       d="m 55.22209,130.98955 73.47208,63.38492 179.00909,-21.96076"
       style="fill:none;stroke:#e6e6e6;stroke-opacity:1;stroke-width:1;stroke-linecap:butt;stroke-linejoin:round;stroke-miterlimit:10;stroke-dasharray:none"
       id="path5325" /><path
       d="M 64.056977,50.417152 62.28859,48.733953"
       style="fill:none;stroke:#000000;stroke-opacity:1;stroke-width:1;stroke-linecap:square;stroke-linejoin:round;stroke-miterlimit:10;stroke-dasharray:none"
       id="path5327" /><text
       transform="matrix(1,0,0,-1,44.812453,40.525502)"
       id="text5329"><tspan
         style="fill:#000000;fill-opacity:1;fill-rule:nonzero;stroke:none;font-family:STIXGeneral;font-variant:normal;font-weight:normal;font-size:10;writing-mode:lr;-inkscape-font-specification:STIXGeneral-Regular"
         x="0 5"
         y="0"
         sodipodi:role="line"
         id="tspan5331">20</tspan></text>
<path
       d="m 62.949997,61.366973 -1.786656,-1.67894"
       style="fill:none;stroke:#000000;stroke-opacity:1;stroke-width:1;stroke-linecap:square;stroke-linejoin:round;stroke-miterlimit:10;stroke-dasharray:none"
       id="path5333" /><text
       transform="matrix(1,0,0,-1,43.622809,51.483032)"
       id="text5335"><tspan
         style="fill:#000000;fill-opacity:1;fill-rule:nonzero;stroke:none;font-family:STIXGeneral;font-variant:normal;font-weight:normal;font-size:10;writing-mode:lr;-inkscape-font-specification:STIXGeneral-Regular"
         x="0 5"
         y="0"
         sodipodi:role="line"
         id="tspan5337">30</tspan></text>
<path
       d="M 61.822492,72.519815 60.017191,70.845581"
       style="fill:none;stroke:#000000;stroke-opacity:1;stroke-width:1;stroke-linecap:square;stroke-linejoin:round;stroke-miterlimit:10;stroke-dasharray:none"
       id="path5339" /><text
       transform="matrix(1,0,0,-1,42.214704,62.644399)"
       id="text5341"><tspan
         style="fill:#000000;fill-opacity:1;fill-rule:nonzero;stroke:none;font-family:STIXGeneral;font-variant:normal;font-weight:normal;font-size:10;writing-mode:lr;-inkscape-font-specification:STIXGeneral-Regular"
         x="0 5"
         y="0"
         sodipodi:role="line"
         id="tspan5343">40</tspan></text>
<path
       d="M 60.673887,83.881376 58.849552,82.21232"
       style="fill:none;stroke:#000000;stroke-opacity:1;stroke-width:1;stroke-linecap:square;stroke-linejoin:round;stroke-miterlimit:10;stroke-dasharray:none"
       id="path5345" /><text
       transform="matrix(1,0,0,-1,41.017175,74.015343)"
       id="text5347"><tspan
         style="fill:#000000;fill-opacity:1;fill-rule:nonzero;stroke:none;font-family:STIXGeneral;font-variant:normal;font-weight:normal;font-size:10;writing-mode:lr;-inkscape-font-specification:STIXGeneral-Regular"
         x="0 5"
         y="0"
         sodipodi:role="line"
         id="tspan5349">50</tspan></text>
<path
       d="M 59.503583,95.457571 57.659813,93.79419"
       style="fill:none;stroke:#000000;stroke-opacity:1;stroke-width:1;stroke-linecap:square;stroke-linejoin:round;stroke-miterlimit:10;stroke-dasharray:none"
       id="path5351" /><text
       transform="matrix(1,0,0,-1,39.717045,85.601823)"
       id="text5353"><tspan
         style="fill:#000000;fill-opacity:1;fill-rule:nonzero;stroke:none;font-family:STIXGeneral;font-variant:normal;font-weight:normal;font-size:10;writing-mode:lr;-inkscape-font-specification:STIXGeneral-Regular"
         x="0 5"
         y="0"
         sodipodi:role="line"
         id="tspan5355">60</tspan></text>
<path
       d="m 58.31096,107.25454 -1.863618,-1.65718"
       style="fill:none;stroke:#000000;stroke-opacity:1;stroke-width:1;stroke-linecap:square;stroke-linejoin:round;stroke-miterlimit:10;stroke-dasharray:none"
       id="path5357" /><text
       transform="matrix(1,0,0,-1,38.305799,97.410027)"
       id="text5359"><tspan
         style="fill:#000000;fill-opacity:1;fill-rule:nonzero;stroke:none;font-family:STIXGeneral;font-variant:normal;font-weight:normal;font-size:10;writing-mode:lr;-inkscape-font-specification:STIXGeneral-Regular"
         x="0 5"
         y="0"
         sodipodi:role="line"
         id="tspan5361">70</tspan></text>
<path
       d="m 57.095372,119.27866 -1.883891,-1.65044"
       style="fill:none;stroke:#000000;stroke-opacity:1;stroke-width:1;stroke-linecap:square;stroke-linejoin:round;stroke-miterlimit:10;stroke-dasharray:none"
       id="path5363" /><text
       transform="matrix(1,0,0,-1,37.118644,109.44638)"
       id="text5365"><tspan
         style="fill:#000000;fill-opacity:1;fill-rule:nonzero;stroke:none;font-family:STIXGeneral;font-variant:normal;font-weight:normal;font-size:10;writing-mode:lr;-inkscape-font-specification:STIXGeneral-Regular"
         x="0 5"
         y="0"
         sodipodi:role="line"
         id="tspan5367">80</tspan></text>
<path
       d="m 55.856151,131.53656 -1.904605,-1.64312"
       style="fill:none;stroke:#000000;stroke-opacity:1;stroke-width:1;stroke-linecap:square;stroke-linejoin:round;stroke-miterlimit:10;stroke-dasharray:none"
       id="path5369" /><text
       transform="matrix(1,0,0,-1,35.592322,121.71756)"
       id="text5371"><tspan
         style="fill:#000000;fill-opacity:1;fill-rule:nonzero;stroke:none;font-family:STIXGeneral;font-variant:normal;font-weight:normal;font-size:10;writing-mode:lr;-inkscape-font-specification:STIXGeneral-Regular"
         x="0 5"
         y="0"
         sodipodi:role="line"
         id="tspan5373">90</tspan></text>
<g
       id="g5375"><g
         id="g5377"
         clip-path="url(#clipPath5379)"><path
           d="m 132.23909,157.57413 -9.1621,-8.30054 -9.21929,-10.76342 -9.58984,-7.49583 L 94.710605,119.88742 84.991519,108.57209 75.309303,94.768 65.051112,85.356699"
           style="fill:none;stroke:#000000;stroke-opacity:1;stroke-width:1;stroke-linecap:butt;stroke-linejoin:round;stroke-miterlimit:10;stroke-dasharray:none"
           id="path5383" /><path
           d="m 155.2828,170.78391 -9.00955,-10.65186 -9.33315,-6.12252 -9.1414,-15.71969 -9.71843,-6.49423 -9.81597,-9.0288 -10.024122,-9.22026 -9.962529,-12.98413"
           style="fill:none;stroke:#000000;stroke-opacity:1;stroke-width:1;stroke-linecap:butt;stroke-linejoin:round;stroke-miterlimit:10;stroke-dasharray:none"
           id="path5385" /><path
           d="m 179.08296,184.42733 -8.90548,-15.51345 -9.09803,-9.69892 -9.14918,-14.6656 -9.33303,-12.46189 -9.47696,-12.65408 -9.22171,-21.077499 -9.77377,-11.863987"
           style="fill:none;stroke:#000000;stroke-opacity:1;stroke-width:1;stroke-linecap:butt;stroke-linejoin:round;stroke-miterlimit:10;stroke-dasharray:none"
           id="path5387" /><path
           d="m 203.38224,177.81832 -8.82622,-19.1226 -8.85753,-14.50571 -8.95147,-15.84121 -9.05314,-14.83284 -9.32839,-6.86968 -9.49428,-9.392545 -9.78486,-7.236225"
           style="fill:none;stroke:#000000;stroke-opacity:1;stroke-width:1;stroke-linecap:butt;stroke-linejoin:round;stroke-miterlimit:10;stroke-dasharray:none"
           id="path5389" /><path
           d="m 228.04549,180.82189 -8.91345,-21.66504 -8.94019,-22.84459 -8.8349,-15.88 -8.91985,-16.0327 -9.01137,-10.446712 -9.15548,-14.101557 -9.37331,-8.554615"
           style="fill:none;stroke:#000000;stroke-opacity:1;stroke-width:1;stroke-linecap:butt;stroke-linejoin:round;stroke-miterlimit:10;stroke-dasharray:none"
           id="path5391" /><path
           d="m 252.0622,163.37298 -8.79142,-20.34288 -8.6738,-16.9193 -8.70272,-15.90066 -8.75619,-14.911409 -8.90106,-17.34997 -8.86038,-8.463043 -9.09802,-15.467592"
           style="fill:none;stroke:#000000;stroke-opacity:1;stroke-width:1;stroke-linecap:butt;stroke-linejoin:round;stroke-miterlimit:10;stroke-dasharray:none"
           id="path5393" /><path
           d="m 276.98729,163.86397 -9.65561,-33.30385 -8.34736,-13.46604 -8.57897,-15.9302 -8.55558,-13.815845 -8.67016,-14.000881 -8.82433,-15.313175 -8.89821,-14.376349"
           style="fill:none;stroke:#000000;stroke-opacity:1;stroke-width:1;stroke-linecap:butt;stroke-linejoin:round;stroke-miterlimit:10;stroke-dasharray:none"
           id="path5395" /><path
           d="m 300.10771,140.72124 -9.65196,-31.59219 -7.75224,-8.97126 -8.15867,-12.534635 -8.73063,-19.407511 -8.16242,-9.574377 -8.51439,-13.104284 -8.69802,-14.407837"
           style="fill:none;stroke:#000000;stroke-opacity:1;stroke-width:1;stroke-linecap:butt;stroke-linejoin:round;stroke-miterlimit:10;stroke-dasharray:none"
           id="path5397" /><path
           d="m 132.23909,157.57413 23.04371,13.20978 23.80016,13.64342 24.29928,-6.60901 24.66325,3.00357 24.01671,-17.44891 24.92509,0.49099 23.12042,-23.14273"
           style="fill:none;stroke:#000000;stroke-opacity:1;stroke-width:1;stroke-linecap:butt;stroke-linejoin:round;stroke-miterlimit:10;stroke-dasharray:none"
           id="path5399" /><path
           d="m 123.07699,149.27359 23.19626,10.85846 23.90423,8.78183 24.37854,-10.21816 24.57602,0.46113 24.13874,-16.12675 24.0609,-12.46998 23.12407,-21.43107"
           style="fill:none;stroke:#000000;stroke-opacity:1;stroke-width:1;stroke-linecap:butt;stroke-linejoin:round;stroke-miterlimit:10;stroke-dasharray:none"
           id="path5401" /><path
           d="m 113.8577,138.51017 23.0824,15.49936 24.13935,5.20543 24.61904,-15.02495 24.49336,-7.87775 24.40513,-10.20146 24.38734,-9.01672 23.71919,-16.93629"
           style="fill:none;stroke:#000000;stroke-opacity:1;stroke-width:1;stroke-linecap:butt;stroke-linejoin:round;stroke-miterlimit:10;stroke-dasharray:none"
           id="path5403" /><path
           d="m 104.26786,131.01434 23.53084,7.2755 24.13157,6.25952 24.81675,-16.20056 24.60993,-7.91654 24.53731,-10.22212 24.51109,-9.04626 24.13949,-13.540725"
           style="fill:none;stroke:#000000;stroke-opacity:1;stroke-width:1;stroke-linecap:butt;stroke-linejoin:round;stroke-miterlimit:10;stroke-dasharray:none"
           id="path5405" /><path
           d="m 94.710605,119.88742 23.369665,11.90819 24.51697,0.29186 25.09664,-18.57151 24.74322,-9.1164 24.70097,-9.100829 24.7117,-7.950696 23.96444,-19.132391"
           style="fill:none;stroke:#000000;stroke-opacity:1;stroke-width:1;stroke-linecap:butt;stroke-linejoin:round;stroke-miterlimit:10;stroke-dasharray:none"
           id="path5407" /><path
           d="m 84.991519,108.57209 23.272781,14.19472 24.85598,-3.33342 25.24521,-12.78711 25.06024,-12.693432 24.81128,-16.004087 24.9426,-4.601607 24.47218,-14.705887"
           style="fill:none;stroke:#000000;stroke-opacity:1;stroke-width:1;stroke-linecap:butt;stroke-linejoin:round;stroke-miterlimit:10;stroke-dasharray:none"
           id="path5409" /><path
           d="M 75.309303,94.768 98.240178,113.54655 123.89857,98.355891 148.87121,97.253735 174.27025,79.851291 199.37663,69.485718 224.35528,58.033979 249.1374,45.536983"
           style="fill:none;stroke:#000000;stroke-opacity:1;stroke-width:1;stroke-linecap:butt;stroke-linejoin:round;stroke-miterlimit:10;stroke-dasharray:none"
           id="path5411" /><path
           d="M 65.051112,85.356699 88.277649,100.56242 114.1248,86.491904 139.08635,90.01751 164.89694,71.296676 190.27861,54.018126 215.45707,43.65763 240.43938,31.129146"
           style="fill:none;stroke:#000000;stroke-opacity:1;stroke-width:1;stroke-linecap:butt;stroke-linejoin:round;stroke-miterlimit:10;stroke-dasharray:none"
           id="path5413" /></g></g></g></svg>