<?xml version="1.0" encoding="UTF-8" standalone="no"?>
<!-- Created with Inkscape (http://www.inkscape.org/) -->

<svg
   xmlns:dc="http://purl.org/dc/elements/1.1/"
   xmlns:cc="http://creativecommons.org/ns#"
   xmlns:rdf="http://www.w3.org/1999/02/22-rdf-syntax-ns#"
   xmlns:svg="http://www.w3.org/2000/svg"
   xmlns="http://www.w3.org/2000/svg"
   xmlns:sodipodi="http://sodipodi.sourceforge.net/DTD/sodipodi-0.dtd"
   xmlns:inkscape="http://www.inkscape.org/namespaces/inkscape"
   id="svg4859"
   version="1.1"
   inkscape:version="0.48.4 r9939"
   width="450"
   height="270"
   xml:space="preserve"
   sodipodi:docname="nodef-dbscan-cos10.pdf"><metadata
     id="metadata4865"><rdf:RDF><cc:Work
         rdf:about=""><dc:format>image/svg+xml</dc:format><dc:type
           rdf:resource="http://purl.org/dc/dcmitype/StillImage" /><dc:title></dc:title></cc:Work></rdf:RDF></metadata><defs
     id="defs4863"><clipPath
       clipPathUnits="userSpaceOnUse"
       id="clipPath4887"><path
         d="m -970,-305 2399,0 0,1328 -2399,0 0,-1328 z"
         id="path4889" /></clipPath><clipPath
       clipPathUnits="userSpaceOnUse"
       id="clipPath5101"><path
         d="m 10.8,10.8 338.4,0 0,194.4 -338.4,0 0,-194.4 z"
         id="path5103" /></clipPath></defs><sodipodi:namedview
     pagecolor="#ffffff"
     bordercolor="#666666"
     borderopacity="1"
     objecttolerance="10"
     gridtolerance="10"
     guidetolerance="10"
     inkscape:pageopacity="0"
     inkscape:pageshadow="2"
     inkscape:window-width="1366"
     inkscape:window-height="716"
     id="namedview4861"
     showgrid="false"
     inkscape:zoom="1.6355556"
     inkscape:cx="24.791163"
     inkscape:cy="162.27723"
     inkscape:window-x="-8"
     inkscape:window-y="-8"
     inkscape:window-maximized="1"
     inkscape:current-layer="g4867" /><g
     id="g4867"
     inkscape:groupmode="layer"
     inkscape:label="nodef-dbscan-cos10"
     transform="matrix(1.25,0,0,-1.25,0,270)"><path
       d="M 0,0 360,0 360,216 0,216 0,0 z"
       style="fill:#ffffff;fill-opacity:1;fill-rule:nonzero;stroke:none"
       id="path4869" /><path
       d="m 132.07477,113.54486 167.98698,-22.684263 7.808,83.329983 -179.24911,21.942"
       style="fill:#f2f2f2;fill-opacity:0.5;fill-rule:nonzero;stroke:#f2f2f2;stroke-opacity:0.5;stroke-width:1;stroke-linecap:butt;stroke-linejoin:miter;stroke-miterlimit:10;stroke-dasharray:none"
       id="path4871" /><path
       d="M 132.07477,113.54486 63.628845,48.27634 55.038337,132.79747 128.62064,196.13258"
       style="fill:#e6e6e6;fill-opacity:0.5;fill-rule:nonzero;stroke:#e6e6e6;stroke-opacity:0.5;stroke-width:1;stroke-linecap:butt;stroke-linejoin:miter;stroke-miterlimit:10;stroke-dasharray:none"
       id="path4873" /><path
       d="M 132.07477,113.54486 63.628845,48.27634 242.537,22.047219 300.06175,90.860597"
       style="fill:#ececec;fill-opacity:0.5;fill-rule:nonzero;stroke:#ececec;stroke-opacity:0.5;stroke-width:1;stroke-linecap:butt;stroke-linejoin:miter;stroke-miterlimit:10;stroke-dasharray:none"
       id="path4875" /><path
       d="M 300.06175,90.860597 242.537,22.047219"
       style="fill:none;stroke:#000000;stroke-opacity:1;stroke-width:0.75;stroke-linecap:square;stroke-linejoin:round;stroke-miterlimit:10;stroke-dasharray:none"
       id="path4877" /><g
       id="g4879"
       transform="matrix(0.64136979,0.7672319,-0.7672319,0.64136979,294.50498,40.407954)"><g
         id="g4881"
         transform="matrix(0.012,0,0,0.012,0,0.703125)"><g
           id="g4883"><g
             id="g4885"
             clip-path="url(#clipPath4887)"><path
               d="M 360,98 376,88 C 324,22 257,-10 177,-10 79,-10 30,26 30,100 c 0,30 11,57 33,81 22,24 49,40 83,49 -17,2 -30,10 -39,22 -10,12 -14,26 -14,42 0,40 21,74 62,103 41,29 95,44 162,44 32,0 58,-8 78,-24 20,-16 30,-35 30,-59 0,-14 -6,-25 -16,-33 -11,-9 -22,-13 -32,-13 -12,0 -22,3 -29,11 -7,7 -10,17 -10,29 0,6 2,14 7,24 5,10 8,18 8,24 0,13 -13,20 -37,20 -36,0 -68,-10 -97,-30 -30,-20 -44,-51 -44,-92 0,-18 6,-31 20,-40 14,-9 32,-13 54,-13 2,0 9,1 21,3 12,2 22,4 32,4 9,0 17,-2 24,-6 6,-4 10,-9 10,-15 0,-18 -15,-27 -45,-27 -6,0 -14,1 -22,4 -9,3 -17,5 -24,5 -30,0 -59,-10 -87,-28 -28,-19 -42,-45 -42,-79 0,-28 8,-49 26,-62 17,-13 38,-19 63,-19 58,0 109,24 155,73"
               style="fill:#000000;fill-opacity:1;fill-rule:nonzero;stroke:none"
               id="path4891" /></g></g></g></g><path
       d="m 298.99133,89.580117 -168.19261,22.747933 -3.5433,82.62943"
       style="fill:none;stroke:#e6e6e6;stroke-opacity:1;stroke-width:1;stroke-linecap:butt;stroke-linejoin:round;stroke-miterlimit:10;stroke-dasharray:none"
       id="path4893" /><path
       d="m 291.56857,80.700722 -169.61596,23.191868 -4.16838,82.91267"
       style="fill:none;stroke:#e6e6e6;stroke-opacity:1;stroke-width:1;stroke-linecap:butt;stroke-linejoin:round;stroke-miterlimit:10;stroke-dasharray:none"
       id="path4895" /><path
       d="M 283.99835,71.644924 112.93526,95.293845 108.11738,178.48464"
       style="fill:none;stroke:#e6e6e6;stroke-opacity:1;stroke-width:1;stroke-linecap:butt;stroke-linejoin:round;stroke-miterlimit:10;stroke-dasharray:none"
       id="path4897" /><path
       d="M 276.27623,62.407413 103.74166,86.527036 98.248743,169.99032"
       style="fill:none;stroke:#e6e6e6;stroke-opacity:1;stroke-width:1;stroke-linecap:butt;stroke-linejoin:round;stroke-miterlimit:10;stroke-dasharray:none"
       id="path4899" /><path
       d="M 268.39758,52.982665 94.366602,77.587185 88.171943,161.31684"
       style="fill:none;stroke:#e6e6e6;stroke-opacity:1;stroke-width:1;stroke-linecap:butt;stroke-linejoin:round;stroke-miterlimit:10;stroke-dasharray:none"
       id="path4901" /><path
       d="M 260.35761,43.364928 84.804647,68.469116 77.880318,152.45844"
       style="fill:none;stroke:#e6e6e6;stroke-opacity:1;stroke-width:1;stroke-linecap:butt;stroke-linejoin:round;stroke-miterlimit:10;stroke-dasharray:none"
       id="path4903" /><path
       d="M 252.15129,33.548213 75.050155,59.167448 67.366926,143.40916"
       style="fill:none;stroke:#e6e6e6;stroke-opacity:1;stroke-width:1;stroke-linecap:butt;stroke-linejoin:round;stroke-miterlimit:10;stroke-dasharray:none"
       id="path4905" /><path
       d="M 243.77343,23.526282 65.09725,49.676579 56.62452,134.16276"
       style="fill:none;stroke:#e6e6e6;stroke-opacity:1;stroke-width:1;stroke-linecap:butt;stroke-linejoin:round;stroke-miterlimit:10;stroke-dasharray:none"
       id="path4907" /><path
       d="m 297.61129,89.766765 4.14183,-0.560178"
       style="fill:none;stroke:#000000;stroke-opacity:1;stroke-width:1;stroke-linecap:square;stroke-linejoin:round;stroke-miterlimit:10;stroke-dasharray:none"
       id="path4909" /><text
       transform="matrix(1,0,0,-1,306.27469,77.084475)"
       id="text4911"><tspan
         style="fill:#000000;fill-opacity:1;fill-rule:nonzero;stroke:none;font-family:STIXGeneral;font-variant:normal;font-weight:normal;font-size:10;writing-mode:lr;-inkscape-font-specification:STIXGeneral-Regular"
         x="0"
         y="0"
         id="tspan4913">3</tspan></text>
<path
       d="m 290.17652,80.89106 4.17791,-0.571253"
       style="fill:none;stroke:#000000;stroke-opacity:1;stroke-width:1;stroke-linecap:square;stroke-linejoin:round;stroke-miterlimit:10;stroke-dasharray:none"
       id="path4915" /><text
       transform="matrix(1,0,0,-1,298.60676,68.16828)"
       id="text4917"><tspan
         style="fill:#000000;fill-opacity:1;fill-rule:nonzero;stroke:none;font-family:STIXGeneral;font-variant:normal;font-weight:normal;font-size:10;writing-mode:lr;-inkscape-font-specification:STIXGeneral-Regular"
         x="0"
         y="0"
         id="tspan4919">4</tspan></text>
<path
       d="m 282.59407,71.839062 4.21463,-0.58266"
       style="fill:none;stroke:#000000;stroke-opacity:1;stroke-width:1;stroke-linecap:square;stroke-linejoin:round;stroke-miterlimit:10;stroke-dasharray:none"
       id="path4921" /><text
       transform="matrix(1,0,0,-1,291.41879,59.075329)"
       id="text4923"><tspan
         style="fill:#000000;fill-opacity:1;fill-rule:nonzero;stroke:none;font-family:STIXGeneral;font-variant:normal;font-weight:normal;font-size:10;writing-mode:lr;-inkscape-font-specification:STIXGeneral-Regular"
         x="0"
         y="0"
         id="tspan4925">5</tspan></text>
<path
       d="m 274.8595,62.605466 4.25199,-0.594411"
       style="fill:none;stroke:#000000;stroke-opacity:1;stroke-width:1;stroke-linecap:square;stroke-linejoin:round;stroke-miterlimit:10;stroke-dasharray:none"
       id="path4927" /><text
       transform="matrix(1,0,0,-1,283.66736,49.800314)"
       id="text4929"><tspan
         style="fill:#000000;fill-opacity:1;fill-rule:nonzero;stroke:none;font-family:STIXGeneral;font-variant:normal;font-weight:normal;font-size:10;writing-mode:lr;-inkscape-font-specification:STIXGeneral-Regular"
         x="0"
         y="0"
         id="tspan4931">6</tspan></text>
<path
       d="M 266.96819,53.184752 271.2582,52.57823"
       style="fill:none;stroke:#000000;stroke-opacity:1;stroke-width:1;stroke-linecap:square;stroke-linejoin:round;stroke-miterlimit:10;stroke-dasharray:none"
       id="path4933" /><text
       transform="matrix(1,0,0,-1,275.93388,40.337713)"
       id="text4935"><tspan
         style="fill:#000000;fill-opacity:1;fill-rule:nonzero;stroke:none;font-family:STIXGeneral;font-variant:normal;font-weight:normal;font-size:10;writing-mode:lr;-inkscape-font-specification:STIXGeneral-Regular"
         x="0"
         y="0"
         id="tspan4937">7</tspan></text>
<path
       d="m 258.91533,43.571174 4.3287,-0.619007"
       style="fill:none;stroke:#000000;stroke-opacity:1;stroke-width:1;stroke-linecap:square;stroke-linejoin:round;stroke-miterlimit:10;stroke-dasharray:none"
       id="path4939" /><text
       transform="matrix(1,0,0,-1,268.20582,30.681775)"
       id="text4941"><tspan
         style="fill:#000000;fill-opacity:1;fill-rule:nonzero;stroke:none;font-family:STIXGeneral;font-variant:normal;font-weight:normal;font-size:10;writing-mode:lr;-inkscape-font-specification:STIXGeneral-Regular"
         x="0"
         y="0"
         id="tspan4943">8</tspan></text>
<path
       d="m 250.69591,33.758748 4.36807,-0.631881"
       style="fill:none;stroke:#000000;stroke-opacity:1;stroke-width:1;stroke-linecap:square;stroke-linejoin:round;stroke-miterlimit:10;stroke-dasharray:none"
       id="path4945" /><text
       transform="matrix(1,0,0,-1,259.91575,20.826515)"
       id="text4947"><tspan
         style="fill:#000000;fill-opacity:1;fill-rule:nonzero;stroke:none;font-family:STIXGeneral;font-variant:normal;font-weight:normal;font-size:10;writing-mode:lr;-inkscape-font-specification:STIXGeneral-Regular"
         x="0"
         y="0"
         id="tspan4949">9</tspan></text>
<path
       d="m 242.3047,23.74124 4.40816,-0.64516"
       style="fill:none;stroke:#000000;stroke-opacity:1;stroke-width:1;stroke-linecap:square;stroke-linejoin:round;stroke-miterlimit:10;stroke-dasharray:none"
       id="path4951" /><text
       transform="matrix(1,0,0,-1,249.48046,10.765696)"
       id="text4953"><tspan
         style="fill:#000000;fill-opacity:1;fill-rule:nonzero;stroke:none;font-family:STIXGeneral;font-variant:normal;font-weight:normal;font-size:10;writing-mode:lr;-inkscape-font-specification:STIXGeneral-Regular"
         x="0 5"
         y="0"
         sodipodi:role="line"
         id="tspan4955">10</tspan></text>
<path
       d="M 63.628845,48.27634 242.537,22.047219"
       style="fill:none;stroke:#000000;stroke-opacity:1;stroke-width:0.75;stroke-linecap:square;stroke-linejoin:round;stroke-miterlimit:10;stroke-dasharray:none"
       id="path4957" /><text
       transform="matrix(0.98942344,-0.14505603,-0.14505603,-0.98942344,0,0)"
       id="text4959"
       x="121.27596"
       y="-27.442966"
       style="font-size:12px"><tspan
         style="font-size:12px;font-variant:normal;font-weight:normal;writing-mode:lr-tb;fill:#000000;fill-opacity:1;fill-rule:nonzero;stroke:none;font-family:STIXGeneral;-inkscape-font-specification:STIXGeneral-Regular"
         x="121.27596 131.94395 135.27995 141.27995 147.96396 151.29996"
         y="-27.442966"
         sodipodi:role="line"
         id="tspan4961">MinPts</tspan></text>
<path
       d="M 132.11135,195.70528 135.35162,113.10237 67.112168,47.765662"
       style="fill:none;stroke:#e6e6e6;stroke-opacity:1;stroke-width:1;stroke-linecap:butt;stroke-linejoin:round;stroke-miterlimit:10;stroke-dasharray:none"
       id="path4963" /><path
       d="M 156.14896,192.76282 157.91064,110.05609 91.099707,44.24893"
       style="fill:none;stroke:#e6e6e6;stroke-opacity:1;stroke-width:1;stroke-linecap:butt;stroke-linejoin:round;stroke-miterlimit:10;stroke-dasharray:none"
       id="path4965" /><path
       d="m 180.36479,189.79855 0.26173,-82.80992 -65.36,-66.282715"
       style="fill:none;stroke:#e6e6e6;stroke-opacity:1;stroke-width:1;stroke-linecap:butt;stroke-linejoin:round;stroke-miterlimit:10;stroke-dasharray:none"
       id="path4967" /><path
       d="M 204.76084,186.81221 203.50089,103.89977 139.61464,37.13632"
       style="fill:none;stroke:#e6e6e6;stroke-opacity:1;stroke-width:1;stroke-linecap:butt;stroke-linejoin:round;stroke-miterlimit:10;stroke-dasharray:none"
       id="path4969" /><path
       d="M 229.33912,183.80357 226.53544,100.78928 164.14609,33.539846"
       style="fill:none;stroke:#e6e6e6;stroke-opacity:1;stroke-width:1;stroke-linecap:butt;stroke-linejoin:round;stroke-miterlimit:10;stroke-dasharray:none"
       id="path4971" /><path
       d="M 254.10168,180.77237 249.73184,97.656939 188.86297,29.916188"
       style="fill:none;stroke:#e6e6e6;stroke-opacity:1;stroke-width:1;stroke-linecap:butt;stroke-linejoin:round;stroke-miterlimit:10;stroke-dasharray:none"
       id="path4973" /><path
       d="M 279.0506,177.71835 273.0918,94.502507 213.76739,26.265036"
       style="fill:none;stroke:#e6e6e6;stroke-opacity:1;stroke-width:1;stroke-linecap:butt;stroke-linejoin:round;stroke-miterlimit:10;stroke-dasharray:none"
       id="path4975" /><path
       d="M 304.188,174.64127 296.61707,91.325753 238.86147,22.586076"
       style="fill:none;stroke:#e6e6e6;stroke-opacity:1;stroke-width:1;stroke-linecap:butt;stroke-linejoin:round;stroke-miterlimit:10;stroke-dasharray:none"
       id="path4977" /><path
       d="M 67.698302,48.326863 65.937808,46.641257"
       style="fill:none;stroke:#000000;stroke-opacity:1;stroke-width:1;stroke-linecap:square;stroke-linejoin:round;stroke-miterlimit:10;stroke-dasharray:none"
       id="path4979" /><text
       transform="matrix(1,0,0,-1,61.488499,32.583296)"
       id="text4981"><tspan
         style="fill:#000000;fill-opacity:1;fill-rule:nonzero;stroke:none;font-family:STIXGeneral;font-variant:normal;font-weight:normal;font-size:10;writing-mode:lr;-inkscape-font-specification:STIXGeneral-Regular"
         x="0"
         y="0"
         id="tspan4983">3</tspan></text>
<path
       d="M 91.673717,44.814316 89.949629,43.116132"
       style="fill:none;stroke:#000000;stroke-opacity:1;stroke-width:1;stroke-linecap:square;stroke-linejoin:round;stroke-miterlimit:10;stroke-dasharray:none"
       id="path4985" /><text
       transform="matrix(1,0,0,-1,85.121534,29.033874)"
       id="text4987"><tspan
         style="fill:#000000;fill-opacity:1;fill-rule:nonzero;stroke:none;font-family:STIXGeneral;font-variant:normal;font-weight:normal;font-size:10;writing-mode:lr;-inkscape-font-specification:STIXGeneral-Regular"
         x="0"
         y="0"
         id="tspan4989">4</tspan></text>
<path
       d="m 115.82821,41.275533 -1.68708,-1.710904"
       style="fill:none;stroke:#000000;stroke-opacity:1;stroke-width:1;stroke-linecap:square;stroke-linejoin:round;stroke-miterlimit:10;stroke-dasharray:none"
       id="path4991" /><text
       transform="matrix(1,0,0,-1,109.55891,25.457912)"
       id="text4993"><tspan
         style="fill:#000000;fill-opacity:1;fill-rule:nonzero;stroke:none;font-family:STIXGeneral;font-variant:normal;font-weight:normal;font-size:10;writing-mode:lr;-inkscape-font-specification:STIXGeneral-Regular"
         x="0"
         y="0"
         id="tspan4995">5</tspan></text>
<path
       d="m 140.1638,37.710218 -1.64948,-1.723767"
       style="fill:none;stroke:#000000;stroke-opacity:1;stroke-width:1;stroke-linecap:square;stroke-linejoin:round;stroke-miterlimit:10;stroke-dasharray:none"
       id="path4997" /><text
       transform="matrix(1,0,0,-1,133.76357,21.855112)"
       id="text4999"><tspan
         style="fill:#000000;fill-opacity:1;fill-rule:nonzero;stroke:none;font-family:STIXGeneral;font-variant:normal;font-weight:normal;font-size:10;writing-mode:lr;-inkscape-font-specification:STIXGeneral-Regular"
         x="0"
         y="0"
         id="tspan5001">6</tspan></text>
<path
       d="m 164.68253,34.118072 -1.61126,-1.736775"
       style="fill:none;stroke:#000000;stroke-opacity:1;stroke-width:1;stroke-linecap:square;stroke-linejoin:round;stroke-miterlimit:10;stroke-dasharray:none"
       id="path5003" /><text
       transform="matrix(1,0,0,-1,158.32352,18.22517)"
       id="text5005"><tspan
         style="fill:#000000;fill-opacity:1;fill-rule:nonzero;stroke:none;font-family:STIXGeneral;font-variant:normal;font-weight:normal;font-size:10;writing-mode:lr;-inkscape-font-specification:STIXGeneral-Regular"
         x="0"
         y="0"
         id="tspan5007">7</tspan></text>
<path
       d="M 189.38648,30.498792 187.81406,28.74886"
       style="fill:none;stroke:#000000;stroke-opacity:1;stroke-width:1;stroke-linecap:square;stroke-linejoin:round;stroke-miterlimit:10;stroke-dasharray:none"
       id="path5009" /><text
       transform="matrix(1,0,0,-1,183.23301,14.567779)"
       id="text5011"><tspan
         style="fill:#000000;fill-opacity:1;fill-rule:nonzero;stroke:none;font-family:STIXGeneral;font-variant:normal;font-weight:normal;font-size:10;writing-mode:lr;-inkscape-font-specification:STIXGeneral-Regular"
         x="0"
         y="0"
         id="tspan5013">8</tspan></text>
<path
       d="m 214.27774,26.852067 -1.53293,-1.763238"
       style="fill:none;stroke:#000000;stroke-opacity:1;stroke-width:1;stroke-linecap:square;stroke-linejoin:round;stroke-miterlimit:10;stroke-dasharray:none"
       id="path5015" /><text
       transform="matrix(1,0,0,-1,207.93166,10.882626)"
       id="text5017"><tspan
         style="fill:#000000;fill-opacity:1;fill-rule:nonzero;stroke:none;font-family:STIXGeneral;font-variant:normal;font-weight:normal;font-size:10;writing-mode:lr;-inkscape-font-specification:STIXGeneral-Regular"
         x="0"
         y="0"
         id="tspan5019">9</tspan></text>
<path
       d="m 239.35846,23.177586 -1.49279,-1.776697"
       style="fill:none;stroke:#000000;stroke-opacity:1;stroke-width:1;stroke-linecap:square;stroke-linejoin:round;stroke-miterlimit:10;stroke-dasharray:none"
       id="path5021" /><text
       transform="matrix(1,0,0,-1,230.8435,7.1693927)"
       id="text5023"><tspan
         style="fill:#000000;fill-opacity:1;fill-rule:nonzero;stroke:none;font-family:STIXGeneral;font-variant:normal;font-weight:normal;font-size:10;writing-mode:lr;-inkscape-font-specification:STIXGeneral-Regular"
         x="0 5"
         y="0"
         sodipodi:role="line"
         id="tspan5025">10</tspan></text>
<path
       d="m 63.628845,48.27634 -8.590508,84.52113"
       style="fill:none;stroke:#000000;stroke-opacity:1;stroke-width:0.75;stroke-linecap:square;stroke-linejoin:round;stroke-miterlimit:10;stroke-dasharray:none"
       id="path5027" /><text
       transform="matrix(0.10111647,-0.99487459,-0.99487459,-0.10111647,19.716443,122.17695)"
       id="text5029"><tspan
         style="fill:#000000;fill-opacity:1;fill-rule:nonzero;stroke:none;font-family:STIXGeneral;font-variant:normal;font-weight:normal;font-size:12;writing-mode:lr;-inkscape-font-specification:STIXGeneral-Regular"
         x="0 6 12 15 18 24 30 33.996 39.324 42.324 47.652 50.988 56.988 61.656 64.992 70.32 74.316"
         y="0"
         sodipodi:role="line"
         id="tspan5031">no. pure clusters</tspan></text>
<path
       d="M 63.468216,49.856753 132.00987,115.09656 300.20821,92.423636"
       style="fill:none;stroke:#e6e6e6;stroke-opacity:1;stroke-width:1;stroke-linecap:butt;stroke-linejoin:round;stroke-miterlimit:10;stroke-dasharray:none"
       id="path5033" /><path
       d="M 62.35516,60.807998 131.5605,125.84103 301.22258,103.24935"
       style="fill:none;stroke:#e6e6e6;stroke-opacity:1;stroke-width:1;stroke-linecap:butt;stroke-linejoin:round;stroke-miterlimit:10;stroke-dasharray:none"
       id="path5035" /><path
       d="M 61.221454,71.962413 131.10337,136.77081 302.2549,114.26667"
       style="fill:none;stroke:#e6e6e6;stroke-opacity:1;stroke-width:1;stroke-linecap:butt;stroke-linejoin:round;stroke-miterlimit:10;stroke-dasharray:none"
       id="path5037" /><path
       d="M 60.066519,83.325705 130.6383,147.89071 303.30565,125.48073"
       style="fill:none;stroke:#e6e6e6;stroke-opacity:1;stroke-width:1;stroke-linecap:butt;stroke-linejoin:round;stroke-miterlimit:10;stroke-dasharray:none"
       id="path5039" /><path
       d="m 58.889752,94.903796 71.275308,64.301954 174.21028,-22.3089"
       style="fill:none;stroke:#e6e6e6;stroke-opacity:1;stroke-width:1;stroke-linecap:butt;stroke-linejoin:round;stroke-miterlimit:10;stroke-dasharray:none"
       id="path5041" /><path
       d="m 57.690528,106.70283 71.992912,64.01829 175.78103,-22.20057"
       style="fill:none;stroke:#e6e6e6;stroke-opacity:1;stroke-width:1;stroke-linecap:butt;stroke-linejoin:round;stroke-miterlimit:10;stroke-dasharray:none"
       id="path5043" /><path
       d="M 56.468199,118.72921 129.19323,182.44217 306.5736,160.35752"
       style="fill:none;stroke:#e6e6e6;stroke-opacity:1;stroke-width:1;stroke-linecap:butt;stroke-linejoin:round;stroke-miterlimit:10;stroke-dasharray:none"
       id="path5045" /><path
       d="m 55.22209,130.98955 73.47208,63.38492 179.00909,-21.96076"
       style="fill:none;stroke:#e6e6e6;stroke-opacity:1;stroke-width:1;stroke-linecap:butt;stroke-linejoin:round;stroke-miterlimit:10;stroke-dasharray:none"
       id="path5047" /><path
       d="M 64.056977,50.417152 62.28859,48.733953"
       style="fill:none;stroke:#000000;stroke-opacity:1;stroke-width:1;stroke-linecap:square;stroke-linejoin:round;stroke-miterlimit:10;stroke-dasharray:none"
       id="path5049" /><text
       transform="matrix(1,0,0,-1,47.281203,40.525502)"
       id="text5051"><tspan
         style="fill:#000000;fill-opacity:1;fill-rule:nonzero;stroke:none;font-family:STIXGeneral;font-variant:normal;font-weight:normal;font-size:10;writing-mode:lr;-inkscape-font-specification:STIXGeneral-Regular"
         x="0"
         y="0"
         id="tspan5053">0</tspan></text>
<path
       d="m 62.949997,61.366973 -1.786656,-1.67894"
       style="fill:none;stroke:#000000;stroke-opacity:1;stroke-width:1;stroke-linecap:square;stroke-linejoin:round;stroke-miterlimit:10;stroke-dasharray:none"
       id="path5055" /><text
       transform="matrix(1,0,0,-1,43.568121,51.483032)"
       id="text5057"><tspan
         style="fill:#000000;fill-opacity:1;fill-rule:nonzero;stroke:none;font-family:STIXGeneral;font-variant:normal;font-weight:normal;font-size:10;writing-mode:lr;-inkscape-font-specification:STIXGeneral-Regular"
         x="0 5"
         y="0"
         sodipodi:role="line"
         id="tspan5059">20</tspan></text>
<path
       d="M 61.822492,72.519815 60.017191,70.845581"
       style="fill:none;stroke:#000000;stroke-opacity:1;stroke-width:1;stroke-linecap:square;stroke-linejoin:round;stroke-miterlimit:10;stroke-dasharray:none"
       id="path5061" /><text
       transform="matrix(1,0,0,-1,42.214704,62.644399)"
       id="text5063"><tspan
         style="fill:#000000;fill-opacity:1;fill-rule:nonzero;stroke:none;font-family:STIXGeneral;font-variant:normal;font-weight:normal;font-size:10;writing-mode:lr;-inkscape-font-specification:STIXGeneral-Regular"
         x="0 5"
         y="0"
         sodipodi:role="line"
         id="tspan5065">40</tspan></text>
<path
       d="M 60.673887,83.881376 58.849552,82.21232"
       style="fill:none;stroke:#000000;stroke-opacity:1;stroke-width:1;stroke-linecap:square;stroke-linejoin:round;stroke-miterlimit:10;stroke-dasharray:none"
       id="path5067" /><text
       transform="matrix(1,0,0,-1,41.0328,74.015343)"
       id="text5069"><tspan
         style="fill:#000000;fill-opacity:1;fill-rule:nonzero;stroke:none;font-family:STIXGeneral;font-variant:normal;font-weight:normal;font-size:10;writing-mode:lr;-inkscape-font-specification:STIXGeneral-Regular"
         x="0 5"
         y="0"
         sodipodi:role="line"
         id="tspan5071">60</tspan></text>
<path
       d="M 59.503583,95.457571 57.659813,93.79419"
       style="fill:none;stroke:#000000;stroke-opacity:1;stroke-width:1;stroke-linecap:square;stroke-linejoin:round;stroke-miterlimit:10;stroke-dasharray:none"
       id="path5073" /><text
       transform="matrix(1,0,0,-1,39.82642,85.601823)"
       id="text5075"><tspan
         style="fill:#000000;fill-opacity:1;fill-rule:nonzero;stroke:none;font-family:STIXGeneral;font-variant:normal;font-weight:normal;font-size:10;writing-mode:lr;-inkscape-font-specification:STIXGeneral-Regular"
         x="0 5"
         y="0"
         sodipodi:role="line"
         id="tspan5077">80</tspan></text>
<path
       d="m 58.31096,107.25454 -1.863618,-1.65718"
       style="fill:none;stroke:#000000;stroke-opacity:1;stroke-width:1;stroke-linecap:square;stroke-linejoin:round;stroke-miterlimit:10;stroke-dasharray:none"
       id="path5079" /><text
       transform="matrix(1,0,0,-1,36.258924,97.410027)"
       id="text5081"><tspan
         style="fill:#000000;fill-opacity:1;fill-rule:nonzero;stroke:none;font-family:STIXGeneral;font-variant:normal;font-weight:normal;font-size:10;writing-mode:lr;-inkscape-font-specification:STIXGeneral-Regular"
         x="0 5 10"
         y="0"
         sodipodi:role="line"
         id="tspan5083">100</tspan></text>
<path
       d="m 57.095372,119.27866 -1.883891,-1.65044"
       style="fill:none;stroke:#000000;stroke-opacity:1;stroke-width:1;stroke-linecap:square;stroke-linejoin:round;stroke-miterlimit:10;stroke-dasharray:none"
       id="path5085" /><text
       transform="matrix(1,0,0,-1,34.892081,109.44638)"
       id="text5087"><tspan
         style="fill:#000000;fill-opacity:1;fill-rule:nonzero;stroke:none;font-family:STIXGeneral;font-variant:normal;font-weight:normal;font-size:10;writing-mode:lr;-inkscape-font-specification:STIXGeneral-Regular"
         x="0 5 10"
         y="0"
         sodipodi:role="line"
         id="tspan5089">120</tspan></text>
<path
       d="m 55.856151,131.53656 -1.904605,-1.64312"
       style="fill:none;stroke:#000000;stroke-opacity:1;stroke-width:1;stroke-linecap:square;stroke-linejoin:round;stroke-miterlimit:10;stroke-dasharray:none"
       id="path5091" /><text
       transform="matrix(1,0,0,-1,33.498572,121.71756)"
       id="text5093"><tspan
         style="fill:#000000;fill-opacity:1;fill-rule:nonzero;stroke:none;font-family:STIXGeneral;font-variant:normal;font-weight:normal;font-size:10;writing-mode:lr;-inkscape-font-specification:STIXGeneral-Regular"
         x="0 5 10"
         y="0"
         sodipodi:role="line"
         id="tspan5095">140</tspan></text>
<g
       id="g5097"><g
         id="g5099"
         clip-path="url(#clipPath5101)"><path
           d="m 131.65758,172.01069 -9.21498,-9.41957 -9.51488,-7.24506 -9.28246,-14.46472 -9.762365,-9.37378 -9.909899,-10.14784 -10.307875,-7.98584 -9.85776,-15.248565"
           style="fill:none;stroke:#000000;stroke-opacity:1;stroke-width:1;stroke-linecap:butt;stroke-linejoin:round;stroke-miterlimit:10;stroke-dasharray:none"
           id="path5105" /><path
           d="m 155.07197,180.23126 -8.91984,-15.98213 -9.03898,-14.94694 -9.05563,-16.84739 -9.51808,-9.45313 -9.6371,-10.80718 -9.812349,-11.0037 -9.67732,-15.270543"
           style="fill:none;stroke:#000000;stroke-opacity:1;stroke-width:1;stroke-linecap:butt;stroke-linejoin:round;stroke-miterlimit:10;stroke-dasharray:none"
           id="path5107" /><path
           d="m 179.16642,164.26861 -8.71833,-19.99177 -8.871,-12.61778 -8.90811,-16.21729 -9.05868,-14.09583 -9.3312,-10.31543 -9.3694,-13.339526 -9.60081,-11.842082"
           style="fill:none;stroke:#000000;stroke-opacity:1;stroke-width:1;stroke-linecap:butt;stroke-linejoin:round;stroke-miterlimit:10;stroke-dasharray:none"
           id="path5109" /><path
           d="m 203.04643,154.2609 -8.69087,-21.67618 -8.67979,-14.35807 -8.79078,-12.26695 -8.92207,-12.450145 -9.0328,-13.758328 -9.23328,-11.148733 -9.42113,-10.790786"
           style="fill:none;stroke:#000000;stroke-opacity:1;stroke-width:1;stroke-linecap:butt;stroke-linejoin:round;stroke-miterlimit:10;stroke-dasharray:none"
           id="path5111" /><path
           d="m 226.82573,143.71479 -8.64856,-20.50018 -8.59242,-17.18744 -8.5979,-13.425579 -8.71005,-13.60069 -8.82747,-10.468646 -8.96572,-13.977958 -9.12092,-11.969865"
           style="fill:none;stroke:#000000;stroke-opacity:1;stroke-width:1;stroke-linecap:butt;stroke-linejoin:round;stroke-miterlimit:10;stroke-dasharray:none"
           id="path5113" /><path
           d="m 250.23992,128.13525 -8.60629,-20.93723 -8.30709,-13.285003 -8.48659,-15.644812 -8.48018,-12.533102 -8.56433,-10.544878 -8.72484,-10.7425 -8.88729,-10.400501"
           style="fill:none;stroke:#000000;stroke-opacity:1;stroke-width:1;stroke-linecap:butt;stroke-linejoin:round;stroke-miterlimit:10;stroke-dasharray:none"
           id="path5115" /><path
           d="m 272.9025,106.15782 -8.11878,-14.767199 -7.91296,-10.050363 -8.11502,-11.31934 -8.19923,-10.423279 -8.30822,-9.530735 -8.47975,-9.72751 -8.65666,-9.930444"
           style="fill:none;stroke:#000000;stroke-opacity:1;stroke-width:1;stroke-linecap:butt;stroke-linejoin:round;stroke-miterlimit:10;stroke-dasharray:none"
           id="path5117" /><path
           d="m 296.26645,98.084339 -7.77022,-12.10337 -7.66971,-9.576386 -7.81712,-9.760438 -7.96882,-9.949847 -8.12498,-10.144823 -8.25613,-9.800646 -8.42902,-10.005885"
           style="fill:none;stroke:#000000;stroke-opacity:1;stroke-width:1;stroke-linecap:butt;stroke-linejoin:round;stroke-miterlimit:10;stroke-dasharray:none"
           id="path5119" /><path
           d="m 131.65758,172.01069 23.41439,8.22057 24.09445,-15.96265 23.88001,-10.00771 23.7793,-10.54611 23.41419,-15.57954 22.66258,-21.97743 23.36395,-8.073481"
           style="fill:none;stroke:#000000;stroke-opacity:1;stroke-width:1;stroke-linecap:butt;stroke-linejoin:round;stroke-miterlimit:10;stroke-dasharray:none"
           id="path5121" /><path
           d="m 122.4426,162.59112 23.70953,1.65801 24.29596,-19.97229 23.90747,-11.69212 23.82161,-9.37011 23.45646,-16.01659 23.15009,-15.807399 23.71251,-5.409652"
           style="fill:none;stroke:#000000;stroke-opacity:1;stroke-width:1;stroke-linecap:butt;stroke-linejoin:round;stroke-miterlimit:10;stroke-dasharray:none"
           id="path5123" /><path
           d="m 112.92772,155.34606 24.18543,-6.04387 24.46394,-17.64313 24.09868,-13.43241 23.90898,-12.19948 23.74179,-12.114153 23.54422,-12.572759 23.95576,-4.935675"
           style="fill:none;stroke:#000000;stroke-opacity:1;stroke-width:1;stroke-linecap:butt;stroke-linejoin:round;stroke-miterlimit:10;stroke-dasharray:none"
           id="path5125" /><path
           d="m 103.64526,140.88134 24.41226,-8.42654 24.61146,-17.01303 24.21601,-9.48207 24.10186,-13.358109 23.8531,-14.333386 23.91579,-8.247287 24.25366,-3.376773"
           style="fill:none;stroke:#000000;stroke-opacity:1;stroke-width:1;stroke-linecap:butt;stroke-linejoin:round;stroke-miterlimit:10;stroke-dasharray:none"
           id="path5127" /><path
           d="m 93.882895,131.50756 24.656545,-8.50589 25.07086,-21.65573 24.35262,-7.836385 24.31388,-14.508654 24.08297,-13.265798 24.19674,-6.137464 24.48407,-2.903341"
           style="fill:none;stroke:#000000;stroke-opacity:1;stroke-width:1;stroke-linecap:butt;stroke-linejoin:round;stroke-miterlimit:10;stroke-dasharray:none"
           id="path5129" /><path
           d="m 83.972996,121.35972 24.929344,-9.16523 25.37676,-21.16398 24.65102,-11.279283 24.51921,-11.218972 24.34611,-13.34203 24.45285,-5.123321 24.66731,-3.517429"
           style="fill:none;stroke:#000000;stroke-opacity:1;stroke-width:1;stroke-linecap:butt;stroke-linejoin:round;stroke-miterlimit:10;stroke-dasharray:none"
           id="path5131" /><path
           d="m 73.665121,113.37388 25.42487,-12.18309 25.819709,-23.499806 24.78714,-9.08849 24.78677,-14.048197 24.58699,-10.106572 24.69794,-4.108331 24.89093,-3.590565"
           style="fill:none;stroke:#000000;stroke-opacity:1;stroke-width:1;stroke-linecap:butt;stroke-linejoin:round;stroke-miterlimit:10;stroke-dasharray:none"
           id="path5133" /><path
           d="m 63.807361,98.125315 25.60531,-12.205068 25.896219,-20.071345 24.96682,-8.037194 25.08698,-15.227276 24.82062,-8.537208 24.92857,-3.638274 25.11857,-3.666006"
           style="fill:none;stroke:#000000;stroke-opacity:1;stroke-width:1;stroke-linecap:butt;stroke-linejoin:round;stroke-miterlimit:10;stroke-dasharray:none"
           id="path5135" /></g></g></g></svg>