<?xml version="1.0" encoding="UTF-8" standalone="no"?>
<!-- Created with Inkscape (http://www.inkscape.org/) -->

<svg
   xmlns:dc="http://purl.org/dc/elements/1.1/"
   xmlns:cc="http://creativecommons.org/ns#"
   xmlns:rdf="http://www.w3.org/1999/02/22-rdf-syntax-ns#"
   xmlns:svg="http://www.w3.org/2000/svg"
   xmlns="http://www.w3.org/2000/svg"
   xmlns:sodipodi="http://sodipodi.sourceforge.net/DTD/sodipodi-0.dtd"
   xmlns:inkscape="http://www.inkscape.org/namespaces/inkscape"
   id="svg13161"
   version="1.1"
   inkscape:version="0.48.4 r9939"
   width="450"
   height="270"
   xml:space="preserve"
   sodipodi:docname="soft-dbscan-cos13.pdf"><metadata
     id="metadata13167"><rdf:RDF><cc:Work
         rdf:about=""><dc:format>image/svg+xml</dc:format><dc:type
           rdf:resource="http://purl.org/dc/dcmitype/StillImage" /><dc:title></dc:title></cc:Work></rdf:RDF></metadata><defs
     id="defs13165"><clipPath
       clipPathUnits="userSpaceOnUse"
       id="clipPath13189"><path
         d="m -970,-305 2399,0 0,1328 -2399,0 0,-1328 z"
         id="path13191" /></clipPath><clipPath
       clipPathUnits="userSpaceOnUse"
       id="clipPath13379"><path
         d="m 10.8,10.8 338.4,0 0,194.4 -338.4,0 0,-194.4 z"
         id="path13381" /></clipPath></defs><sodipodi:namedview
     pagecolor="#ffffff"
     bordercolor="#666666"
     borderopacity="1"
     objecttolerance="10"
     gridtolerance="10"
     guidetolerance="10"
     inkscape:pageopacity="0"
     inkscape:pageshadow="2"
     inkscape:window-width="640"
     inkscape:window-height="480"
     id="namedview13163"
     showgrid="false"
     inkscape:zoom="0.79777778"
     inkscape:cx="225"
     inkscape:cy="135"
     inkscape:window-x="0"
     inkscape:window-y="0"
     inkscape:window-maximized="0"
     inkscape:current-layer="g13169" /><g
     id="g13169"
     inkscape:groupmode="layer"
     inkscape:label="soft-dbscan-cos13"
     transform="matrix(1.25,0,0,-1.25,0,270)"><path
       d="m 132.07477,113.54486 167.98698,-22.684263 7.808,83.329983 -179.24911,21.942"
       style="fill:#f2f2f2;fill-opacity:0.5;fill-rule:nonzero;stroke:#f2f2f2;stroke-opacity:0.5;stroke-width:1;stroke-linecap:butt;stroke-linejoin:miter;stroke-miterlimit:10;stroke-dasharray:none"
       id="path13173" /><path
       d="M 132.07477,113.54486 63.628845,48.27634 55.038337,132.79747 128.62064,196.13258"
       style="fill:#e6e6e6;fill-opacity:0.5;fill-rule:nonzero;stroke:#e6e6e6;stroke-opacity:0.5;stroke-width:1;stroke-linecap:butt;stroke-linejoin:miter;stroke-miterlimit:10;stroke-dasharray:none"
       id="path13175" /><path
       d="M 132.07477,113.54486 63.628845,48.27634 242.537,22.047219 300.06175,90.860597"
       style="fill:#ececec;fill-opacity:0.5;fill-rule:nonzero;stroke:#ececec;stroke-opacity:0.5;stroke-width:1;stroke-linecap:butt;stroke-linejoin:miter;stroke-miterlimit:10;stroke-dasharray:none"
       id="path13177" /><path
       d="M 300.06175,90.860597 242.537,22.047219"
       style="fill:none;stroke:#000000;stroke-opacity:1;stroke-width:0.75;stroke-linecap:square;stroke-linejoin:round;stroke-miterlimit:10;stroke-dasharray:none"
       id="path13179" /><g
       id="g13181"
       transform="matrix(0.64136979,0.7672319,-0.7672319,0.64136979,294.50498,40.407954)"><g
         id="g13183"
         transform="matrix(0.012,0,0,0.012,0,0.703125)"><g
           id="g13185"><g
             id="g13187"
             clip-path="url(#clipPath13189)"><path
               d="M 360,98 376,88 C 324,22 257,-10 177,-10 79,-10 30,26 30,100 c 0,30 11,57 33,81 22,24 49,40 83,49 -17,2 -30,10 -39,22 -10,12 -14,26 -14,42 0,40 21,74 62,103 41,29 95,44 162,44 32,0 58,-8 78,-24 20,-16 30,-35 30,-59 0,-14 -6,-25 -16,-33 -11,-9 -22,-13 -32,-13 -12,0 -22,3 -29,11 -7,7 -10,17 -10,29 0,6 2,14 7,24 5,10 8,18 8,24 0,13 -13,20 -37,20 -36,0 -68,-10 -97,-30 -30,-20 -44,-51 -44,-92 0,-18 6,-31 20,-40 14,-9 32,-13 54,-13 2,0 9,1 21,3 12,2 22,4 32,4 9,0 17,-2 24,-6 6,-4 10,-9 10,-15 0,-18 -15,-27 -45,-27 -6,0 -14,1 -22,4 -9,3 -17,5 -24,5 -30,0 -59,-10 -87,-28 -28,-19 -42,-45 -42,-79 0,-28 8,-49 26,-62 17,-13 38,-19 63,-19 58,0 109,24 155,73"
               style="fill:#000000;fill-opacity:1;fill-rule:nonzero;stroke:none"
               id="path13193" /></g></g></g></g><path
       d="m 298.99133,89.580117 -168.19261,22.747933 -3.5433,82.62943"
       style="fill:none;stroke:#e6e6e6;stroke-opacity:1;stroke-width:1;stroke-linecap:butt;stroke-linejoin:round;stroke-miterlimit:10;stroke-dasharray:none"
       id="path13195" /><path
       d="m 291.56857,80.700722 -169.61596,23.191868 -4.16838,82.91267"
       style="fill:none;stroke:#e6e6e6;stroke-opacity:1;stroke-width:1;stroke-linecap:butt;stroke-linejoin:round;stroke-miterlimit:10;stroke-dasharray:none"
       id="path13197" /><path
       d="M 283.99835,71.644924 112.93526,95.293845 108.11738,178.48464"
       style="fill:none;stroke:#e6e6e6;stroke-opacity:1;stroke-width:1;stroke-linecap:butt;stroke-linejoin:round;stroke-miterlimit:10;stroke-dasharray:none"
       id="path13199" /><path
       d="M 276.27623,62.407413 103.74166,86.527036 98.248743,169.99032"
       style="fill:none;stroke:#e6e6e6;stroke-opacity:1;stroke-width:1;stroke-linecap:butt;stroke-linejoin:round;stroke-miterlimit:10;stroke-dasharray:none"
       id="path13201" /><path
       d="M 268.39758,52.982665 94.366602,77.587185 88.171943,161.31684"
       style="fill:none;stroke:#e6e6e6;stroke-opacity:1;stroke-width:1;stroke-linecap:butt;stroke-linejoin:round;stroke-miterlimit:10;stroke-dasharray:none"
       id="path13203" /><path
       d="M 260.35761,43.364928 84.804647,68.469116 77.880318,152.45844"
       style="fill:none;stroke:#e6e6e6;stroke-opacity:1;stroke-width:1;stroke-linecap:butt;stroke-linejoin:round;stroke-miterlimit:10;stroke-dasharray:none"
       id="path13205" /><path
       d="M 252.15129,33.548213 75.050155,59.167448 67.366926,143.40916"
       style="fill:none;stroke:#e6e6e6;stroke-opacity:1;stroke-width:1;stroke-linecap:butt;stroke-linejoin:round;stroke-miterlimit:10;stroke-dasharray:none"
       id="path13207" /><path
       d="M 243.77343,23.526282 65.09725,49.676579 56.62452,134.16276"
       style="fill:none;stroke:#e6e6e6;stroke-opacity:1;stroke-width:1;stroke-linecap:butt;stroke-linejoin:round;stroke-miterlimit:10;stroke-dasharray:none"
       id="path13209" /><path
       d="m 297.61129,89.766765 4.14183,-0.560178"
       style="fill:none;stroke:#000000;stroke-opacity:1;stroke-width:1;stroke-linecap:square;stroke-linejoin:round;stroke-miterlimit:10;stroke-dasharray:none"
       id="path13211" /><text
       transform="matrix(1,0,0,-1,306.27469,77.084475)"
       id="text13213"><tspan
         style="fill:#000000;fill-opacity:1;fill-rule:nonzero;stroke:none;font-family:STIXGeneral;font-variant:normal;font-weight:normal;font-size:10;writing-mode:lr;-inkscape-font-specification:STIXGeneral-Regular"
         x="0"
         y="0"
         id="tspan13215">3</tspan></text>
<path
       d="m 290.17652,80.89106 4.17791,-0.571253"
       style="fill:none;stroke:#000000;stroke-opacity:1;stroke-width:1;stroke-linecap:square;stroke-linejoin:round;stroke-miterlimit:10;stroke-dasharray:none"
       id="path13217" /><text
       transform="matrix(1,0,0,-1,298.60676,68.16828)"
       id="text13219"><tspan
         style="fill:#000000;fill-opacity:1;fill-rule:nonzero;stroke:none;font-family:STIXGeneral;font-variant:normal;font-weight:normal;font-size:10;writing-mode:lr;-inkscape-font-specification:STIXGeneral-Regular"
         x="0"
         y="0"
         id="tspan13221">4</tspan></text>
<path
       d="m 282.59407,71.839062 4.21463,-0.58266"
       style="fill:none;stroke:#000000;stroke-opacity:1;stroke-width:1;stroke-linecap:square;stroke-linejoin:round;stroke-miterlimit:10;stroke-dasharray:none"
       id="path13223" /><text
       transform="matrix(1,0,0,-1,291.41879,59.075329)"
       id="text13225"><tspan
         style="fill:#000000;fill-opacity:1;fill-rule:nonzero;stroke:none;font-family:STIXGeneral;font-variant:normal;font-weight:normal;font-size:10;writing-mode:lr;-inkscape-font-specification:STIXGeneral-Regular"
         x="0"
         y="0"
         id="tspan13227">5</tspan></text>
<path
       d="m 274.8595,62.605466 4.25199,-0.594411"
       style="fill:none;stroke:#000000;stroke-opacity:1;stroke-width:1;stroke-linecap:square;stroke-linejoin:round;stroke-miterlimit:10;stroke-dasharray:none"
       id="path13229" /><text
       transform="matrix(1,0,0,-1,283.66736,49.800314)"
       id="text13231"><tspan
         style="fill:#000000;fill-opacity:1;fill-rule:nonzero;stroke:none;font-family:STIXGeneral;font-variant:normal;font-weight:normal;font-size:10;writing-mode:lr;-inkscape-font-specification:STIXGeneral-Regular"
         x="0"
         y="0"
         id="tspan13233">6</tspan></text>
<path
       d="M 266.96819,53.184752 271.2582,52.57823"
       style="fill:none;stroke:#000000;stroke-opacity:1;stroke-width:1;stroke-linecap:square;stroke-linejoin:round;stroke-miterlimit:10;stroke-dasharray:none"
       id="path13235" /><text
       transform="matrix(1,0,0,-1,275.93388,40.337713)"
       id="text13237"><tspan
         style="fill:#000000;fill-opacity:1;fill-rule:nonzero;stroke:none;font-family:STIXGeneral;font-variant:normal;font-weight:normal;font-size:10;writing-mode:lr;-inkscape-font-specification:STIXGeneral-Regular"
         x="0"
         y="0"
         id="tspan13239">7</tspan></text>
<path
       d="m 258.91533,43.571174 4.3287,-0.619007"
       style="fill:none;stroke:#000000;stroke-opacity:1;stroke-width:1;stroke-linecap:square;stroke-linejoin:round;stroke-miterlimit:10;stroke-dasharray:none"
       id="path13241" /><text
       transform="matrix(1,0,0,-1,268.20582,30.681775)"
       id="text13243"><tspan
         style="fill:#000000;fill-opacity:1;fill-rule:nonzero;stroke:none;font-family:STIXGeneral;font-variant:normal;font-weight:normal;font-size:10;writing-mode:lr;-inkscape-font-specification:STIXGeneral-Regular"
         x="0"
         y="0"
         id="tspan13245">8</tspan></text>
<path
       d="m 250.69591,33.758748 4.36807,-0.631881"
       style="fill:none;stroke:#000000;stroke-opacity:1;stroke-width:1;stroke-linecap:square;stroke-linejoin:round;stroke-miterlimit:10;stroke-dasharray:none"
       id="path13247" /><text
       transform="matrix(1,0,0,-1,259.91575,20.826515)"
       id="text13249"><tspan
         style="fill:#000000;fill-opacity:1;fill-rule:nonzero;stroke:none;font-family:STIXGeneral;font-variant:normal;font-weight:normal;font-size:10;writing-mode:lr;-inkscape-font-specification:STIXGeneral-Regular"
         x="0"
         y="0"
         id="tspan13251">9</tspan></text>
<path
       d="m 242.3047,23.74124 4.40816,-0.64516"
       style="fill:none;stroke:#000000;stroke-opacity:1;stroke-width:1;stroke-linecap:square;stroke-linejoin:round;stroke-miterlimit:10;stroke-dasharray:none"
       id="path13253" /><text
       transform="matrix(1,0,0,-1,249.48046,10.765696)"
       id="text13255"><tspan
         style="fill:#000000;fill-opacity:1;fill-rule:nonzero;stroke:none;font-family:STIXGeneral;font-variant:normal;font-weight:normal;font-size:10;writing-mode:lr;-inkscape-font-specification:STIXGeneral-Regular"
         x="0 5"
         y="0"
         sodipodi:role="line"
         id="tspan13257">10</tspan></text>
<path
       d="M 63.628845,48.27634 242.537,22.047219"
       style="fill:none;stroke:#000000;stroke-opacity:1;stroke-width:0.75;stroke-linecap:square;stroke-linejoin:round;stroke-miterlimit:10;stroke-dasharray:none"
       id="path13259" /><text
       transform="matrix(0.98942344,-0.14505603,-0.14505603,-0.98942344,126.17513,15.675036)"
       id="text13261"><tspan
         style="fill:#000000;fill-opacity:1;fill-rule:nonzero;stroke:none;font-family:STIXGeneral;font-variant:normal;font-weight:normal;font-size:12;writing-mode:lr;-inkscape-font-specification:STIXGeneral-Regular"
         x="0 10.668 14.004 20.004 26.688 30.024"
         y="0"
         sodipodi:role="line"
         id="tspan13263">MinPts</tspan></text>
<path
       d="M 132.11135,195.70528 135.35162,113.10237 67.112168,47.765662"
       style="fill:none;stroke:#e6e6e6;stroke-opacity:1;stroke-width:1;stroke-linecap:butt;stroke-linejoin:round;stroke-miterlimit:10;stroke-dasharray:none"
       id="path13265" /><path
       d="M 156.14896,192.76282 157.91064,110.05609 91.099707,44.24893"
       style="fill:none;stroke:#e6e6e6;stroke-opacity:1;stroke-width:1;stroke-linecap:butt;stroke-linejoin:round;stroke-miterlimit:10;stroke-dasharray:none"
       id="path13267" /><path
       d="m 180.36479,189.79855 0.26173,-82.80992 -65.36,-66.282715"
       style="fill:none;stroke:#e6e6e6;stroke-opacity:1;stroke-width:1;stroke-linecap:butt;stroke-linejoin:round;stroke-miterlimit:10;stroke-dasharray:none"
       id="path13269" /><path
       d="M 204.76084,186.81221 203.50089,103.89977 139.61464,37.13632"
       style="fill:none;stroke:#e6e6e6;stroke-opacity:1;stroke-width:1;stroke-linecap:butt;stroke-linejoin:round;stroke-miterlimit:10;stroke-dasharray:none"
       id="path13271" /><path
       d="M 229.33912,183.80357 226.53544,100.78928 164.14609,33.539846"
       style="fill:none;stroke:#e6e6e6;stroke-opacity:1;stroke-width:1;stroke-linecap:butt;stroke-linejoin:round;stroke-miterlimit:10;stroke-dasharray:none"
       id="path13273" /><path
       d="M 254.10168,180.77237 249.73184,97.656939 188.86297,29.916188"
       style="fill:none;stroke:#e6e6e6;stroke-opacity:1;stroke-width:1;stroke-linecap:butt;stroke-linejoin:round;stroke-miterlimit:10;stroke-dasharray:none"
       id="path13275" /><path
       d="M 279.0506,177.71835 273.0918,94.502507 213.76739,26.265036"
       style="fill:none;stroke:#e6e6e6;stroke-opacity:1;stroke-width:1;stroke-linecap:butt;stroke-linejoin:round;stroke-miterlimit:10;stroke-dasharray:none"
       id="path13277" /><path
       d="M 304.188,174.64127 296.61707,91.325753 238.86147,22.586076"
       style="fill:none;stroke:#e6e6e6;stroke-opacity:1;stroke-width:1;stroke-linecap:butt;stroke-linejoin:round;stroke-miterlimit:10;stroke-dasharray:none"
       id="path13279" /><path
       d="M 67.698302,48.326863 65.937808,46.641257"
       style="fill:none;stroke:#000000;stroke-opacity:1;stroke-width:1;stroke-linecap:square;stroke-linejoin:round;stroke-miterlimit:10;stroke-dasharray:none"
       id="path13281" /><text
       transform="matrix(1,0,0,-1,61.488499,32.583296)"
       id="text13283"><tspan
         style="fill:#000000;fill-opacity:1;fill-rule:nonzero;stroke:none;font-family:STIXGeneral;font-variant:normal;font-weight:normal;font-size:10;writing-mode:lr;-inkscape-font-specification:STIXGeneral-Regular"
         x="0"
         y="0"
         id="tspan13285">3</tspan></text>
<path
       d="M 91.673717,44.814316 89.949629,43.116132"
       style="fill:none;stroke:#000000;stroke-opacity:1;stroke-width:1;stroke-linecap:square;stroke-linejoin:round;stroke-miterlimit:10;stroke-dasharray:none"
       id="path13287" /><text
       transform="matrix(1,0,0,-1,85.121534,29.033874)"
       id="text13289"><tspan
         style="fill:#000000;fill-opacity:1;fill-rule:nonzero;stroke:none;font-family:STIXGeneral;font-variant:normal;font-weight:normal;font-size:10;writing-mode:lr;-inkscape-font-specification:STIXGeneral-Regular"
         x="0"
         y="0"
         id="tspan13291">4</tspan></text>
<path
       d="m 115.82821,41.275533 -1.68708,-1.710904"
       style="fill:none;stroke:#000000;stroke-opacity:1;stroke-width:1;stroke-linecap:square;stroke-linejoin:round;stroke-miterlimit:10;stroke-dasharray:none"
       id="path13293" /><text
       transform="matrix(1,0,0,-1,109.55891,25.457912)"
       id="text13295"><tspan
         style="fill:#000000;fill-opacity:1;fill-rule:nonzero;stroke:none;font-family:STIXGeneral;font-variant:normal;font-weight:normal;font-size:10;writing-mode:lr;-inkscape-font-specification:STIXGeneral-Regular"
         x="0"
         y="0"
         id="tspan13297">5</tspan></text>
<path
       d="m 140.1638,37.710218 -1.64948,-1.723767"
       style="fill:none;stroke:#000000;stroke-opacity:1;stroke-width:1;stroke-linecap:square;stroke-linejoin:round;stroke-miterlimit:10;stroke-dasharray:none"
       id="path13299" /><text
       transform="matrix(1,0,0,-1,133.76357,21.855112)"
       id="text13301"><tspan
         style="fill:#000000;fill-opacity:1;fill-rule:nonzero;stroke:none;font-family:STIXGeneral;font-variant:normal;font-weight:normal;font-size:10;writing-mode:lr;-inkscape-font-specification:STIXGeneral-Regular"
         x="0"
         y="0"
         id="tspan13303">6</tspan></text>
<path
       d="m 164.68253,34.118072 -1.61126,-1.736775"
       style="fill:none;stroke:#000000;stroke-opacity:1;stroke-width:1;stroke-linecap:square;stroke-linejoin:round;stroke-miterlimit:10;stroke-dasharray:none"
       id="path13305" /><text
       transform="matrix(1,0,0,-1,158.32352,18.22517)"
       id="text13307"><tspan
         style="fill:#000000;fill-opacity:1;fill-rule:nonzero;stroke:none;font-family:STIXGeneral;font-variant:normal;font-weight:normal;font-size:10;writing-mode:lr;-inkscape-font-specification:STIXGeneral-Regular"
         x="0"
         y="0"
         id="tspan13309">7</tspan></text>
<path
       d="M 189.38648,30.498792 187.81406,28.74886"
       style="fill:none;stroke:#000000;stroke-opacity:1;stroke-width:1;stroke-linecap:square;stroke-linejoin:round;stroke-miterlimit:10;stroke-dasharray:none"
       id="path13311" /><text
       transform="matrix(1,0,0,-1,183.23301,14.567779)"
       id="text13313"><tspan
         style="fill:#000000;fill-opacity:1;fill-rule:nonzero;stroke:none;font-family:STIXGeneral;font-variant:normal;font-weight:normal;font-size:10;writing-mode:lr;-inkscape-font-specification:STIXGeneral-Regular"
         x="0"
         y="0"
         id="tspan13315">8</tspan></text>
<path
       d="m 214.27774,26.852067 -1.53293,-1.763238"
       style="fill:none;stroke:#000000;stroke-opacity:1;stroke-width:1;stroke-linecap:square;stroke-linejoin:round;stroke-miterlimit:10;stroke-dasharray:none"
       id="path13317" /><text
       transform="matrix(1,0,0,-1,207.93166,10.882626)"
       id="text13319"><tspan
         style="fill:#000000;fill-opacity:1;fill-rule:nonzero;stroke:none;font-family:STIXGeneral;font-variant:normal;font-weight:normal;font-size:10;writing-mode:lr;-inkscape-font-specification:STIXGeneral-Regular"
         x="0"
         y="0"
         id="tspan13321">9</tspan></text>
<path
       d="m 239.35846,23.177586 -1.49279,-1.776697"
       style="fill:none;stroke:#000000;stroke-opacity:1;stroke-width:1;stroke-linecap:square;stroke-linejoin:round;stroke-miterlimit:10;stroke-dasharray:none"
       id="path13323" /><text
       transform="matrix(1,0,0,-1,230.8435,7.1693927)"
       id="text13325"><tspan
         style="fill:#000000;fill-opacity:1;fill-rule:nonzero;stroke:none;font-family:STIXGeneral;font-variant:normal;font-weight:normal;font-size:10;writing-mode:lr;-inkscape-font-specification:STIXGeneral-Regular"
         x="0 5"
         y="0"
         sodipodi:role="line"
         id="tspan13327">10</tspan></text>
<path
       d="m 63.628845,48.27634 -8.590508,84.52113"
       style="fill:none;stroke:#000000;stroke-opacity:1;stroke-width:0.75;stroke-linecap:square;stroke-linejoin:round;stroke-miterlimit:10;stroke-dasharray:none"
       id="path13329" /><text
       transform="matrix(0.10111647,-0.99487459,-0.99487459,-0.10111647,19.716443,122.17695)"
       id="text13331"><tspan
         style="fill:#000000;fill-opacity:1;fill-rule:nonzero;stroke:none;font-family:STIXGeneral;font-variant:normal;font-weight:normal;font-size:12;writing-mode:lr;-inkscape-font-specification:STIXGeneral-Regular"
         x="0 6 12 15 18 24 30 33.996 39.324 42.324 47.652 50.988 56.988 61.656 64.992 70.32 74.316"
         y="0"
         sodipodi:role="line"
         id="tspan13333">no. pure clusters</tspan></text>
<path
       d="M 63.468216,49.856753 132.00987,115.09656 300.20821,92.423636"
       style="fill:none;stroke:#e6e6e6;stroke-opacity:1;stroke-width:1;stroke-linecap:butt;stroke-linejoin:round;stroke-miterlimit:10;stroke-dasharray:none"
       id="path13335" /><path
       d="M 61.506848,69.154454 131.21839,134.02073 301.99511,111.4941"
       style="fill:none;stroke:#e6e6e6;stroke-opacity:1;stroke-width:1;stroke-linecap:butt;stroke-linejoin:round;stroke-miterlimit:10;stroke-dasharray:none"
       id="path13337" /><path
       d="M 59.480903,89.087521 130.40271,153.52352 303.8381,131.1632"
       style="fill:none;stroke:#e6e6e6;stroke-opacity:1;stroke-width:1;stroke-linecap:butt;stroke-linejoin:round;stroke-miterlimit:10;stroke-dasharray:none"
       id="path13339" /><path
       d="M 57.387138,109.68786 129.5617,173.63188 305.73986,151.45957"
       style="fill:none;stroke:#e6e6e6;stroke-opacity:1;stroke-width:1;stroke-linecap:butt;stroke-linejoin:round;stroke-miterlimit:10;stroke-dasharray:none"
       id="path13341" /><path
       d="m 55.22209,130.98955 73.47208,63.38492 179.00909,-21.96076"
       style="fill:none;stroke:#e6e6e6;stroke-opacity:1;stroke-width:1;stroke-linecap:butt;stroke-linejoin:round;stroke-miterlimit:10;stroke-dasharray:none"
       id="path13343" /><path
       d="M 64.056977,50.417152 62.28859,48.733953"
       style="fill:none;stroke:#000000;stroke-opacity:1;stroke-width:1;stroke-linecap:square;stroke-linejoin:round;stroke-miterlimit:10;stroke-dasharray:none"
       id="path13345" /><text
       transform="matrix(1,0,0,-1,47.281203,40.525502)"
       id="text13347"><tspan
         style="fill:#000000;fill-opacity:1;fill-rule:nonzero;stroke:none;font-family:STIXGeneral;font-variant:normal;font-weight:normal;font-size:10;writing-mode:lr;-inkscape-font-specification:STIXGeneral-Regular"
         x="0"
         y="0"
         id="tspan13349">0</tspan></text>
<path
       d="M 62.106324,69.712263 60.30572,68.036809"
       style="fill:none;stroke:#000000;stroke-opacity:1;stroke-width:1;stroke-linecap:square;stroke-linejoin:round;stroke-miterlimit:10;stroke-dasharray:none"
       id="path13351" /><text
       transform="matrix(1,0,0,-1,42.627529,59.834637)"
       id="text13353"><tspan
         style="fill:#000000;fill-opacity:1;fill-rule:nonzero;stroke:none;font-family:STIXGeneral;font-variant:normal;font-weight:normal;font-size:10;writing-mode:lr;-inkscape-font-specification:STIXGeneral-Regular"
         x="0 5"
         y="0"
         sodipodi:role="line"
         id="tspan13355">50</tspan></text>
<path
       d="M 60.091485,89.642266 58.257484,87.975984"
       style="fill:none;stroke:#000000;stroke-opacity:1;stroke-width:1;stroke-linecap:square;stroke-linejoin:round;stroke-miterlimit:10;stroke-dasharray:none"
       id="path13357" /><text
       transform="matrix(1,0,0,-1,38.260838,79.78126)"
       id="text13359"><tspan
         style="fill:#000000;fill-opacity:1;fill-rule:nonzero;stroke:none;font-family:STIXGeneral;font-variant:normal;font-weight:normal;font-size:10;writing-mode:lr;-inkscape-font-specification:STIXGeneral-Regular"
         x="0 5 10"
         y="0"
         sodipodi:role="line"
         id="tspan13361">100</tspan></text>
<path
       d="m 58.009241,110.23902 -1.868645,-1.65555"
       style="fill:none;stroke:#000000;stroke-opacity:1;stroke-width:1;stroke-linecap:square;stroke-linejoin:round;stroke-miterlimit:10;stroke-dasharray:none"
       id="path13363" /><text
       transform="matrix(1,0,0,-1,35.919671,100.39747)"
       id="text13365"><tspan
         style="fill:#000000;fill-opacity:1;fill-rule:nonzero;stroke:none;font-family:STIXGeneral;font-variant:normal;font-weight:normal;font-size:10;writing-mode:lr;-inkscape-font-specification:STIXGeneral-Regular"
         x="0 5 10"
         y="0"
         sodipodi:role="line"
         id="tspan13367">150</tspan></text>
<path
       d="m 55.856151,131.53656 -1.904605,-1.64312"
       style="fill:none;stroke:#000000;stroke-opacity:1;stroke-width:1;stroke-linecap:square;stroke-linejoin:round;stroke-miterlimit:10;stroke-dasharray:none"
       id="path13369" /><text
       transform="matrix(1,0,0,-1,33.092322,121.71756)"
       id="text13371"><tspan
         style="fill:#000000;fill-opacity:1;fill-rule:nonzero;stroke:none;font-family:STIXGeneral;font-variant:normal;font-weight:normal;font-size:10;writing-mode:lr;-inkscape-font-specification:STIXGeneral-Regular"
         x="0 5 10"
         y="0"
         sodipodi:role="line"
         id="tspan13373">200</tspan></text>
<g
       id="g13375"><g
         id="g13377"
         clip-path="url(#clipPath13379)"><path
           d="m 130.97388,188.98454 -9.21876,-11.96158 -9.49308,-9.62585 -9.38051,-14.41192 L 93.184225,141.3161 83.427522,128.20819 73.602501,114.0825 63.325619,103.07099"
           style="fill:none;stroke:#000000;stroke-opacity:1;stroke-width:1;stroke-linecap:butt;stroke-linejoin:round;stroke-miterlimit:10;stroke-dasharray:none"
           id="path13383" /><path
           d="m 155.0454,181.42175 -8.7894,-20.70314 -9.1601,-10.94722 -9.18562,-13.99715 -9.29796,-14.16834 -9.60818,-11.09821 -9.72225,-12.106998 -9.851276,-12.711915"
           style="fill:none;stroke:#000000;stroke-opacity:1;stroke-width:1;stroke-linecap:butt;stroke-linejoin:round;stroke-miterlimit:10;stroke-dasharray:none"
           id="path13385" /><path
           d="m 179.1164,176.34909 -8.77917,-21.97874 -8.91245,-14.27719 -9.07667,-12.00799 -9.07065,-16.63909 -9.35924,-11.570321 -9.20526,-18.1639 -9.7649,-9.572412"
           style="fill:none;stroke:#000000;stroke-opacity:1;stroke-width:1;stroke-linecap:butt;stroke-linejoin:round;stroke-miterlimit:10;stroke-dasharray:none"
           id="path13387" /><path
           d="m 203.28868,171.25508 -8.86144,-29.33439 -8.7464,-17.90133 -8.82796,-12.84957 -8.90965,-16.196 -9.06375,-12.810211 -9.11984,-15.74027 -9.30061,-13.575561"
           style="fill:none;stroke:#000000;stroke-opacity:1;stroke-width:1;stroke-linecap:butt;stroke-linejoin:round;stroke-miterlimit:10;stroke-dasharray:none"
           id="path13389" /><path
           d="m 227.44049,162.41669 -9.0311,-30.46118 -8.62398,-15.91848 -8.7266,-18.023967 -8.75926,-15.407633 -8.84847,-15.951409 -8.96283,-12.649984 -9.15235,-9.768329"
           style="fill:none;stroke:#000000;stroke-opacity:1;stroke-width:1;stroke-linecap:butt;stroke-linejoin:round;stroke-miterlimit:10;stroke-dasharray:none"
           id="path13391" /><path
           d="m 251.07295,144.24362 -8.99635,-27.35046 -8.45503,-15.50305 -8.4582,-13.323492 -8.61181,-15.046333 -8.63821,-11.752876 -8.78793,-12.334629 -8.92357,-10.999836"
           style="fill:none;stroke:#000000;stroke-opacity:1;stroke-width:1;stroke-linecap:butt;stroke-linejoin:round;stroke-miterlimit:10;stroke-dasharray:none"
           id="path13393" /><path
           d="m 274.30442,125.9628 -8.5784,-20.08629 -8.25348,-14.356406 -8.42832,-16.052925 -8.32544,-12.387628 -8.34619,-9.905641 -8.53891,-10.869976 -8.67052,-9.926594"
           style="fill:none;stroke:#000000;stroke-opacity:1;stroke-width:1;stroke-linecap:butt;stroke-linejoin:round;stroke-miterlimit:10;stroke-dasharray:none"
           id="path13395" /><path
           d="m 297.22747,108.75135 -8.39588,-18.808739 -7.79911,-10.931659 -7.93164,-11.117404 -8.04201,-10.927482 -8.0935,-9.599895 -8.26135,-9.798984 -8.45271,-10.387099"
           style="fill:none;stroke:#000000;stroke-opacity:1;stroke-width:1;stroke-linecap:butt;stroke-linejoin:round;stroke-miterlimit:10;stroke-dasharray:none"
           id="path13397" /><path
           d="m 130.97388,188.98454 24.07152,-7.56279 24.071,-5.07266 24.17228,-5.09401 24.15181,-8.83839 23.63246,-18.17307 23.23147,-18.28082 22.92305,-17.21145"
           style="fill:none;stroke:#000000;stroke-opacity:1;stroke-width:1;stroke-linecap:butt;stroke-linejoin:round;stroke-miterlimit:10;stroke-dasharray:none"
           id="path13399" /><path
           d="m 121.75512,177.02296 24.50088,-16.30435 24.08123,-6.34826 24.09001,-12.44966 23.98215,-9.96518 23.66721,-15.06235 23.64942,-11.01665 23.10557,-15.933899"
           style="fill:none;stroke:#000000;stroke-opacity:1;stroke-width:1;stroke-linecap:butt;stroke-linejoin:round;stroke-miterlimit:10;stroke-dasharray:none"
           id="path13401" /><path
           d="m 112.26204,167.39711 24.83386,-17.62572 24.32888,-9.67823 24.25606,-16.0738 24.10457,-7.98233 23.83616,-14.64692 23.85097,-9.870006 23.55994,-12.509152"
           style="fill:none;stroke:#000000;stroke-opacity:1;stroke-width:1;stroke-linecap:butt;stroke-linejoin:round;stroke-miterlimit:10;stroke-dasharray:none"
           id="path13403" /><path
           d="m 102.88153,152.98519 25.02875,-17.21095 24.43783,-7.68907 24.50477,-16.91538 24.20593,-13.156727 24.10456,-9.946445 23.88085,-12.599439 24.05662,-7.573631"
           style="fill:none;stroke:#000000;stroke-opacity:1;stroke-width:1;stroke-linecap:butt;stroke-linejoin:round;stroke-miterlimit:10;stroke-dasharray:none"
           id="path13405" /><path
           d="m 93.184225,141.3161 25.428095,-19.7102 24.66514,-10.15982 24.66577,-16.47229 24.35632,-12.36836 24.25201,-9.585145 24.16722,-9.940734 24.34005,-6.113485"
           style="fill:none;stroke:#000000;stroke-opacity:1;stroke-width:1;stroke-linecap:butt;stroke-linejoin:round;stroke-miterlimit:10;stroke-dasharray:none"
           id="path13407" /><path
           d="m 83.427522,128.20819 25.576618,-17.7005 24.91408,-10.631931 24.96126,-17.71218 24.5716,-15.509558 24.46227,-5.386612 24.45924,-8.093499 24.59274,-5.807739"
           style="fill:none;stroke:#000000;stroke-opacity:1;stroke-width:1;stroke-linecap:butt;stroke-linejoin:round;stroke-miterlimit:10;stroke-dasharray:none"
           id="path13409" /><path
           d="m 73.602501,114.0825 25.679389,-15.681808 25.43107,-16.688833 25.04668,-15.28855 24.72861,-12.419272 24.63717,-5.071257 24.70826,-6.628846 24.8703,-4.736747"
           style="fill:none;stroke:#000000;stroke-opacity:1;stroke-width:1;stroke-linecap:butt;stroke-linejoin:round;stroke-miterlimit:10;stroke-dasharray:none"
           id="path13411" /><path
           d="m 63.325619,103.07099 26.104995,-17.382213 25.517446,-13.54933 25.51097,-19.291699 24.87687,-8.61204 24.86595,-6.302764 24.96131,-5.555604 25.08811,-5.197252"
           style="fill:none;stroke:#000000;stroke-opacity:1;stroke-width:1;stroke-linecap:butt;stroke-linejoin:round;stroke-miterlimit:10;stroke-dasharray:none"
           id="path13413" /></g></g></g></svg>