<?xml version="1.0" encoding="UTF-8" standalone="no"?>
<!-- Created with Inkscape (http://www.inkscape.org/) -->

<svg
   xmlns:dc="http://purl.org/dc/elements/1.1/"
   xmlns:cc="http://creativecommons.org/ns#"
   xmlns:rdf="http://www.w3.org/1999/02/22-rdf-syntax-ns#"
   xmlns:svg="http://www.w3.org/2000/svg"
   xmlns="http://www.w3.org/2000/svg"
   xmlns:sodipodi="http://sodipodi.sourceforge.net/DTD/sodipodi-0.dtd"
   xmlns:inkscape="http://www.inkscape.org/namespaces/inkscape"
   id="svg12897"
   version="1.1"
   inkscape:version="0.48.4 r9939"
   width="450"
   height="270"
   xml:space="preserve"
   sodipodi:docname="soft-dbscan-cos10-2.pdf"><metadata
     id="metadata12903"><rdf:RDF><cc:Work
         rdf:about=""><dc:format>image/svg+xml</dc:format><dc:type
           rdf:resource="http://purl.org/dc/dcmitype/StillImage" /><dc:title></dc:title></cc:Work></rdf:RDF></metadata><defs
     id="defs12901"><clipPath
       clipPathUnits="userSpaceOnUse"
       id="clipPath12913"><path
         d="m 44.957812,39.051562 299.903908,0 0,161.817188 -299.903908,0 0,-161.817188 z"
         id="path12915" /></clipPath><clipPath
       clipPathUnits="userSpaceOnUse"
       id="clipPath12923"><path
         d="m 44.957812,39.051562 299.903908,0 0,161.817188 -299.903908,0 0,-161.817188 z"
         id="path12925" /></clipPath><clipPath
       clipPathUnits="userSpaceOnUse"
       id="clipPath12933"><path
         d="m 44.957812,39.051562 299.903908,0 0,161.817188 -299.903908,0 0,-161.817188 z"
         id="path12935" /></clipPath><clipPath
       clipPathUnits="userSpaceOnUse"
       id="clipPath12943"><path
         d="m 44.957812,39.051562 299.903908,0 0,161.817188 -299.903908,0 0,-161.817188 z"
         id="path12945" /></clipPath><clipPath
       clipPathUnits="userSpaceOnUse"
       id="clipPath13095"><path
         d="m -970,-305 2399,0 0,1328 -2399,0 0,-1328 z"
         id="path13097" /></clipPath><clipPath
       clipPathUnits="userSpaceOnUse"
       id="clipPath13115"><path
         d="m -970,-305 2399,0 0,1328 -2399,0 0,-1328 z"
         id="path13117" /></clipPath><clipPath
       clipPathUnits="userSpaceOnUse"
       id="clipPath13135"><path
         d="m -970,-305 2399,0 0,1328 -2399,0 0,-1328 z"
         id="path13137" /></clipPath><clipPath
       clipPathUnits="userSpaceOnUse"
       id="clipPath13155"><path
         d="m -970,-305 2399,0 0,1328 -2399,0 0,-1328 z"
         id="path13157" /></clipPath></defs><sodipodi:namedview
     pagecolor="#ffffff"
     bordercolor="#666666"
     borderopacity="1"
     objecttolerance="10"
     gridtolerance="10"
     guidetolerance="10"
     inkscape:pageopacity="0"
     inkscape:pageshadow="2"
     inkscape:window-width="640"
     inkscape:window-height="480"
     id="namedview12899"
     showgrid="false"
     inkscape:zoom="0.82"
     inkscape:cx="225"
     inkscape:cy="135"
     inkscape:window-x="0"
     inkscape:window-y="0"
     inkscape:window-maximized="0"
     inkscape:current-layer="g12905" /><g
     id="g12905"
     inkscape:groupmode="layer"
     inkscape:label="soft-dbscan-cos10-2"
     transform="matrix(1.25,0,0,-1.25,0,270)"><g
       id="g12909"><g
         id="g12911"
         clip-path="url(#clipPath12913)"><path
           d="m 44.957812,183.39249 42.843416,-10.3563 42.843412,-10.3563 42.84342,-13.59264 42.84341,-12.94538 42.84342,-4.53088 42.84341,-5.17815 42.84342,-10.3563"
           style="fill:none;stroke:#000000;stroke-opacity:1;stroke-width:1;stroke-linecap:square;stroke-linejoin:round;stroke-miterlimit:10;stroke-dasharray:none"
           id="path12917" /></g></g><g
       id="g12919"><g
         id="g12921"
         clip-path="url(#clipPath12923)"><path
           d="m 44.957812,182.09796 42.843416,-27.18529 42.843412,-19.41806 42.84342,-18.12353 42.84341,-14.88718 42.84342,-6.472687 42.84341,-5.178151 42.84342,-3.883612"
           style="fill:none;stroke:#000000;stroke-opacity:1;stroke-width:1;stroke-linecap:butt;stroke-linejoin:round;stroke-miterlimit:10;stroke-dasharray:6,6;stroke-dashoffset:0"
           id="path12927" /></g></g><g
       id="g12929"><g
         id="g12931"
         clip-path="url(#clipPath12933)"><path
           d="m 44.957812,163.97443 42.843416,-33.65797 42.843412,-10.3563 42.84342,-21.359873 42.84341,-11.003568 42.84342,-15.53445 42.84341,-3.883613 42.84342,-7.767225"
           style="fill:none;stroke:#808080;stroke-opacity:1;stroke-width:1;stroke-linecap:square;stroke-linejoin:round;stroke-miterlimit:10;stroke-dasharray:none"
           id="path12937" /></g></g><g
       id="g12939"><g
         id="g12941"
         clip-path="url(#clipPath12943)"><path
           d="m 44.957812,124.49104 42.843416,-31.716171 42.843412,-9.061763 42.84342,-15.53445 42.84341,-9.061762 42.84342,-6.472688 42.84341,-3.236344 42.84342,-0.647268"
           style="fill:none;stroke:#808080;stroke-opacity:1;stroke-width:1;stroke-linecap:butt;stroke-linejoin:round;stroke-miterlimit:10;stroke-dasharray:6,6;stroke-dashoffset:0"
           id="path12947" /></g></g><g
       id="g12949"><path
         d="m 44.957812,200.86875 299.903908,0"
         style="fill:none;stroke:#000000;stroke-opacity:1;stroke-width:1;stroke-linecap:square;stroke-linejoin:miter;stroke-miterlimit:10;stroke-dasharray:none"
         id="path12951" /><path
         d="m 344.86172,39.051562 0,161.817188"
         style="fill:none;stroke:#000000;stroke-opacity:1;stroke-width:1;stroke-linecap:square;stroke-linejoin:miter;stroke-miterlimit:10;stroke-dasharray:none"
         id="path12953" /><path
         d="m 44.957812,39.051562 299.903908,0"
         style="fill:none;stroke:#000000;stroke-opacity:1;stroke-width:1;stroke-linecap:square;stroke-linejoin:miter;stroke-miterlimit:10;stroke-dasharray:none"
         id="path12955" /><path
         d="m 44.957812,39.051562 0,161.817188"
         style="fill:none;stroke:#000000;stroke-opacity:1;stroke-width:1;stroke-linecap:square;stroke-linejoin:miter;stroke-miterlimit:10;stroke-dasharray:none"
         id="path12957" /><path
         d="m 44.957812,39.051562 0,4"
         style="fill:#000000;fill-opacity:1;fill-rule:nonzero;stroke:#000000;stroke-opacity:1;stroke-width:0.5;stroke-linecap:butt;stroke-linejoin:round;stroke-miterlimit:10;stroke-dasharray:none"
         id="path12959" /><path
         d="m 44.957812,200.86875 0,-4"
         style="fill:#000000;fill-opacity:1;fill-rule:nonzero;stroke:#000000;stroke-opacity:1;stroke-width:0.5;stroke-linecap:butt;stroke-linejoin:round;stroke-miterlimit:10;stroke-dasharray:none"
         id="path12961" /><text
         transform="matrix(1,0,0,-1,43.004687,28.223437)"
         id="text12963"><tspan
           style="fill:#000000;fill-opacity:1;fill-rule:nonzero;stroke:none;font-family:STIXGeneral;font-variant:normal;font-weight:normal;font-size:10;writing-mode:lr;-inkscape-font-specification:STIXGeneral-Regular"
           x="0"
           y="0"
           id="tspan12965">3</tspan></text>
<path
         d="m 87.801228,39.051562 0,4"
         style="fill:#000000;fill-opacity:1;fill-rule:nonzero;stroke:#000000;stroke-opacity:1;stroke-width:0.5;stroke-linecap:butt;stroke-linejoin:round;stroke-miterlimit:10;stroke-dasharray:none"
         id="path12967" /><path
         d="m 87.801228,200.86875 0,-4"
         style="fill:#000000;fill-opacity:1;fill-rule:nonzero;stroke:#000000;stroke-opacity:1;stroke-width:0.5;stroke-linecap:butt;stroke-linejoin:round;stroke-miterlimit:10;stroke-dasharray:none"
         id="path12969" /><text
         transform="matrix(1,0,0,-1,85.49654,28.223437)"
         id="text12971"><tspan
           style="fill:#000000;fill-opacity:1;fill-rule:nonzero;stroke:none;font-family:STIXGeneral;font-variant:normal;font-weight:normal;font-size:10;writing-mode:lr;-inkscape-font-specification:STIXGeneral-Regular"
           x="0"
           y="0"
           id="tspan12973">4</tspan></text>
<path
         d="m 130.64464,39.051562 0,4"
         style="fill:#000000;fill-opacity:1;fill-rule:nonzero;stroke:#000000;stroke-opacity:1;stroke-width:0.5;stroke-linecap:butt;stroke-linejoin:round;stroke-miterlimit:10;stroke-dasharray:none"
         id="path12975" /><path
         d="m 130.64464,200.86875 0,-4"
         style="fill:#000000;fill-opacity:1;fill-rule:nonzero;stroke:#000000;stroke-opacity:1;stroke-width:0.5;stroke-linecap:butt;stroke-linejoin:round;stroke-miterlimit:10;stroke-dasharray:none"
         id="path12977" /><text
         transform="matrix(1,0,0,-1,128.61339,28.223437)"
         id="text12979"><tspan
           style="fill:#000000;fill-opacity:1;fill-rule:nonzero;stroke:none;font-family:STIXGeneral;font-variant:normal;font-weight:normal;font-size:10;writing-mode:lr;-inkscape-font-specification:STIXGeneral-Regular"
           x="0"
           y="0"
           id="tspan12981">5</tspan></text>
<path
         d="m 173.48806,39.051562 0,4"
         style="fill:#000000;fill-opacity:1;fill-rule:nonzero;stroke:#000000;stroke-opacity:1;stroke-width:0.5;stroke-linecap:butt;stroke-linejoin:round;stroke-miterlimit:10;stroke-dasharray:none"
         id="path12983" /><path
         d="m 173.48806,200.86875 0,-4"
         style="fill:#000000;fill-opacity:1;fill-rule:nonzero;stroke:#000000;stroke-opacity:1;stroke-width:0.5;stroke-linecap:butt;stroke-linejoin:round;stroke-miterlimit:10;stroke-dasharray:none"
         id="path12985" /><text
         transform="matrix(1,0,0,-1,171.31618,28.223437)"
         id="text12987"><tspan
           style="fill:#000000;fill-opacity:1;fill-rule:nonzero;stroke:none;font-family:STIXGeneral;font-variant:normal;font-weight:normal;font-size:10;writing-mode:lr;-inkscape-font-specification:STIXGeneral-Regular"
           x="0"
           y="0"
           id="tspan12989">6</tspan></text>
<path
         d="m 216.33147,39.051562 0,4"
         style="fill:#000000;fill-opacity:1;fill-rule:nonzero;stroke:#000000;stroke-opacity:1;stroke-width:0.5;stroke-linecap:butt;stroke-linejoin:round;stroke-miterlimit:10;stroke-dasharray:none"
         id="path12991" /><path
         d="m 216.33147,200.86875 0,-4"
         style="fill:#000000;fill-opacity:1;fill-rule:nonzero;stroke:#000000;stroke-opacity:1;stroke-width:0.5;stroke-linecap:butt;stroke-linejoin:round;stroke-miterlimit:10;stroke-dasharray:none"
         id="path12993" /><text
         transform="matrix(1,0,0,-1,214.19085,28.223437)"
         id="text12995"><tspan
           style="fill:#000000;fill-opacity:1;fill-rule:nonzero;stroke:none;font-family:STIXGeneral;font-variant:normal;font-weight:normal;font-size:10;writing-mode:lr;-inkscape-font-specification:STIXGeneral-Regular"
           x="0"
           y="0"
           id="tspan12997">7</tspan></text>
<path
         d="m 259.17489,39.051562 0,4"
         style="fill:#000000;fill-opacity:1;fill-rule:nonzero;stroke:#000000;stroke-opacity:1;stroke-width:0.5;stroke-linecap:butt;stroke-linejoin:round;stroke-miterlimit:10;stroke-dasharray:none"
         id="path12999" /><path
         d="m 259.17489,200.86875 0,-4"
         style="fill:#000000;fill-opacity:1;fill-rule:nonzero;stroke:#000000;stroke-opacity:1;stroke-width:0.5;stroke-linecap:butt;stroke-linejoin:round;stroke-miterlimit:10;stroke-dasharray:none"
         id="path13001" /><text
         transform="matrix(1,0,0,-1,257.22958,28.223437)"
         id="text13003"><tspan
           style="fill:#000000;fill-opacity:1;fill-rule:nonzero;stroke:none;font-family:STIXGeneral;font-variant:normal;font-weight:normal;font-size:10;writing-mode:lr;-inkscape-font-specification:STIXGeneral-Regular"
           x="0"
           y="0"
           id="tspan13005">8</tspan></text>
<path
         d="m 302.0183,39.051562 0,4"
         style="fill:#000000;fill-opacity:1;fill-rule:nonzero;stroke:#000000;stroke-opacity:1;stroke-width:0.5;stroke-linecap:butt;stroke-linejoin:round;stroke-miterlimit:10;stroke-dasharray:none"
         id="path13007" /><path
         d="m 302.0183,200.86875 0,-4"
         style="fill:#000000;fill-opacity:1;fill-rule:nonzero;stroke:#000000;stroke-opacity:1;stroke-width:0.5;stroke-linecap:butt;stroke-linejoin:round;stroke-miterlimit:10;stroke-dasharray:none"
         id="path13009" /><text
         transform="matrix(1,0,0,-1,299.86987,28.223437)"
         id="text13011"><tspan
           style="fill:#000000;fill-opacity:1;fill-rule:nonzero;stroke:none;font-family:STIXGeneral;font-variant:normal;font-weight:normal;font-size:10;writing-mode:lr;-inkscape-font-specification:STIXGeneral-Regular"
           x="0"
           y="0"
           id="tspan13013">9</tspan></text>
<path
         d="m 344.86172,39.051562 0,4"
         style="fill:#000000;fill-opacity:1;fill-rule:nonzero;stroke:#000000;stroke-opacity:1;stroke-width:0.5;stroke-linecap:butt;stroke-linejoin:round;stroke-miterlimit:10;stroke-dasharray:none"
         id="path13015" /><path
         d="m 344.86172,200.86875 0,-4"
         style="fill:#000000;fill-opacity:1;fill-rule:nonzero;stroke:#000000;stroke-opacity:1;stroke-width:0.5;stroke-linecap:butt;stroke-linejoin:round;stroke-miterlimit:10;stroke-dasharray:none"
         id="path13017" /><text
         transform="matrix(1,0,0,-1,340.53359,28.223437)"
         id="text13019"><tspan
           style="fill:#000000;fill-opacity:1;fill-rule:nonzero;stroke:none;font-family:STIXGeneral;font-variant:normal;font-weight:normal;font-size:10;writing-mode:lr;-inkscape-font-specification:STIXGeneral-Regular"
           x="0 5"
           y="0"
           sodipodi:role="line"
           id="tspan13021">10</tspan></text>
<text
         transform="matrix(1,0,0,-1,177.8707,12.848438)"
         id="text13023"><tspan
           style="fill:#000000;fill-opacity:1;fill-rule:nonzero;stroke:none;font-family:STIXGeneral;font-variant:normal;font-weight:normal;font-size:12;writing-mode:lr;-inkscape-font-specification:STIXGeneral-Regular"
           x="0 10.668 14.004 20.004 26.688 30.024"
           y="0"
           sodipodi:role="line"
           id="tspan13025">MinPts</tspan></text>
<path
         d="m 44.957812,39.051562 4,0"
         style="fill:#000000;fill-opacity:1;fill-rule:nonzero;stroke:#000000;stroke-opacity:1;stroke-width:0.5;stroke-linecap:butt;stroke-linejoin:round;stroke-miterlimit:10;stroke-dasharray:none"
         id="path13027" /><path
         d="m 344.86172,39.051562 -4,0"
         style="fill:#000000;fill-opacity:1;fill-rule:nonzero;stroke:#000000;stroke-opacity:1;stroke-width:0.5;stroke-linecap:butt;stroke-linejoin:round;stroke-miterlimit:10;stroke-dasharray:none"
         id="path13029" /><text
         transform="matrix(1,0,0,-1,36.426563,36.723438)"
         id="text13031"><tspan
           style="fill:#000000;fill-opacity:1;fill-rule:nonzero;stroke:none;font-family:STIXGeneral;font-variant:normal;font-weight:normal;font-size:10;writing-mode:lr;-inkscape-font-specification:STIXGeneral-Regular"
           x="0"
           y="0"
           id="tspan13033">0</tspan></text>
<path
         d="m 44.957812,71.415 4,0"
         style="fill:#000000;fill-opacity:1;fill-rule:nonzero;stroke:#000000;stroke-opacity:1;stroke-width:0.5;stroke-linecap:butt;stroke-linejoin:round;stroke-miterlimit:10;stroke-dasharray:none"
         id="path13035" /><path
         d="m 344.86172,71.415 -4,0"
         style="fill:#000000;fill-opacity:1;fill-rule:nonzero;stroke:#000000;stroke-opacity:1;stroke-width:0.5;stroke-linecap:butt;stroke-linejoin:round;stroke-miterlimit:10;stroke-dasharray:none"
         id="path13037" /><text
         transform="matrix(1,0,0,-1,31.504687,69.086875)"
         id="text13039"><tspan
           style="fill:#000000;fill-opacity:1;fill-rule:nonzero;stroke:none;font-family:STIXGeneral;font-variant:normal;font-weight:normal;font-size:10;writing-mode:lr;-inkscape-font-specification:STIXGeneral-Regular"
           x="0 5"
           y="0"
           sodipodi:role="line"
           id="tspan13041">50</tspan></text>
<path
         d="m 44.957812,103.77844 4,0"
         style="fill:#000000;fill-opacity:1;fill-rule:nonzero;stroke:#000000;stroke-opacity:1;stroke-width:0.5;stroke-linecap:butt;stroke-linejoin:round;stroke-miterlimit:10;stroke-dasharray:none"
         id="path13043" /><path
         d="m 344.86172,103.77844 -4,0"
         style="fill:#000000;fill-opacity:1;fill-rule:nonzero;stroke:#000000;stroke-opacity:1;stroke-width:0.5;stroke-linecap:butt;stroke-linejoin:round;stroke-miterlimit:10;stroke-dasharray:none"
         id="path13045" /><text
         transform="matrix(1,0,0,-1,27.301562,101.45031)"
         id="text13047"><tspan
           style="fill:#000000;fill-opacity:1;fill-rule:nonzero;stroke:none;font-family:STIXGeneral;font-variant:normal;font-weight:normal;font-size:10;writing-mode:lr;-inkscape-font-specification:STIXGeneral-Regular"
           x="0 5 10"
           y="0"
           sodipodi:role="line"
           id="tspan13049">100</tspan></text>
<path
         d="m 44.957812,136.14187 4,0"
         style="fill:#000000;fill-opacity:1;fill-rule:nonzero;stroke:#000000;stroke-opacity:1;stroke-width:0.5;stroke-linecap:butt;stroke-linejoin:round;stroke-miterlimit:10;stroke-dasharray:none"
         id="path13051" /><path
         d="m 344.86172,136.14187 -4,0"
         style="fill:#000000;fill-opacity:1;fill-rule:nonzero;stroke:#000000;stroke-opacity:1;stroke-width:0.5;stroke-linecap:butt;stroke-linejoin:round;stroke-miterlimit:10;stroke-dasharray:none"
         id="path13053" /><text
         transform="matrix(1,0,0,-1,27.301562,133.81375)"
         id="text13055"><tspan
           style="fill:#000000;fill-opacity:1;fill-rule:nonzero;stroke:none;font-family:STIXGeneral;font-variant:normal;font-weight:normal;font-size:10;writing-mode:lr;-inkscape-font-specification:STIXGeneral-Regular"
           x="0 5 10"
           y="0"
           sodipodi:role="line"
           id="tspan13057">150</tspan></text>
<path
         d="m 44.957812,168.50531 4,0"
         style="fill:#000000;fill-opacity:1;fill-rule:nonzero;stroke:#000000;stroke-opacity:1;stroke-width:0.5;stroke-linecap:butt;stroke-linejoin:round;stroke-miterlimit:10;stroke-dasharray:none"
         id="path13059" /><path
         d="m 344.86172,168.50531 -4,0"
         style="fill:#000000;fill-opacity:1;fill-rule:nonzero;stroke:#000000;stroke-opacity:1;stroke-width:0.5;stroke-linecap:butt;stroke-linejoin:round;stroke-miterlimit:10;stroke-dasharray:none"
         id="path13061" /><text
         transform="matrix(1,0,0,-1,26.489062,166.17719)"
         id="text13063"><tspan
           style="fill:#000000;fill-opacity:1;fill-rule:nonzero;stroke:none;font-family:STIXGeneral;font-variant:normal;font-weight:normal;font-size:10;writing-mode:lr;-inkscape-font-specification:STIXGeneral-Regular"
           x="0 5 10"
           y="0"
           sodipodi:role="line"
           id="tspan13065">200</tspan></text>
<path
         d="m 44.957812,200.86875 4,0"
         style="fill:#000000;fill-opacity:1;fill-rule:nonzero;stroke:#000000;stroke-opacity:1;stroke-width:0.5;stroke-linecap:butt;stroke-linejoin:round;stroke-miterlimit:10;stroke-dasharray:none"
         id="path13067" /><path
         d="m 344.86172,200.86875 -4,0"
         style="fill:#000000;fill-opacity:1;fill-rule:nonzero;stroke:#000000;stroke-opacity:1;stroke-width:0.5;stroke-linecap:butt;stroke-linejoin:round;stroke-miterlimit:10;stroke-dasharray:none"
         id="path13069" /><text
         transform="matrix(1,0,0,-1,26.489062,198.54062)"
         id="text13071"><tspan
           style="fill:#000000;fill-opacity:1;fill-rule:nonzero;stroke:none;font-family:STIXGeneral;font-variant:normal;font-weight:normal;font-size:10;writing-mode:lr;-inkscape-font-specification:STIXGeneral-Regular"
           x="0 5 10"
           y="0"
           sodipodi:role="line"
           id="tspan13073">250</tspan></text>
<text
         transform="matrix(0,1,1,0,18.879687,80.702344)"
         id="text13075"><tspan
           style="fill:#000000;fill-opacity:1;fill-rule:nonzero;stroke:none;font-family:STIXGeneral;font-variant:normal;font-weight:normal;font-size:12;writing-mode:lr;-inkscape-font-specification:STIXGeneral-Regular"
           x="0 6 12 15 18 24 30 33.996 39.324 42.324 47.652 50.988 56.988 61.656 64.992 70.32 74.316"
           y="0"
           sodipodi:role="line"
           id="tspan13077">no. pure clusters</tspan></text>
<path
         d="m 194.06172,157.25 144.8,0 0,37.61875 -144.8,0 0,-37.61875 z"
         style="fill:none;stroke:#000000;stroke-opacity:1;stroke-width:1;stroke-linecap:butt;stroke-linejoin:miter;stroke-miterlimit:10;stroke-dasharray:none"
         id="path13079" /><path
         d="m 202.46172,185.86875 16.8,0"
         style="fill:none;stroke:#000000;stroke-opacity:1;stroke-width:1;stroke-linecap:square;stroke-linejoin:round;stroke-miterlimit:10;stroke-dasharray:none"
         id="path13081" /><g
         id="g13083"
         transform="translate(232.46172,181.66875)"><text
           transform="matrix(1,0,0,-1,7.0607849,0.890625)"
           id="text13085"><tspan
             style="fill:#000000;fill-opacity:1;fill-rule:nonzero;stroke:none;font-family:STIXGeneral;font-variant:normal;font-weight:normal;font-size:12;writing-mode:lr;-inkscape-font-specification:STIXGeneral-Regular"
             x="0 8.79529724"
             y="0"
             sodipodi:role="line"
             id="tspan13087">=3</tspan></text>
<g
           id="g13089"
           transform="matrix(0.012,0,0,0.012,0,0.890625)"><g
             id="g13091"><g
               id="g13093"
               clip-path="url(#clipPath13095)"><path
                 d="M 360,98 376,88 C 324,22 257,-10 177,-10 79,-10 30,26 30,100 c 0,30 11,57 33,81 22,24 49,40 83,49 -17,2 -30,10 -39,22 -10,12 -14,26 -14,42 0,40 21,74 62,103 41,29 95,44 162,44 32,0 58,-8 78,-24 20,-16 30,-35 30,-59 0,-14 -6,-25 -16,-33 -11,-9 -22,-13 -32,-13 -12,0 -22,3 -29,11 -7,7 -10,17 -10,29 0,6 2,14 7,24 5,10 8,18 8,24 0,13 -13,20 -37,20 -36,0 -68,-10 -97,-30 -30,-20 -44,-51 -44,-92 0,-18 6,-31 20,-40 14,-9 32,-13 54,-13 2,0 9,1 21,3 12,2 22,4 32,4 9,0 17,-2 24,-6 6,-4 10,-9 10,-15 0,-18 -15,-27 -45,-27 -6,0 -14,1 -22,4 -9,3 -17,5 -24,5 -30,0 -59,-10 -87,-28 -28,-19 -42,-45 -42,-79 0,-28 8,-49 26,-62 17,-13 38,-19 63,-19 58,0 109,24 155,73"
                 style="fill:#000000;fill-opacity:1;fill-rule:nonzero;stroke:none"
                 id="path13099" /></g></g></g></g><path
         d="m 202.46172,168.85937 16.8,0"
         style="fill:none;stroke:#000000;stroke-opacity:1;stroke-width:1;stroke-linecap:butt;stroke-linejoin:round;stroke-miterlimit:10;stroke-dasharray:6,6;stroke-dashoffset:0"
         id="path13101" /><g
         id="g13103"
         transform="translate(232.46172,164.65937)"><text
           transform="matrix(1,0,0,-1,7.0607849,0.890625)"
           id="text13105"><tspan
             style="fill:#000000;fill-opacity:1;fill-rule:nonzero;stroke:none;font-family:STIXGeneral;font-variant:normal;font-weight:normal;font-size:12;writing-mode:lr;-inkscape-font-specification:STIXGeneral-Regular"
             x="0 8.79529724"
             y="0"
             sodipodi:role="line"
             id="tspan13107">=4</tspan></text>
<g
           id="g13109"
           transform="matrix(0.012,0,0,0.012,0,0.890625)"><g
             id="g13111"><g
               id="g13113"
               clip-path="url(#clipPath13115)"><path
                 d="M 360,98 376,88 C 324,22 257,-10 177,-10 79,-10 30,26 30,100 c 0,30 11,57 33,81 22,24 49,40 83,49 -17,2 -30,10 -39,22 -10,12 -14,26 -14,42 0,40 21,74 62,103 41,29 95,44 162,44 32,0 58,-8 78,-24 20,-16 30,-35 30,-59 0,-14 -6,-25 -16,-33 -11,-9 -22,-13 -32,-13 -12,0 -22,3 -29,11 -7,7 -10,17 -10,29 0,6 2,14 7,24 5,10 8,18 8,24 0,13 -13,20 -37,20 -36,0 -68,-10 -97,-30 -30,-20 -44,-51 -44,-92 0,-18 6,-31 20,-40 14,-9 32,-13 54,-13 2,0 9,1 21,3 12,2 22,4 32,4 9,0 17,-2 24,-6 6,-4 10,-9 10,-15 0,-18 -15,-27 -45,-27 -6,0 -14,1 -22,4 -9,3 -17,5 -24,5 -30,0 -59,-10 -87,-28 -28,-19 -42,-45 -42,-79 0,-28 8,-49 26,-62 17,-13 38,-19 63,-19 58,0 109,24 155,73"
                 style="fill:#000000;fill-opacity:1;fill-rule:nonzero;stroke:none"
                 id="path13119" /></g></g></g></g><path
         d="m 282.06172,185.86875 16.8,0"
         style="fill:none;stroke:#808080;stroke-opacity:1;stroke-width:1;stroke-linecap:square;stroke-linejoin:round;stroke-miterlimit:10;stroke-dasharray:none"
         id="path13121" /><g
         id="g13123"
         transform="translate(312.06172,181.66875)"><text
           transform="matrix(1,0,0,-1,7.0607849,0.75)"
           id="text13125"><tspan
             style="fill:#000000;fill-opacity:1;fill-rule:nonzero;stroke:none;font-family:STIXGeneral;font-variant:normal;font-weight:normal;font-size:12;writing-mode:lr;-inkscape-font-specification:STIXGeneral-Regular"
             x="0 8.79529724"
             y="0"
             sodipodi:role="line"
             id="tspan13127">=5</tspan></text>
<g
           id="g13129"
           transform="matrix(0.012,0,0,0.012,0,0.75)"><g
             id="g13131"><g
               id="g13133"
               clip-path="url(#clipPath13135)"><path
                 d="M 360,98 376,88 C 324,22 257,-10 177,-10 79,-10 30,26 30,100 c 0,30 11,57 33,81 22,24 49,40 83,49 -17,2 -30,10 -39,22 -10,12 -14,26 -14,42 0,40 21,74 62,103 41,29 95,44 162,44 32,0 58,-8 78,-24 20,-16 30,-35 30,-59 0,-14 -6,-25 -16,-33 -11,-9 -22,-13 -32,-13 -12,0 -22,3 -29,11 -7,7 -10,17 -10,29 0,6 2,14 7,24 5,10 8,18 8,24 0,13 -13,20 -37,20 -36,0 -68,-10 -97,-30 -30,-20 -44,-51 -44,-92 0,-18 6,-31 20,-40 14,-9 32,-13 54,-13 2,0 9,1 21,3 12,2 22,4 32,4 9,0 17,-2 24,-6 6,-4 10,-9 10,-15 0,-18 -15,-27 -45,-27 -6,0 -14,1 -22,4 -9,3 -17,5 -24,5 -30,0 -59,-10 -87,-28 -28,-19 -42,-45 -42,-79 0,-28 8,-49 26,-62 17,-13 38,-19 63,-19 58,0 109,24 155,73"
                 style="fill:#000000;fill-opacity:1;fill-rule:nonzero;stroke:none"
                 id="path13139" /></g></g></g></g><path
         d="m 282.06172,168.85937 16.8,0"
         style="fill:none;stroke:#808080;stroke-opacity:1;stroke-width:1;stroke-linecap:butt;stroke-linejoin:round;stroke-miterlimit:10;stroke-dasharray:6,6;stroke-dashoffset:0"
         id="path13141" /><g
         id="g13143"
         transform="translate(312.06172,164.65937)"><text
           transform="matrix(1,0,0,-1,7.0607849,0.796875)"
           id="text13145"><tspan
             style="fill:#000000;fill-opacity:1;fill-rule:nonzero;stroke:none;font-family:STIXGeneral;font-variant:normal;font-weight:normal;font-size:12;writing-mode:lr;-inkscape-font-specification:STIXGeneral-Regular"
             x="0 8.79529724"
             y="0"
             sodipodi:role="line"
             id="tspan13147">=6</tspan></text>
<g
           id="g13149"
           transform="matrix(0.012,0,0,0.012,0,0.796875)"><g
             id="g13151"><g
               id="g13153"
               clip-path="url(#clipPath13155)"><path
                 d="M 360,98 376,88 C 324,22 257,-10 177,-10 79,-10 30,26 30,100 c 0,30 11,57 33,81 22,24 49,40 83,49 -17,2 -30,10 -39,22 -10,12 -14,26 -14,42 0,40 21,74 62,103 41,29 95,44 162,44 32,0 58,-8 78,-24 20,-16 30,-35 30,-59 0,-14 -6,-25 -16,-33 -11,-9 -22,-13 -32,-13 -12,0 -22,3 -29,11 -7,7 -10,17 -10,29 0,6 2,14 7,24 5,10 8,18 8,24 0,13 -13,20 -37,20 -36,0 -68,-10 -97,-30 -30,-20 -44,-51 -44,-92 0,-18 6,-31 20,-40 14,-9 32,-13 54,-13 2,0 9,1 21,3 12,2 22,4 32,4 9,0 17,-2 24,-6 6,-4 10,-9 10,-15 0,-18 -15,-27 -45,-27 -6,0 -14,1 -22,4 -9,3 -17,5 -24,5 -30,0 -59,-10 -87,-28 -28,-19 -42,-45 -42,-79 0,-28 8,-49 26,-62 17,-13 38,-19 63,-19 58,0 109,24 155,73"
                 style="fill:#000000;fill-opacity:1;fill-rule:nonzero;stroke:none"
                 id="path13159" /></g></g></g></g></g></g></svg>