<?xml version="1.0" encoding="UTF-8" standalone="no"?>
<!-- Created with Inkscape (http://www.inkscape.org/) -->

<svg
   xmlns:dc="http://purl.org/dc/elements/1.1/"
   xmlns:cc="http://creativecommons.org/ns#"
   xmlns:rdf="http://www.w3.org/1999/02/22-rdf-syntax-ns#"
   xmlns:svg="http://www.w3.org/2000/svg"
   xmlns="http://www.w3.org/2000/svg"
   xmlns:sodipodi="http://sodipodi.sourceforge.net/DTD/sodipodi-0.dtd"
   xmlns:inkscape="http://www.inkscape.org/namespaces/inkscape"
   id="svg12635"
   version="1.1"
   inkscape:version="0.48.4 r9939"
   width="450"
   height="270"
   xml:space="preserve"
   sodipodi:docname="soft-dbscan-cos10.pdf"><metadata
     id="metadata12641"><rdf:RDF><cc:Work
         rdf:about=""><dc:format>image/svg+xml</dc:format><dc:type
           rdf:resource="http://purl.org/dc/dcmitype/StillImage" /><dc:title></dc:title></cc:Work></rdf:RDF></metadata><defs
     id="defs12639"><clipPath
       clipPathUnits="userSpaceOnUse"
       id="clipPath12663"><path
         d="m -970,-305 2399,0 0,1328 -2399,0 0,-1328 z"
         id="path12665" /></clipPath><clipPath
       clipPathUnits="userSpaceOnUse"
       id="clipPath12861"><path
         d="m 10.8,10.8 338.4,0 0,194.4 -338.4,0 0,-194.4 z"
         id="path12863" /></clipPath></defs><sodipodi:namedview
     pagecolor="#ffffff"
     bordercolor="#666666"
     borderopacity="1"
     objecttolerance="10"
     gridtolerance="10"
     guidetolerance="10"
     inkscape:pageopacity="0"
     inkscape:pageshadow="2"
     inkscape:window-width="867"
     inkscape:window-height="604"
     id="namedview12637"
     showgrid="false"
     inkscape:zoom="0.79777778"
     inkscape:cx="225"
     inkscape:cy="135"
     inkscape:window-x="0"
     inkscape:window-y="0"
     inkscape:window-maximized="0"
     inkscape:current-layer="g12643" /><g
     id="g12643"
     inkscape:groupmode="layer"
     inkscape:label="soft-dbscan-cos10"
     transform="matrix(1.25,0,0,-1.25,0,270)"><path
       d="m 132.07477,113.54486 167.98698,-22.684263 7.808,83.329983 -179.24911,21.942"
       style="fill:#f2f2f2;fill-opacity:0.5;fill-rule:nonzero;stroke:#f2f2f2;stroke-opacity:0.5;stroke-width:1;stroke-linecap:butt;stroke-linejoin:miter;stroke-miterlimit:10;stroke-dasharray:none"
       id="path12647" /><path
       d="M 132.07477,113.54486 63.628845,48.27634 55.038337,132.79747 128.62064,196.13258"
       style="fill:#e6e6e6;fill-opacity:0.5;fill-rule:nonzero;stroke:#e6e6e6;stroke-opacity:0.5;stroke-width:1;stroke-linecap:butt;stroke-linejoin:miter;stroke-miterlimit:10;stroke-dasharray:none"
       id="path12649" /><path
       d="M 132.07477,113.54486 63.628845,48.27634 242.537,22.047219 300.06175,90.860597"
       style="fill:#ececec;fill-opacity:0.5;fill-rule:nonzero;stroke:#ececec;stroke-opacity:0.5;stroke-width:1;stroke-linecap:butt;stroke-linejoin:miter;stroke-miterlimit:10;stroke-dasharray:none"
       id="path12651" /><path
       d="M 300.06175,90.860597 242.537,22.047219"
       style="fill:none;stroke:#000000;stroke-opacity:1;stroke-width:0.75;stroke-linecap:square;stroke-linejoin:round;stroke-miterlimit:10;stroke-dasharray:none"
       id="path12653" /><g
       id="g12655"
       transform="matrix(0.64136979,0.7672319,-0.7672319,0.64136979,294.50498,40.407954)"><g
         id="g12657"
         transform="matrix(0.012,0,0,0.012,0,0.703125)"><g
           id="g12659"><g
             id="g12661"
             clip-path="url(#clipPath12663)"><path
               d="M 360,98 376,88 C 324,22 257,-10 177,-10 79,-10 30,26 30,100 c 0,30 11,57 33,81 22,24 49,40 83,49 -17,2 -30,10 -39,22 -10,12 -14,26 -14,42 0,40 21,74 62,103 41,29 95,44 162,44 32,0 58,-8 78,-24 20,-16 30,-35 30,-59 0,-14 -6,-25 -16,-33 -11,-9 -22,-13 -32,-13 -12,0 -22,3 -29,11 -7,7 -10,17 -10,29 0,6 2,14 7,24 5,10 8,18 8,24 0,13 -13,20 -37,20 -36,0 -68,-10 -97,-30 -30,-20 -44,-51 -44,-92 0,-18 6,-31 20,-40 14,-9 32,-13 54,-13 2,0 9,1 21,3 12,2 22,4 32,4 9,0 17,-2 24,-6 6,-4 10,-9 10,-15 0,-18 -15,-27 -45,-27 -6,0 -14,1 -22,4 -9,3 -17,5 -24,5 -30,0 -59,-10 -87,-28 -28,-19 -42,-45 -42,-79 0,-28 8,-49 26,-62 17,-13 38,-19 63,-19 58,0 109,24 155,73"
               style="fill:#000000;fill-opacity:1;fill-rule:nonzero;stroke:none"
               id="path12667" /></g></g></g></g><path
       d="m 298.99133,89.580117 -168.19261,22.747933 -3.5433,82.62943"
       style="fill:none;stroke:#e6e6e6;stroke-opacity:1;stroke-width:1;stroke-linecap:butt;stroke-linejoin:round;stroke-miterlimit:10;stroke-dasharray:none"
       id="path12669" /><path
       d="m 291.56857,80.700722 -169.61596,23.191868 -4.16838,82.91267"
       style="fill:none;stroke:#e6e6e6;stroke-opacity:1;stroke-width:1;stroke-linecap:butt;stroke-linejoin:round;stroke-miterlimit:10;stroke-dasharray:none"
       id="path12671" /><path
       d="M 283.99835,71.644924 112.93526,95.293845 108.11738,178.48464"
       style="fill:none;stroke:#e6e6e6;stroke-opacity:1;stroke-width:1;stroke-linecap:butt;stroke-linejoin:round;stroke-miterlimit:10;stroke-dasharray:none"
       id="path12673" /><path
       d="M 276.27623,62.407413 103.74166,86.527036 98.248743,169.99032"
       style="fill:none;stroke:#e6e6e6;stroke-opacity:1;stroke-width:1;stroke-linecap:butt;stroke-linejoin:round;stroke-miterlimit:10;stroke-dasharray:none"
       id="path12675" /><path
       d="M 268.39758,52.982665 94.366602,77.587185 88.171943,161.31684"
       style="fill:none;stroke:#e6e6e6;stroke-opacity:1;stroke-width:1;stroke-linecap:butt;stroke-linejoin:round;stroke-miterlimit:10;stroke-dasharray:none"
       id="path12677" /><path
       d="M 260.35761,43.364928 84.804647,68.469116 77.880318,152.45844"
       style="fill:none;stroke:#e6e6e6;stroke-opacity:1;stroke-width:1;stroke-linecap:butt;stroke-linejoin:round;stroke-miterlimit:10;stroke-dasharray:none"
       id="path12679" /><path
       d="M 252.15129,33.548213 75.050155,59.167448 67.366926,143.40916"
       style="fill:none;stroke:#e6e6e6;stroke-opacity:1;stroke-width:1;stroke-linecap:butt;stroke-linejoin:round;stroke-miterlimit:10;stroke-dasharray:none"
       id="path12681" /><path
       d="M 243.77343,23.526282 65.09725,49.676579 56.62452,134.16276"
       style="fill:none;stroke:#e6e6e6;stroke-opacity:1;stroke-width:1;stroke-linecap:butt;stroke-linejoin:round;stroke-miterlimit:10;stroke-dasharray:none"
       id="path12683" /><path
       d="m 297.61129,89.766765 4.14183,-0.560178"
       style="fill:none;stroke:#000000;stroke-opacity:1;stroke-width:1;stroke-linecap:square;stroke-linejoin:round;stroke-miterlimit:10;stroke-dasharray:none"
       id="path12685" /><text
       transform="matrix(1,0,0,-1,306.27469,77.084475)"
       id="text12687"><tspan
         style="fill:#000000;fill-opacity:1;fill-rule:nonzero;stroke:none;font-family:STIXGeneral;font-variant:normal;font-weight:normal;font-size:10;writing-mode:lr;-inkscape-font-specification:STIXGeneral-Regular"
         x="0"
         y="0"
         id="tspan12689">3</tspan></text>
<path
       d="m 290.17652,80.89106 4.17791,-0.571253"
       style="fill:none;stroke:#000000;stroke-opacity:1;stroke-width:1;stroke-linecap:square;stroke-linejoin:round;stroke-miterlimit:10;stroke-dasharray:none"
       id="path12691" /><text
       transform="matrix(1,0,0,-1,298.60676,68.16828)"
       id="text12693"><tspan
         style="fill:#000000;fill-opacity:1;fill-rule:nonzero;stroke:none;font-family:STIXGeneral;font-variant:normal;font-weight:normal;font-size:10;writing-mode:lr;-inkscape-font-specification:STIXGeneral-Regular"
         x="0"
         y="0"
         id="tspan12695">4</tspan></text>
<path
       d="m 282.59407,71.839062 4.21463,-0.58266"
       style="fill:none;stroke:#000000;stroke-opacity:1;stroke-width:1;stroke-linecap:square;stroke-linejoin:round;stroke-miterlimit:10;stroke-dasharray:none"
       id="path12697" /><text
       transform="matrix(1,0,0,-1,291.41879,59.075329)"
       id="text12699"><tspan
         style="fill:#000000;fill-opacity:1;fill-rule:nonzero;stroke:none;font-family:STIXGeneral;font-variant:normal;font-weight:normal;font-size:10;writing-mode:lr;-inkscape-font-specification:STIXGeneral-Regular"
         x="0"
         y="0"
         id="tspan12701">5</tspan></text>
<path
       d="m 274.8595,62.605466 4.25199,-0.594411"
       style="fill:none;stroke:#000000;stroke-opacity:1;stroke-width:1;stroke-linecap:square;stroke-linejoin:round;stroke-miterlimit:10;stroke-dasharray:none"
       id="path12703" /><text
       transform="matrix(1,0,0,-1,283.66736,49.800314)"
       id="text12705"><tspan
         style="fill:#000000;fill-opacity:1;fill-rule:nonzero;stroke:none;font-family:STIXGeneral;font-variant:normal;font-weight:normal;font-size:10;writing-mode:lr;-inkscape-font-specification:STIXGeneral-Regular"
         x="0"
         y="0"
         id="tspan12707">6</tspan></text>
<path
       d="M 266.96819,53.184752 271.2582,52.57823"
       style="fill:none;stroke:#000000;stroke-opacity:1;stroke-width:1;stroke-linecap:square;stroke-linejoin:round;stroke-miterlimit:10;stroke-dasharray:none"
       id="path12709" /><text
       transform="matrix(1,0,0,-1,275.93388,40.337713)"
       id="text12711"><tspan
         style="fill:#000000;fill-opacity:1;fill-rule:nonzero;stroke:none;font-family:STIXGeneral;font-variant:normal;font-weight:normal;font-size:10;writing-mode:lr;-inkscape-font-specification:STIXGeneral-Regular"
         x="0"
         y="0"
         id="tspan12713">7</tspan></text>
<path
       d="m 258.91533,43.571174 4.3287,-0.619007"
       style="fill:none;stroke:#000000;stroke-opacity:1;stroke-width:1;stroke-linecap:square;stroke-linejoin:round;stroke-miterlimit:10;stroke-dasharray:none"
       id="path12715" /><text
       transform="matrix(1,0,0,-1,268.20582,30.681775)"
       id="text12717"><tspan
         style="fill:#000000;fill-opacity:1;fill-rule:nonzero;stroke:none;font-family:STIXGeneral;font-variant:normal;font-weight:normal;font-size:10;writing-mode:lr;-inkscape-font-specification:STIXGeneral-Regular"
         x="0"
         y="0"
         id="tspan12719">8</tspan></text>
<path
       d="m 250.69591,33.758748 4.36807,-0.631881"
       style="fill:none;stroke:#000000;stroke-opacity:1;stroke-width:1;stroke-linecap:square;stroke-linejoin:round;stroke-miterlimit:10;stroke-dasharray:none"
       id="path12721" /><text
       transform="matrix(1,0,0,-1,259.91575,20.826515)"
       id="text12723"><tspan
         style="fill:#000000;fill-opacity:1;fill-rule:nonzero;stroke:none;font-family:STIXGeneral;font-variant:normal;font-weight:normal;font-size:10;writing-mode:lr;-inkscape-font-specification:STIXGeneral-Regular"
         x="0"
         y="0"
         id="tspan12725">9</tspan></text>
<path
       d="m 242.3047,23.74124 4.40816,-0.64516"
       style="fill:none;stroke:#000000;stroke-opacity:1;stroke-width:1;stroke-linecap:square;stroke-linejoin:round;stroke-miterlimit:10;stroke-dasharray:none"
       id="path12727" /><text
       transform="matrix(1,0,0,-1,249.48046,10.765696)"
       id="text12729"><tspan
         style="fill:#000000;fill-opacity:1;fill-rule:nonzero;stroke:none;font-family:STIXGeneral;font-variant:normal;font-weight:normal;font-size:10;writing-mode:lr;-inkscape-font-specification:STIXGeneral-Regular"
         x="0 5"
         y="0"
         sodipodi:role="line"
         id="tspan12731">10</tspan></text>
<path
       d="M 63.628845,48.27634 242.537,22.047219"
       style="fill:none;stroke:#000000;stroke-opacity:1;stroke-width:0.75;stroke-linecap:square;stroke-linejoin:round;stroke-miterlimit:10;stroke-dasharray:none"
       id="path12733" /><text
       transform="matrix(0.98942344,-0.14505603,-0.14505603,-0.98942344,126.17513,15.675036)"
       id="text12735"><tspan
         style="fill:#000000;fill-opacity:1;fill-rule:nonzero;stroke:none;font-family:STIXGeneral;font-variant:normal;font-weight:normal;font-size:12;writing-mode:lr;-inkscape-font-specification:STIXGeneral-Regular"
         x="0 10.668 14.004 20.004 26.688 30.024"
         y="0"
         sodipodi:role="line"
         id="tspan12737">MinPts</tspan></text>
<path
       d="M 132.11135,195.70528 135.35162,113.10237 67.112168,47.765662"
       style="fill:none;stroke:#e6e6e6;stroke-opacity:1;stroke-width:1;stroke-linecap:butt;stroke-linejoin:round;stroke-miterlimit:10;stroke-dasharray:none"
       id="path12739" /><path
       d="M 156.14896,192.76282 157.91064,110.05609 91.099707,44.24893"
       style="fill:none;stroke:#e6e6e6;stroke-opacity:1;stroke-width:1;stroke-linecap:butt;stroke-linejoin:round;stroke-miterlimit:10;stroke-dasharray:none"
       id="path12741" /><path
       d="m 180.36479,189.79855 0.26173,-82.80992 -65.36,-66.282715"
       style="fill:none;stroke:#e6e6e6;stroke-opacity:1;stroke-width:1;stroke-linecap:butt;stroke-linejoin:round;stroke-miterlimit:10;stroke-dasharray:none"
       id="path12743" /><path
       d="M 204.76084,186.81221 203.50089,103.89977 139.61464,37.13632"
       style="fill:none;stroke:#e6e6e6;stroke-opacity:1;stroke-width:1;stroke-linecap:butt;stroke-linejoin:round;stroke-miterlimit:10;stroke-dasharray:none"
       id="path12745" /><path
       d="M 229.33912,183.80357 226.53544,100.78928 164.14609,33.539846"
       style="fill:none;stroke:#e6e6e6;stroke-opacity:1;stroke-width:1;stroke-linecap:butt;stroke-linejoin:round;stroke-miterlimit:10;stroke-dasharray:none"
       id="path12747" /><path
       d="M 254.10168,180.77237 249.73184,97.656939 188.86297,29.916188"
       style="fill:none;stroke:#e6e6e6;stroke-opacity:1;stroke-width:1;stroke-linecap:butt;stroke-linejoin:round;stroke-miterlimit:10;stroke-dasharray:none"
       id="path12749" /><path
       d="M 279.0506,177.71835 273.0918,94.502507 213.76739,26.265036"
       style="fill:none;stroke:#e6e6e6;stroke-opacity:1;stroke-width:1;stroke-linecap:butt;stroke-linejoin:round;stroke-miterlimit:10;stroke-dasharray:none"
       id="path12751" /><path
       d="M 304.188,174.64127 296.61707,91.325753 238.86147,22.586076"
       style="fill:none;stroke:#e6e6e6;stroke-opacity:1;stroke-width:1;stroke-linecap:butt;stroke-linejoin:round;stroke-miterlimit:10;stroke-dasharray:none"
       id="path12753" /><path
       d="M 67.698302,48.326863 65.937808,46.641257"
       style="fill:none;stroke:#000000;stroke-opacity:1;stroke-width:1;stroke-linecap:square;stroke-linejoin:round;stroke-miterlimit:10;stroke-dasharray:none"
       id="path12755" /><text
       transform="matrix(1,0,0,-1,61.488499,32.583296)"
       id="text12757"><tspan
         style="fill:#000000;fill-opacity:1;fill-rule:nonzero;stroke:none;font-family:STIXGeneral;font-variant:normal;font-weight:normal;font-size:10;writing-mode:lr;-inkscape-font-specification:STIXGeneral-Regular"
         x="0"
         y="0"
         id="tspan12759">3</tspan></text>
<path
       d="M 91.673717,44.814316 89.949629,43.116132"
       style="fill:none;stroke:#000000;stroke-opacity:1;stroke-width:1;stroke-linecap:square;stroke-linejoin:round;stroke-miterlimit:10;stroke-dasharray:none"
       id="path12761" /><text
       transform="matrix(1,0,0,-1,85.121534,29.033874)"
       id="text12763"><tspan
         style="fill:#000000;fill-opacity:1;fill-rule:nonzero;stroke:none;font-family:STIXGeneral;font-variant:normal;font-weight:normal;font-size:10;writing-mode:lr;-inkscape-font-specification:STIXGeneral-Regular"
         x="0"
         y="0"
         id="tspan12765">4</tspan></text>
<path
       d="m 115.82821,41.275533 -1.68708,-1.710904"
       style="fill:none;stroke:#000000;stroke-opacity:1;stroke-width:1;stroke-linecap:square;stroke-linejoin:round;stroke-miterlimit:10;stroke-dasharray:none"
       id="path12767" /><text
       transform="matrix(1,0,0,-1,109.55891,25.457912)"
       id="text12769"><tspan
         style="fill:#000000;fill-opacity:1;fill-rule:nonzero;stroke:none;font-family:STIXGeneral;font-variant:normal;font-weight:normal;font-size:10;writing-mode:lr;-inkscape-font-specification:STIXGeneral-Regular"
         x="0"
         y="0"
         id="tspan12771">5</tspan></text>
<path
       d="m 140.1638,37.710218 -1.64948,-1.723767"
       style="fill:none;stroke:#000000;stroke-opacity:1;stroke-width:1;stroke-linecap:square;stroke-linejoin:round;stroke-miterlimit:10;stroke-dasharray:none"
       id="path12773" /><text
       transform="matrix(1,0,0,-1,133.76357,21.855112)"
       id="text12775"><tspan
         style="fill:#000000;fill-opacity:1;fill-rule:nonzero;stroke:none;font-family:STIXGeneral;font-variant:normal;font-weight:normal;font-size:10;writing-mode:lr;-inkscape-font-specification:STIXGeneral-Regular"
         x="0"
         y="0"
         id="tspan12777">6</tspan></text>
<path
       d="m 164.68253,34.118072 -1.61126,-1.736775"
       style="fill:none;stroke:#000000;stroke-opacity:1;stroke-width:1;stroke-linecap:square;stroke-linejoin:round;stroke-miterlimit:10;stroke-dasharray:none"
       id="path12779" /><text
       transform="matrix(1,0,0,-1,158.32352,18.22517)"
       id="text12781"><tspan
         style="fill:#000000;fill-opacity:1;fill-rule:nonzero;stroke:none;font-family:STIXGeneral;font-variant:normal;font-weight:normal;font-size:10;writing-mode:lr;-inkscape-font-specification:STIXGeneral-Regular"
         x="0"
         y="0"
         id="tspan12783">7</tspan></text>
<path
       d="M 189.38648,30.498792 187.81406,28.74886"
       style="fill:none;stroke:#000000;stroke-opacity:1;stroke-width:1;stroke-linecap:square;stroke-linejoin:round;stroke-miterlimit:10;stroke-dasharray:none"
       id="path12785" /><text
       transform="matrix(1,0,0,-1,183.23301,14.567779)"
       id="text12787"><tspan
         style="fill:#000000;fill-opacity:1;fill-rule:nonzero;stroke:none;font-family:STIXGeneral;font-variant:normal;font-weight:normal;font-size:10;writing-mode:lr;-inkscape-font-specification:STIXGeneral-Regular"
         x="0"
         y="0"
         id="tspan12789">8</tspan></text>
<path
       d="m 214.27774,26.852067 -1.53293,-1.763238"
       style="fill:none;stroke:#000000;stroke-opacity:1;stroke-width:1;stroke-linecap:square;stroke-linejoin:round;stroke-miterlimit:10;stroke-dasharray:none"
       id="path12791" /><text
       transform="matrix(1,0,0,-1,207.93166,10.882626)"
       id="text12793"><tspan
         style="fill:#000000;fill-opacity:1;fill-rule:nonzero;stroke:none;font-family:STIXGeneral;font-variant:normal;font-weight:normal;font-size:10;writing-mode:lr;-inkscape-font-specification:STIXGeneral-Regular"
         x="0"
         y="0"
         id="tspan12795">9</tspan></text>
<path
       d="m 239.35846,23.177586 -1.49279,-1.776697"
       style="fill:none;stroke:#000000;stroke-opacity:1;stroke-width:1;stroke-linecap:square;stroke-linejoin:round;stroke-miterlimit:10;stroke-dasharray:none"
       id="path12797" /><text
       transform="matrix(1,0,0,-1,230.8435,7.1693927)"
       id="text12799"><tspan
         style="fill:#000000;fill-opacity:1;fill-rule:nonzero;stroke:none;font-family:STIXGeneral;font-variant:normal;font-weight:normal;font-size:10;writing-mode:lr;-inkscape-font-specification:STIXGeneral-Regular"
         x="0 5"
         y="0"
         sodipodi:role="line"
         id="tspan12801">10</tspan></text>
<path
       d="m 63.628845,48.27634 -8.590508,84.52113"
       style="fill:none;stroke:#000000;stroke-opacity:1;stroke-width:0.75;stroke-linecap:square;stroke-linejoin:round;stroke-miterlimit:10;stroke-dasharray:none"
       id="path12803" /><text
       transform="matrix(0.10111647,-0.99487459,-0.99487459,-0.10111647,19.716443,122.17695)"
       id="text12805"><tspan
         style="fill:#000000;fill-opacity:1;fill-rule:nonzero;stroke:none;font-family:STIXGeneral;font-variant:normal;font-weight:normal;font-size:12;writing-mode:lr;-inkscape-font-specification:STIXGeneral-Regular"
         x="0 6 12 15 18 24 30 33.996 39.324 42.324 47.652 50.988 56.988 61.656 64.992 70.32 74.316"
         y="0"
         sodipodi:role="line"
         id="tspan12807">no. pure clusters</tspan></text>
<path
       d="M 63.468216,49.856753 132.00987,115.09656 300.20821,92.423636"
       style="fill:none;stroke:#e6e6e6;stroke-opacity:1;stroke-width:1;stroke-linecap:butt;stroke-linejoin:round;stroke-miterlimit:10;stroke-dasharray:none"
       id="path12809" /><path
       d="M 61.904188,65.245069 131.37859,130.19044 301.63332,107.633"
       style="fill:none;stroke:#e6e6e6;stroke-opacity:1;stroke-width:1;stroke-linecap:butt;stroke-linejoin:round;stroke-miterlimit:10;stroke-dasharray:none"
       id="path12811" /><path
       d="M 60.299233,81.036055 130.73196,145.65128 303.094,123.22193"
       style="fill:none;stroke:#e6e6e6;stroke-opacity:1;stroke-width:1;stroke-linecap:butt;stroke-linejoin:round;stroke-miterlimit:10;stroke-dasharray:none"
       id="path12813" /><path
       d="M 58.651724,97.245727 130.06941,161.49263 304.59159,139.20481"
       style="fill:none;stroke:#e6e6e6;stroke-opacity:1;stroke-width:1;stroke-linecap:butt;stroke-linejoin:round;stroke-miterlimit:10;stroke-dasharray:none"
       id="path12815" /><path
       d="m 56.959946,113.89096 72.430414,63.83775 176.73715,-22.13195"
       style="fill:none;stroke:#e6e6e6;stroke-opacity:1;stroke-width:1;stroke-linecap:butt;stroke-linejoin:round;stroke-miterlimit:10;stroke-dasharray:none"
       id="path12817" /><path
       d="m 55.22209,130.98955 73.47208,63.38492 179.00909,-21.96076"
       style="fill:none;stroke:#e6e6e6;stroke-opacity:1;stroke-width:1;stroke-linecap:butt;stroke-linejoin:round;stroke-miterlimit:10;stroke-dasharray:none"
       id="path12819" /><path
       d="M 64.056977,50.417152 62.28859,48.733953"
       style="fill:none;stroke:#000000;stroke-opacity:1;stroke-width:1;stroke-linecap:square;stroke-linejoin:round;stroke-miterlimit:10;stroke-dasharray:none"
       id="path12821" /><text
       transform="matrix(1,0,0,-1,47.281203,40.525502)"
       id="text12823"><tspan
         style="fill:#000000;fill-opacity:1;fill-rule:nonzero;stroke:none;font-family:STIXGeneral;font-variant:normal;font-weight:normal;font-size:10;writing-mode:lr;-inkscape-font-specification:STIXGeneral-Regular"
         x="0"
         y="0"
         id="tspan12825">0</tspan></text>
<path
       d="M 62.50149,65.803433 60.707422,64.12632"
       style="fill:none;stroke:#000000;stroke-opacity:1;stroke-width:1;stroke-linecap:square;stroke-linejoin:round;stroke-miterlimit:10;stroke-dasharray:none"
       id="path12827" /><text
       transform="matrix(1,0,0,-1,43.071756,55.922802)"
       id="text12829"><tspan
         style="fill:#000000;fill-opacity:1;fill-rule:nonzero;stroke:none;font-family:STIXGeneral;font-variant:normal;font-weight:normal;font-size:10;writing-mode:lr;-inkscape-font-specification:STIXGeneral-Regular"
         x="0 5"
         y="0"
         sodipodi:role="line"
         id="tspan12831">50</tspan></text>
<path
       d="M 60.905324,81.592086 59.084827,79.921955"
       style="fill:none;stroke:#000000;stroke-opacity:1;stroke-width:1;stroke-linecap:square;stroke-linejoin:round;stroke-miterlimit:10;stroke-dasharray:none"
       id="path12833" /><text
       transform="matrix(1,0,0,-1,39.175805,71.724105)"
       id="text12835"><tspan
         style="fill:#000000;fill-opacity:1;fill-rule:nonzero;stroke:none;font-family:STIXGeneral;font-variant:normal;font-weight:normal;font-size:10;writing-mode:lr;-inkscape-font-specification:STIXGeneral-Regular"
         x="0 5 10"
         y="0"
         sodipodi:role="line"
         id="tspan12837">100</tspan></text>
<path
       d="M 59.266864,97.799103 57.419158,96.136918"
       style="fill:none;stroke:#000000;stroke-opacity:1;stroke-width:1;stroke-linecap:square;stroke-linejoin:round;stroke-miterlimit:10;stroke-dasharray:none"
       id="path12839" /><text
       transform="matrix(1,0,0,-1,37.333708,87.945524)"
       id="text12841"><tspan
         style="fill:#000000;fill-opacity:1;fill-rule:nonzero;stroke:none;font-family:STIXGeneral;font-variant:normal;font-weight:normal;font-size:10;writing-mode:lr;-inkscape-font-specification:STIXGeneral-Regular"
         x="0 5 10"
         y="0"
         sodipodi:role="line"
         id="tspan12843">150</tspan></text>
<path
       d="m 57.584405,114.44134 -1.875729,-1.65321"
       style="fill:none;stroke:#000000;stroke-opacity:1;stroke-width:1;stroke-linecap:square;stroke-linejoin:round;stroke-miterlimit:10;stroke-dasharray:none"
       id="path12845" /><text
       transform="matrix(1,0,0,-1,35.035725,104.60404)"
       id="text12847"><tspan
         style="fill:#000000;fill-opacity:1;fill-rule:nonzero;stroke:none;font-family:STIXGeneral;font-variant:normal;font-weight:normal;font-size:10;writing-mode:lr;-inkscape-font-specification:STIXGeneral-Regular"
         x="0 5 10"
         y="0"
         sodipodi:role="line"
         id="tspan12849">200</tspan></text>
<path
       d="m 55.856151,131.53656 -1.904605,-1.64312"
       style="fill:none;stroke:#000000;stroke-opacity:1;stroke-width:1;stroke-linecap:square;stroke-linejoin:round;stroke-miterlimit:10;stroke-dasharray:none"
       id="path12851" /><text
       transform="matrix(1,0,0,-1,33.092322,121.71756)"
       id="text12853"><tspan
         style="fill:#000000;fill-opacity:1;fill-rule:nonzero;stroke:none;font-family:STIXGeneral;font-variant:normal;font-weight:normal;font-size:10;writing-mode:lr;-inkscape-font-specification:STIXGeneral-Regular"
         x="0 5 10"
         y="0"
         sodipodi:role="line"
         id="tspan12855">250</tspan></text>
<g
       id="g12857"><g
         id="g12859"
         clip-path="url(#clipPath12861)"><path
           d="m 131.18587,183.72168 -9.10541,-13.52836 -9.21648,-13.69339 -9.2261,-15.5016 -9.339233,-15.32747 -9.771225,-11.272 -9.910902,-11.7912 -9.82559,-14.579877"
           style="fill:none;stroke:#000000;stroke-opacity:1;stroke-width:1;stroke-linecap:butt;stroke-linejoin:round;stroke-miterlimit:10;stroke-dasharray:none"
           id="path12865" /><path
           d="m 155.07515,180.08855 -8.73715,-22.15726 -8.87059,-18.26543 -8.94384,-17.71829 -9.08102,-16.24235 -9.40733,-12.282847 -9.59649,-11.841388 -9.80542,-11.407401"
           style="fill:none;stroke:#000000;stroke-opacity:1;stroke-width:1;stroke-linecap:butt;stroke-linejoin:round;stroke-miterlimit:10;stroke-dasharray:none"
           id="path12867" /><path
           d="m 179.15168,167.82834 -8.68439,-25.29886 -8.8385,-13.73336 -8.80919,-19.28909 -9.00514,-14.356391 -9.02191,-16.704736 -9.3681,-11.275197 -9.42656,-13.333636"
           style="fill:none;stroke:#000000;stroke-opacity:1;stroke-width:1;stroke-linecap:butt;stroke-linejoin:round;stroke-miterlimit:10;stroke-dasharray:none"
           id="path12869" /><path
           d="M 202.91479,145.02617 194.26681,121.02304 185.66676,107.93229 176.97361,91.577285 168.16939,78.1553 159.22342,65.780829 150.09613,54.746247 140.75851,44.738209"
           style="fill:none;stroke:#000000;stroke-opacity:1;stroke-width:1;stroke-linecap:butt;stroke-linejoin:round;stroke-miterlimit:10;stroke-dasharray:none"
           id="path12871" /><path
           d="m 226.31045,128.0393 -8.53106,-19.79748 -8.43169,-14.040036 -8.50813,-12.675536 -8.61641,-11.024804 -8.76496,-11.52029 -8.92598,-10.190357 -9.11654,-9.473294"
           style="fill:none;stroke:#000000;stroke-opacity:1;stroke-width:1;stroke-linecap:butt;stroke-linejoin:round;stroke-miterlimit:10;stroke-dasharray:none"
           id="path12873" /><path
           d="m 249.2742,109.46098 -8.17213,-13.897153 -8.14546,-11.026178 -8.25963,-10.60086 -8.3733,-9.5722 -8.54557,-10.067052 -8.71257,-10.26379 -8.88161,-9.855593"
           style="fill:none;stroke:#000000;stroke-opacity:1;stroke-width:1;stroke-linecap:butt;stroke-linejoin:round;stroke-miterlimit:10;stroke-dasharray:none"
           id="path12875" /><path
           d="m 272.31119,97.804271 -7.76104,-10.004279 -7.84585,-9.275721 -8.01512,-9.759927 -8.15491,-9.643894 -8.30511,-9.531784 -8.47652,-9.728502 -8.65327,-9.931373"
           style="fill:none;stroke:#000000;stroke-opacity:1;stroke-width:1;stroke-linecap:butt;stroke-linejoin:round;stroke-miterlimit:10;stroke-dasharray:none"
           id="path12877" /><path
           d="m 295.84587,93.415998 -7.49596,-9.163616 -7.64142,-9.341428 -7.81333,-9.827644 -7.92312,-9.409754 -8.1041,-9.907055 -8.25113,-9.802229 -8.43835,-10.312757"
           style="fill:none;stroke:#000000;stroke-opacity:1;stroke-width:1;stroke-linecap:butt;stroke-linejoin:round;stroke-miterlimit:10;stroke-dasharray:none"
           id="path12879" /><path
           d="m 131.18587,183.72168 23.88928,-3.63313 24.07653,-12.26021 23.76311,-22.80217 23.39566,-16.98687 22.96375,-18.57832 23.03699,-11.656709 23.53468,-4.388273"
           style="fill:none;stroke:#000000;stroke-opacity:1;stroke-width:1;stroke-linecap:butt;stroke-linejoin:round;stroke-miterlimit:10;stroke-dasharray:none"
           id="path12881" /><path
           d="m 122.08046,170.19332 24.25754,-12.26203 24.12929,-15.40181 23.79952,-21.50644 23.51258,-12.78122 23.32268,-12.677993 23.44808,-7.763835 23.79976,-3.54761"
           style="fill:none;stroke:#000000;stroke-opacity:1;stroke-width:1;stroke-linecap:butt;stroke-linejoin:round;stroke-miterlimit:10;stroke-dasharray:none"
           id="path12883" /><path
           d="m 112.86398,156.49993 24.60343,-16.83407 24.16138,-10.86974 24.03797,-20.86383 23.68094,-13.730506 23.60891,-9.664135 23.74769,-6.013378 24.00419,-3.613317"
           style="fill:none;stroke:#000000;stroke-opacity:1;stroke-width:1;stroke-linecap:butt;stroke-linejoin:round;stroke-miterlimit:10;stroke-dasharray:none"
           id="path12885" /><path
           d="m 103.63788,140.99833 24.88569,-19.05076 24.29603,-12.44054 24.15401,-17.929745 23.86596,-10.051037 23.85741,-7.589459 23.9922,-5.172445 24.20598,-3.681034"
           style="fill:none;stroke:#000000;stroke-opacity:1;stroke-width:1;stroke-linecap:butt;stroke-linejoin:round;stroke-miterlimit:10;stroke-dasharray:none"
           id="path12887" /><path
           d="m 94.298647,125.67086 25.143903,-19.96564 24.37191,-10.554581 24.35493,-16.995339 24.05377,-7.653856 24.10052,-6.136855 24.21059,-5.244139 24.43777,-3.446894"
           style="fill:none;stroke:#000000;stroke-opacity:1;stroke-width:1;stroke-linecap:butt;stroke-linejoin:round;stroke-miterlimit:10;stroke-dasharray:none"
           id="path12889" /><path
           d="m 84.527422,114.39886 25.507798,-20.976487 24.75733,-14.97647 24.43087,-12.665074 24.23478,-6.799675 24.31991,-4.683617 24.45105,-4.708871 24.63878,-3.822165"
           style="fill:none;stroke:#000000;stroke-opacity:1;stroke-width:1;stroke-linecap:butt;stroke-linejoin:round;stroke-miterlimit:10;stroke-dasharray:none"
           id="path12891" /><path
           d="m 74.61652,102.60766 25.82221,-21.026675 24.98572,-14.410279 24.67168,-12.424459 24.43609,-5.95545 24.53332,-4.75705 24.6871,-4.173583 24.86417,-3.895892"
           style="fill:none;stroke:#000000;stroke-opacity:1;stroke-width:1;stroke-linecap:butt;stroke-linejoin:round;stroke-miterlimit:10;stroke-dasharray:none"
           id="path12893" /><path
           d="m 64.79093,88.027783 25.84238,-17.854199 25.36458,-16.336514 24.76062,-9.098861 24.65717,-5.420706 24.76825,-5.139349 24.91544,-4.249363 25.07909,-4.277276"
           style="fill:none;stroke:#000000;stroke-opacity:1;stroke-width:1;stroke-linecap:butt;stroke-linejoin:round;stroke-miterlimit:10;stroke-dasharray:none"
           id="path12895" /></g></g></g></svg>