<?xml version="1.0" encoding="UTF-8" standalone="no"?>
<!-- Created with Inkscape (http://www.inkscape.org/) -->

<svg
   xmlns:dc="http://purl.org/dc/elements/1.1/"
   xmlns:cc="http://creativecommons.org/ns#"
   xmlns:rdf="http://www.w3.org/1999/02/22-rdf-syntax-ns#"
   xmlns:svg="http://www.w3.org/2000/svg"
   xmlns="http://www.w3.org/2000/svg"
   xmlns:sodipodi="http://sodipodi.sourceforge.net/DTD/sodipodi-0.dtd"
   xmlns:inkscape="http://www.inkscape.org/namespaces/inkscape"
   id="svg4311"
   version="1.1"
   inkscape:version="0.48.4 r9939"
   width="314.66992"
   height="176.99829"
   xml:space="preserve"
   sodipodi:docname="tanh.svg"><metadata
     id="metadata4317"><rdf:RDF><cc:Work
         rdf:about=""><dc:format>image/svg+xml</dc:format><dc:type
           rdf:resource="http://purl.org/dc/dcmitype/StillImage" /><dc:title></dc:title></cc:Work></rdf:RDF></metadata><defs
     id="defs4315"><clipPath
       clipPathUnits="userSpaceOnUse"
       id="clipPath4327"><path
         d="m 42.496875,39.051562 230.364845,0 0,130.148438 -230.364845,0 0,-130.148438 z"
         id="path4329"
         inkscape:connector-curvature="0" /></clipPath><clipPath
       clipPathUnits="userSpaceOnUse"
       id="clipPath4337"><path
         d="m 42.496875,39.051562 230.364845,0 0,130.148438 -230.364845,0 0,-130.148438 z"
         id="path4339"
         inkscape:connector-curvature="0" /></clipPath></defs><sodipodi:namedview
     pagecolor="#ffffff"
     bordercolor="#666666"
     borderopacity="1"
     objecttolerance="10"
     gridtolerance="10"
     guidetolerance="10"
     inkscape:pageopacity="0"
     inkscape:pageshadow="2"
     inkscape:window-width="1366"
     inkscape:window-height="716"
     id="namedview4313"
     showgrid="false"
     inkscape:zoom="2.254885"
     inkscape:cx="146.39917"
     inkscape:cy="77.373292"
     inkscape:window-x="-8"
     inkscape:window-y="-8"
     inkscape:window-maximized="1"
     inkscape:current-layer="g4343"
     fit-margin-top="0"
     fit-margin-left="0"
     fit-margin-right="0"
     fit-margin-bottom="0" /><g
     id="g4319"
     inkscape:groupmode="layer"
     inkscape:label="tanh"
     transform="matrix(1.25,0,0,-1.25,-33.60083,212.125)"><g
       id="g4323"><g
         id="g4325"
         clip-path="url(#clipPath4327)"><path
           d="m 42.496875,39.051562 4.607297,11.792395 4.607297,11.560414 4.607297,11.114356 4.607296,10.487166 4.607297,9.721875 4.607297,8.865762 4.607297,7.96487 4.607297,7.05984 4.607297,6.18337 4.607297,5.35931 4.607297,4.60309 4.607296,3.92287 4.607293,3.32098 4.6073,2.79564 4.6073,2.34227 4.6073,1.95463 4.60729,1.62573 4.6073,1.34845 4.6073,1.1159 4.60729,0.9217 4.6073,0.76011 4.6073,0.62604 4.60729,0.51506 4.6073,0.4234 4.6073,0.34778 4.60729,0.28551 4.6073,0.23427 4.6073,0.19216 4.60729,0.15756 4.6073,0.12915 4.6073,0.10585 4.60729,0.0867 4.6073,0.0711 4.6073,0.0582 4.6073,0.0477 4.60729,0.0391 4.6073,0.032 4.6073,0.0262 4.60729,0.0215 4.6073,0.0176 4.6073,0.0144 4.60729,0.0118 4.6073,0.01 4.6073,0.008 4.60729,0.006 4.6073,0.005 4.6073,0.004 4.6073,0.004 4.60729,0.003 4.6073,0.002"
           style="fill:none;stroke:#000000;stroke-width:1;stroke-linecap:square;stroke-linejoin:round;stroke-miterlimit:10;stroke-opacity:1;stroke-dasharray:none"
           id="path4331"
           inkscape:connector-curvature="0" /></g></g><g
       id="g4333"><g
         id="g4335"
         clip-path="url(#clipPath4337)"><path
           d="m 42.496875,39.051562 4.607297,23.352809 4.607297,21.601522 4.607297,18.587637 4.607296,15.02471 4.607297,11.54268 4.607297,8.52596 4.607297,6.11662 4.607297,4.2969 4.607297,2.97418 4.607297,2.0376 4.607297,1.38615 4.607296,0.93846 4.607293,0.63329 4.6073,0.42643 4.6073,0.28671 4.6073,0.19258 4.60729,0.12926 4.6073,0.0867 4.6073,0.0582 4.60729,0.039 4.6073,0.0262 4.6073,0.0175 4.60729,0.0118 4.6073,0.008 4.6073,0.005 4.60729,0.004 4.6073,0.002 4.6073,0.002 4.60729,10e-4 4.6073,7.2e-4 4.6073,4.8e-4 4.60729,3.2e-4 4.6073,2.2e-4 4.6073,1.4e-4 4.6073,1e-4 4.60729,6e-5 4.6073,5e-5 4.6073,2e-5 4.60729,2e-5 4.6073,2e-5 4.6073,1e-5 4.60729,0 4.6073,1e-5 4.6073,0 4.60729,0 4.6073,0 4.6073,0 4.6073,0 4.60729,0 4.6073,0"
           style="fill:none;stroke:#808080;stroke-width:1;stroke-linecap:butt;stroke-linejoin:round;stroke-miterlimit:10;stroke-opacity:1;stroke-dasharray:6, 6;stroke-dashoffset:0"
           id="path4341"
           inkscape:connector-curvature="0" /></g></g><g
       id="g4343"><path
         d="m 42.496875,169.2 230.364845,0"
         style="fill:none;stroke:#000000;stroke-width:1;stroke-linecap:square;stroke-linejoin:miter;stroke-miterlimit:10;stroke-opacity:1;stroke-dasharray:none"
         id="path4345"
         inkscape:connector-curvature="0" /><path
         d="m 272.86172,39.051562 0,130.148438"
         style="fill:none;stroke:#000000;stroke-width:1;stroke-linecap:square;stroke-linejoin:miter;stroke-miterlimit:10;stroke-opacity:1;stroke-dasharray:none"
         id="path4347"
         inkscape:connector-curvature="0" /><path
         d="m 42.496875,39.051562 230.364845,0"
         style="fill:none;stroke:#000000;stroke-width:1;stroke-linecap:square;stroke-linejoin:miter;stroke-miterlimit:10;stroke-opacity:1;stroke-dasharray:none"
         id="path4349"
         inkscape:connector-curvature="0" /><path
         d="m 42.496875,39.051562 0,130.148438"
         style="fill:none;stroke:#000000;stroke-width:1;stroke-linecap:square;stroke-linejoin:miter;stroke-miterlimit:10;stroke-opacity:1;stroke-dasharray:none"
         id="path4351"
         inkscape:connector-curvature="0" /><path
         d="m 42.496875,39.051562 0,4"
         style="fill:#000000;fill-opacity:1;fill-rule:nonzero;stroke:#000000;stroke-width:0.5;stroke-linecap:butt;stroke-linejoin:round;stroke-miterlimit:10;stroke-opacity:1;stroke-dasharray:none"
         id="path4353"
         inkscape:connector-curvature="0" /><path
         d="m 42.496875,169.2 0,-4"
         style="fill:#000000;fill-opacity:1;fill-rule:nonzero;stroke:#000000;stroke-width:0.5;stroke-linecap:butt;stroke-linejoin:round;stroke-miterlimit:10;stroke-opacity:1;stroke-dasharray:none"
         id="path4355"
         inkscape:connector-curvature="0" /><text
         transform="matrix(1,0,0,-1,40.23125,28.223437)"
         id="text4357"><tspan
           style="font-size:10px;font-variant:normal;font-weight:normal;writing-mode:lr-tb;fill:#000000;fill-opacity:1;fill-rule:nonzero;stroke:none;font-family:STIXGeneral;-inkscape-font-specification:STIXGeneral-Regular"
           x="0"
           y="0"
           id="tspan4359">0</tspan></text>
<path
         d="m 88.569844,39.051562 0,4"
         style="fill:#000000;fill-opacity:1;fill-rule:nonzero;stroke:#000000;stroke-width:0.5;stroke-linecap:butt;stroke-linejoin:round;stroke-miterlimit:10;stroke-opacity:1;stroke-dasharray:none"
         id="path4361"
         inkscape:connector-curvature="0" /><path
         d="m 88.569844,169.2 0,-4"
         style="fill:#000000;fill-opacity:1;fill-rule:nonzero;stroke:#000000;stroke-width:0.5;stroke-linecap:butt;stroke-linejoin:round;stroke-miterlimit:10;stroke-opacity:1;stroke-dasharray:none"
         id="path4363"
         inkscape:connector-curvature="0" /><text
         transform="matrix(1,0,0,-1,86.351094,28.223437)"
         id="text4365"><tspan
           style="font-size:10px;font-variant:normal;font-weight:normal;writing-mode:lr-tb;fill:#000000;fill-opacity:1;fill-rule:nonzero;stroke:none;font-family:STIXGeneral;-inkscape-font-specification:STIXGeneral-Regular"
           x="0"
           y="0"
           id="tspan4367">2</tspan></text>
<path
         d="m 134.64281,39.051562 0,4"
         style="fill:#000000;fill-opacity:1;fill-rule:nonzero;stroke:#000000;stroke-width:0.5;stroke-linecap:butt;stroke-linejoin:round;stroke-miterlimit:10;stroke-opacity:1;stroke-dasharray:none"
         id="path4369"
         inkscape:connector-curvature="0" /><path
         d="m 134.64281,169.2 0,-4"
         style="fill:#000000;fill-opacity:1;fill-rule:nonzero;stroke:#000000;stroke-width:0.5;stroke-linecap:butt;stroke-linejoin:round;stroke-miterlimit:10;stroke-opacity:1;stroke-dasharray:none"
         id="path4371"
         inkscape:connector-curvature="0" /><text
         transform="matrix(1,0,0,-1,132.33813,28.223437)"
         id="text4373"><tspan
           style="font-size:10px;font-variant:normal;font-weight:normal;writing-mode:lr-tb;fill:#000000;fill-opacity:1;fill-rule:nonzero;stroke:none;font-family:STIXGeneral;-inkscape-font-specification:STIXGeneral-Regular"
           x="0"
           y="0"
           id="tspan4375">4</tspan></text>
<path
         d="m 180.71578,39.051562 0,4"
         style="fill:#000000;fill-opacity:1;fill-rule:nonzero;stroke:#000000;stroke-width:0.5;stroke-linecap:butt;stroke-linejoin:round;stroke-miterlimit:10;stroke-opacity:1;stroke-dasharray:none"
         id="path4377"
         inkscape:connector-curvature="0" /><path
         d="m 180.71578,169.2 0,-4"
         style="fill:#000000;fill-opacity:1;fill-rule:nonzero;stroke:#000000;stroke-width:0.5;stroke-linecap:butt;stroke-linejoin:round;stroke-miterlimit:10;stroke-opacity:1;stroke-dasharray:none"
         id="path4379"
         inkscape:connector-curvature="0" /><text
         transform="matrix(1,0,0,-1,178.54391,28.223437)"
         id="text4381"><tspan
           style="font-size:10px;font-variant:normal;font-weight:normal;writing-mode:lr-tb;fill:#000000;fill-opacity:1;fill-rule:nonzero;stroke:none;font-family:STIXGeneral;-inkscape-font-specification:STIXGeneral-Regular"
           x="0"
           y="0"
           id="tspan4383">6</tspan></text>
<path
         d="m 226.78875,39.051562 0,4"
         style="fill:#000000;fill-opacity:1;fill-rule:nonzero;stroke:#000000;stroke-width:0.5;stroke-linecap:butt;stroke-linejoin:round;stroke-miterlimit:10;stroke-opacity:1;stroke-dasharray:none"
         id="path4385"
         inkscape:connector-curvature="0" /><path
         d="m 226.78875,169.2 0,-4"
         style="fill:#000000;fill-opacity:1;fill-rule:nonzero;stroke:#000000;stroke-width:0.5;stroke-linecap:butt;stroke-linejoin:round;stroke-miterlimit:10;stroke-opacity:1;stroke-dasharray:none"
         id="path4387"
         inkscape:connector-curvature="0" /><text
         transform="matrix(1,0,0,-1,224.84344,28.223437)"
         id="text4389"><tspan
           style="font-size:10px;font-variant:normal;font-weight:normal;writing-mode:lr-tb;fill:#000000;fill-opacity:1;fill-rule:nonzero;stroke:none;font-family:STIXGeneral;-inkscape-font-specification:STIXGeneral-Regular"
           x="0"
           y="0"
           id="tspan4391">8</tspan></text>
<path
         d="m 272.86172,39.051562 0,4"
         style="fill:#000000;fill-opacity:1;fill-rule:nonzero;stroke:#000000;stroke-width:0.5;stroke-linecap:butt;stroke-linejoin:round;stroke-miterlimit:10;stroke-opacity:1;stroke-dasharray:none"
         id="path4393"
         inkscape:connector-curvature="0" /><path
         d="m 272.86172,169.2 0,-4"
         style="fill:#000000;fill-opacity:1;fill-rule:nonzero;stroke:#000000;stroke-width:0.5;stroke-linecap:butt;stroke-linejoin:round;stroke-miterlimit:10;stroke-opacity:1;stroke-dasharray:none"
         id="path4395"
         inkscape:connector-curvature="0" /><text
         transform="matrix(1,0,0,-1,268.53359,28.223437)"
         id="text4397"><tspan
           style="font-size:10px;font-variant:normal;font-weight:normal;writing-mode:lr-tb;fill:#000000;fill-opacity:1;fill-rule:nonzero;stroke:none;font-family:STIXGeneral;-inkscape-font-specification:STIXGeneral-Regular"
           x="0 5"
           y="0"
           sodipodi:role="line"
           id="tspan4399">10</tspan></text>
<g
         id="g4401"
         transform="translate(154.6793,12.848438)" /><path
         d="m 42.496875,39.051562 4,0"
         style="fill:#000000;fill-opacity:1;fill-rule:nonzero;stroke:#000000;stroke-width:0.5;stroke-linecap:butt;stroke-linejoin:round;stroke-miterlimit:10;stroke-opacity:1;stroke-dasharray:none"
         id="path4407"
         inkscape:connector-curvature="0" /><path
         d="m 272.86172,39.051562 -4,0"
         style="fill:#000000;fill-opacity:1;fill-rule:nonzero;stroke:#000000;stroke-width:0.5;stroke-linecap:butt;stroke-linejoin:round;stroke-miterlimit:10;stroke-opacity:1;stroke-dasharray:none"
         id="path4409"
         inkscape:connector-curvature="0" /><text
         transform="matrix(1,0,0,-1,26.465625,36.723438)"
         id="text4411"><tspan
           style="font-size:10px;font-variant:normal;font-weight:normal;writing-mode:lr-tb;fill:#000000;fill-opacity:1;fill-rule:nonzero;stroke:none;font-family:STIXGeneral;-inkscape-font-specification:STIXGeneral-Regular"
           x="0 5 7.5"
           y="0"
           sodipodi:role="line"
           id="tspan4413">0.0</tspan></text>
<path
         d="m 42.496875,62.714915 4,0"
         style="fill:#000000;fill-opacity:1;fill-rule:nonzero;stroke:#000000;stroke-width:0.5;stroke-linecap:butt;stroke-linejoin:round;stroke-miterlimit:10;stroke-opacity:1;stroke-dasharray:none"
         id="path4415"
         inkscape:connector-curvature="0" /><path
         d="m 272.86172,62.714915 -4,0"
         style="fill:#000000;fill-opacity:1;fill-rule:nonzero;stroke:#000000;stroke-width:0.5;stroke-linecap:butt;stroke-linejoin:round;stroke-miterlimit:10;stroke-opacity:1;stroke-dasharray:none"
         id="path4417"
         inkscape:connector-curvature="0" /><text
         transform="matrix(1,0,0,-1,26.496875,60.38679)"
         id="text4419"><tspan
           style="font-size:10px;font-variant:normal;font-weight:normal;writing-mode:lr-tb;fill:#000000;fill-opacity:1;fill-rule:nonzero;stroke:none;font-family:STIXGeneral;-inkscape-font-specification:STIXGeneral-Regular"
           x="0 5 7.5"
           y="0"
           sodipodi:role="line"
           id="tspan4421">0.2</tspan></text>
<path
         d="m 42.496875,86.378267 4,0"
         style="fill:#000000;fill-opacity:1;fill-rule:nonzero;stroke:#000000;stroke-width:0.5;stroke-linecap:butt;stroke-linejoin:round;stroke-miterlimit:10;stroke-opacity:1;stroke-dasharray:none"
         id="path4423"
         inkscape:connector-curvature="0" /><path
         d="m 272.86172,86.378267 -4,0"
         style="fill:#000000;fill-opacity:1;fill-rule:nonzero;stroke:#000000;stroke-width:0.5;stroke-linecap:butt;stroke-linejoin:round;stroke-miterlimit:10;stroke-opacity:1;stroke-dasharray:none"
         id="path4425"
         inkscape:connector-curvature="0" /><text
         transform="matrix(1,0,0,-1,26.496875,84.050142)"
         id="text4427"><tspan
           style="font-size:10px;font-variant:normal;font-weight:normal;writing-mode:lr-tb;fill:#000000;fill-opacity:1;fill-rule:nonzero;stroke:none;font-family:STIXGeneral;-inkscape-font-specification:STIXGeneral-Regular"
           x="0 5 7.5"
           y="0"
           sodipodi:role="line"
           id="tspan4429">0.4</tspan></text>
<path
         d="m 42.496875,110.04162 4,0"
         style="fill:#000000;fill-opacity:1;fill-rule:nonzero;stroke:#000000;stroke-width:0.5;stroke-linecap:butt;stroke-linejoin:round;stroke-miterlimit:10;stroke-opacity:1;stroke-dasharray:none"
         id="path4431"
         inkscape:connector-curvature="0" /><path
         d="m 272.86172,110.04162 -4,0"
         style="fill:#000000;fill-opacity:1;fill-rule:nonzero;stroke:#000000;stroke-width:0.5;stroke-linecap:butt;stroke-linejoin:round;stroke-miterlimit:10;stroke-opacity:1;stroke-dasharray:none"
         id="path4433"
         inkscape:connector-curvature="0" /><text
         transform="matrix(1,0,0,-1,26.54375,107.71349)"
         id="text4435"><tspan
           style="font-size:10px;font-variant:normal;font-weight:normal;writing-mode:lr-tb;fill:#000000;fill-opacity:1;fill-rule:nonzero;stroke:none;font-family:STIXGeneral;-inkscape-font-specification:STIXGeneral-Regular"
           x="0 5 7.5"
           y="0"
           sodipodi:role="line"
           id="tspan4437">0.6</tspan></text>
<path
         d="m 42.496875,133.70497 4,0"
         style="fill:#000000;fill-opacity:1;fill-rule:nonzero;stroke:#000000;stroke-width:0.5;stroke-linecap:butt;stroke-linejoin:round;stroke-miterlimit:10;stroke-opacity:1;stroke-dasharray:none"
         id="path4439"
         inkscape:connector-curvature="0" /><path
         d="m 272.86172,133.70497 -4,0"
         style="fill:#000000;fill-opacity:1;fill-rule:nonzero;stroke:#000000;stroke-width:0.5;stroke-linecap:butt;stroke-linejoin:round;stroke-miterlimit:10;stroke-opacity:1;stroke-dasharray:none"
         id="path4441"
         inkscape:connector-curvature="0" /><text
         transform="matrix(1,0,0,-1,26.778125,131.37685)"
         id="text4443"><tspan
           style="font-size:10px;font-variant:normal;font-weight:normal;writing-mode:lr-tb;fill:#000000;fill-opacity:1;fill-rule:nonzero;stroke:none;font-family:STIXGeneral;-inkscape-font-specification:STIXGeneral-Regular"
           x="0 5 7.5"
           y="0"
           sodipodi:role="line"
           id="tspan4445">0.8</tspan></text>
<path
         d="m 42.496875,157.36832 4,0"
         style="fill:#000000;fill-opacity:1;fill-rule:nonzero;stroke:#000000;stroke-width:0.5;stroke-linecap:butt;stroke-linejoin:round;stroke-miterlimit:10;stroke-opacity:1;stroke-dasharray:none"
         id="path4447"
         inkscape:connector-curvature="0" /><path
         d="m 272.86172,157.36832 -4,0"
         style="fill:#000000;fill-opacity:1;fill-rule:nonzero;stroke:#000000;stroke-width:0.5;stroke-linecap:butt;stroke-linejoin:round;stroke-miterlimit:10;stroke-opacity:1;stroke-dasharray:none"
         id="path4449"
         inkscape:connector-curvature="0" /><text
         transform="matrix(1,0,0,-1,27.340625,155.0402)"
         id="text4451"><tspan
           style="font-size:10px;font-variant:normal;font-weight:normal;writing-mode:lr-tb;fill:#000000;fill-opacity:1;fill-rule:nonzero;stroke:none;font-family:STIXGeneral;-inkscape-font-specification:STIXGeneral-Regular"
           x="0 5 7.5"
           y="0"
           sodipodi:role="line"
           id="tspan4453">1.0</tspan></text>
<path
         d="m 181.06172,54.251563 16.8,0"
         style="fill:none;stroke:#000000;stroke-width:1;stroke-linecap:square;stroke-linejoin:round;stroke-miterlimit:10;stroke-opacity:1;stroke-dasharray:none"
         id="path4461"
         inkscape:connector-curvature="0" /><g
         id="g4463"
         transform="translate(211.06172,50.051562)"><text
           transform="matrix(1,0,0,-1,0,0.796875)"
           id="text4465"><tspan
             style="font-size:12px;font-variant:normal;font-weight:normal;writing-mode:lr-tb;fill:#000000;fill-opacity:1;fill-rule:nonzero;stroke:none;font-family:STIXGeneral;-inkscape-font-specification:STIXGeneral-Regular"
             x="0 3.3359985 8.6639862 14.663971 20.663956"
             y="0"
             sodipodi:role="line"
             id="tspan4467">tanh(</tspan></text>
<text
           transform="matrix(1,0,0,-1,24.659943,0.796875)"
           id="text4469"><tspan
             style="font-size:12px;font-style:italic;font-variant:normal;writing-mode:lr-tb;fill:#000000;fill-opacity:1;fill-rule:nonzero;stroke:none;font-family:STIXGeneral;-inkscape-font-specification:STIXGeneral-Italic"
             x="0"
             y="0"
             id="tspan4471">x</tspan></text>
<text
           transform="matrix(1,0,0,-1,33.453525,0.796875)"
           id="text4473"><tspan
             style="font-size:12px;font-variant:normal;font-weight:normal;writing-mode:lr-tb;fill:#000000;fill-opacity:1;fill-rule:nonzero;stroke:none;font-family:STIXGeneral;-inkscape-font-specification:STIXGeneral-Regular"
             x="0 6.8015928 12.801578"
             y="0"
             sodipodi:role="line"
             id="tspan4475">/2)</tspan></text>
</g></g></g></svg>